SplineFontDB: 1.0
FontName: TlwgTypewriter-Oblique
FullName: Tlwg Typewriter Mono Oblique
FamilyName: Tlwg Typewriter
Weight: Medium
Copyright: TlwgTypewriter, Free Thai Pseudo Monospace outline font. Copyright (C) 2003, 2004 Poonlap Veerathanabutr <poonlap@linux.thai.net>\n\nThis program is free software; you can redistribute it and/or modify it under the terms of the GNU General Public License as published by the Free Software Foundation; either version 1, or (at your option) any later version.\n\nThis program is distributed in the hope that it will be useful, but WITHOUT ANY WARRANTY; without even the implied warranty of MERCHANTABILITY or FITNESS FOR A PARTICULAR PURPOSE. See the GNU General Public License for more details.\n\nYou should have received a copy of the GNU General Public License along with this program; if not, write to the Free Software Foundation, Inc., 675 Mass Ave, Cambridge, MA 02139, USA.
Comments: 2003-11-25: Created. \nPfaEdit 1.0 (http://pfaedit.sf.net).\n\nTLWG is Thai Linux Working Group http://linux.thai.net\n\nThis font was derived from TlwgMono.Most characters have fixed width except some vowels and tone marks.\n
Version: 001.000
ItalicAngle: -12
UnderlinePosition: -100
UnderlineWidth: 50
Ascent: 800
Descent: 200
XUID: [1021 215 427847090 6073556]
FSType: 0
PfmFamily: 49
TTFWeight: 400
TTFWidth: 5
Panose: 2 0 6 3 0 0 0 0 0 0
LineGap: 90
VLineGap: 0
OS2WinAscent: 0
OS2WinAOffset: 1
OS2WinDescent: 0
OS2WinDOffset: 1
HheadAscent: 0
HheadAOffset: 1
HheadDescent: 0
HheadDOffset: 1
ScriptLang: 4
 1 thai 4 KUY  PAL  THA  dflt 
 1 latn 1 dflt 
 1 DFLT 1 dflt 
 1 thai 1 PAL  
ContextSub: glyph 0 3 ' RQD' 0 0 0 1
 String: 15 uni0E0D uni0E10
 BString: 0 
 FString: 0 
 1
  SeqLookup: 0 'ndsc'
EndFPST
ChainSub: coverage 0 0 'ccmp' 0 0 0 1
 2 0 0
  Coverage: 19 uni0E4B uni0E4B.low
  Coverage: 7 uni0E4D
 2
  SeqLookup: 0 'amni'
  SeqLookup: 1 'G007'
EndFPST
ChainSub: coverage 0 0 'ccmp' 0 0 0 1
 2 0 0
  Coverage: 19 uni0E4A uni0E4A.low

StartChar: exclam
Encoding: 1 33 32767
OldEncoding: 33
Width: 600
Flags: W
HStem: -15 100<301 313>
VStem: 381 80<563 579>
DStem: 381 563 458 563 311 237 388 237
Fore
458 563 m 1
 388 237 l 1
 384 217 357 209 343 209 c 0
 331.018 209 310.539 216.646 310.539 232.722 c 0
 310.539 234.087 310.687 235.513 311 237 c 1
 381 563 l 1
 381 570 383 575 384 579 c 0
 389 601 408 618 431 618 c 0
 449.83 618 462.067 605.546 462.067 588.162 c 0
 462.067 585.236 461.72 582.17 461 579 c 0
 461 577 460 571 458 563 c 1
311 85 m 2
 324 85 l 2
 350.27 85 368.105 68.1304 368.105 45.1346 c 0
 368.105 41.8696 367.746 38.4812 367 35 c 128
 361 7 333 -15 303 -15 c 2
 290 -15 l 2
 263.73 -15 245.895 1.86963 245.895 24.8654 c 0
 245.895 28.1304 246.254 31.5188 247 35 c 128
 253 63 281 85 311 85 c 2
EndSplineSet
EndChar
StartChar: quotedbl
Encoding: 2 34 32767
OldEncoding: 34
Width: 600
Flags: W
HStem: 584 20G<274 402 454 582>
Fore
274 604 m 1
 402 604 l 1
 315 351 l 1
 306 326 295 315 277 315 c 128
 261.68 315 254.328 322.968 254.328 340.754 c 0
 254.328 343.866 254.553 347.278 255 351 c 1
 274 604 l 1
454 604 m 1
 582 604 l 1
 495 351 l 1
 486 326 475 315 457 315 c 128
 441.68 315 434.328 322.968 434.328 340.754 c 0
 434.328 343.866 434.553 347.278 435 351 c 1
 454 604 l 1
EndSplineSet
EndChar
StartChar: numbersign
Encoding: 3 35 32767
OldEncoding: 35
Width: 600
Flags: W
HStem: 189 41<157 246 298 377 430 512> 189 208<223 377 345 501> 356 41<213 293 345 425 476 567>
DStem: 246 189 286 189 183 -33 223 -36 293 356 334 356 257 230 298 230 368 622 408 619 304 397 345 397 377 189 418 189 312 -41 354 -36 425 356 466 356 389 230 430 230 500 622 540 619 436 397 476 397
Fore
466 356 m 1x20
 430 230 l 1
 510 230 l 2
 526.024 230 533.331 224.452 533.331 214.063 c 0
 533.331 212.782 533.22 211.427 533 210 c 0
 530 196 519 189 501 189 c 2xa0
 418 189 l 1x40
 354 -36 l 1
 350 -54 341 -62 328 -62 c 0
 318.583 -62 311.364 -53.9379 311.364 -45.3431 c 0
 311.364 -43.8986 311.568 -42.4389 312 -41 c 1
 377 189 l 1x80
 286 189 l 1x40
 223 -36 l 1
 218 -54 210 -62 197 -62 c 0
 187.262 -62 180.659 -54.9473 180.659 -45.0041 c 0
 180.659 -43.715 180.77 -42.3772 181 -41 c 2
 183 -33 l 1
 246 189 l 1
 159 189 l 2
 143.68 189 136.328 194.071 136.328 204.212 c 0
 136.328 205.986 136.553 207.916 137 210 c 0
 139 223 150 230 168 230 c 2
 257 230 l 1
 293 356 l 1
 215 356 l 2xa0
 199.47 356 191.384 361.211 191.384 371.632 c 0
 191.384 373.29 191.588 375.079 192 377 c 0
 195 390 205 397 223 397 c 2
 304 397 l 1
 368 622 l 1
 373 639 382 647 395 647 c 0
 405.169 647 410.062 640.668 410.062 631.071 c 0
 410.062 627.456 409.368 623.378 408 619 c 1
 345 397 l 1
 436 397 l 1
 500 622 l 1
 505 639 513 647 526 647 c 0
 536.603 647 541.47 640.69 541.47 630.244 c 0
 541.47 626.897 540.971 623.125 540 619 c 1
 476 397 l 1x40
 565 397 l 2
 580.53 397 588.616 391.789 588.616 382.01 c 0
 588.616 380.455 588.412 378.784 588 377 c 0
 585 363 575 356 557 356 c 2
 466 356 l 1x20
425 356 m 1
 334 356 l 1
 298 230 l 1
 389 230 l 1
 425 356 l 1
EndSplineSet
EndChar
StartChar: dollar
Encoding: 4 36 32767
OldEncoding: 36
Width: 600
Flags: W
HStem: 65 133<148 176> 449 114<541 566> 538 117<416 440>
DStem: 291 54 332 54 266 -65 307 -65 413 628 454 628 402 576 443 576
Fore
402 576 m 1xa0
 413 628 l 2
 417 646 426 655 440 655 c 0xa0
 450.075 655 455.345 649.595 455.345 638.785 c 0
 455.345 635.646 454.9 632.051 454 628 c 2
 443 576 l 1
 488 572 508 562 539 534 c 1
 544 553 553 563 566 563 c 0
 576.603 563 581.47 557.838 581.47 547.513 c 0
 581.47 544.205 580.971 540.368 580 536 c 2
 567 476 l 2
 563 458 554 449 541 449 c 128xc0
 529.252 449 524.854 453.9 524.854 466.653 c 0
 524.854 468.011 524.904 469.459 525 471 c 0
 525.084 472.012 525.126 473.019 525.126 474.022 c 0
 525.126 508.718 475.286 538 416 538 c 0
 347 538 281 491 269 434 c 0
 267.745 427.823 267.143 422.112 267.143 416.821 c 0
 267.143 367.298 319.949 354.649 385 342 c 0
 454 328 478 320 502 301 c 0
 522.523 285.037 533.224 260.408 533.224 230.625 c 0
 533.224 221.226 532.159 211.314 530 201 c 0
 513 122 437 65 332 54 c 1
 307 -65 l 2
 303 -83 294 -92 281 -92 c 0
 270.111 -92 264.667 -86.5556 264.667 -75.6667 c 0
 264.667 -72.5555 265.111 -69 266 -65 c 2
 291 54 l 1
 246 56 197 79 177 108 c 1
 174 92 l 2
 170 74 161 65 148 65 c 0
 137.111 65 131.667 70.4444 131.667 81.3333 c 0
 131.667 84.4445 132.111 88 133 92 c 2
 149 171 l 2
 153 189 162 198 176 198 c 0
 186.917 198 191.487 193.064 191.487 180.822 c 0
 191.487 178.486 191.32 175.884 191 173 c 0
 190.802 171.294 190.704 169.598 190.704 167.913 c 0
 190.704 127.123 247.935 93 319 93 c 0
 404 93 475 138 489 201 c 0
 490.621 208.672 491.401 215.69 491.401 222.127 c 0
 491.401 275.253 438.247 288.729 366 303 c 0
 305 315 278 325 255 341 c 1
 236.233 356.639 225.415 382.062 225.415 410.575 c 0
 225.415 418.525 226.256 426.715 228 435 c 0
 244 507 316 566 402 576 c 1xa0
EndSplineSet
EndChar
StartChar: percent
Encoding: 5 37 32767
OldEncoding: 37
Width: 600
Flags: W
HStem: -12 38<357 370> 198 38<401 413> 363 38<312 330> 573 38<357 371>
DStem: 565 380 568 344 160 258 163 222
Fore
411 236 m 0
 470.583 236 510.033 194.988 510.033 138.077 c 0
 510.033 129.082 509.047 119.69 507 110 c 0
 493 44 425 -12 359 -12 c 0
 300.143 -12 260.015 29.9536 260.015 85.3293 c 0
 260.015 93.9313 260.983 102.857 263 112 c 128
 277 180 344 236 411 236 c 0
403 198 m 0
 357 198 311 160 301 112 c 0
 299.702 105.897 299.077 99.9292 299.077 94.164 c 0
 299.077 55.5295 327.103 26 368 26 c 0
 414 26 460 65 470 111 c 0
 471.327 117.503 471.967 123.813 471.967 129.866 c 0
 471.967 169.417 444.629 198 403 198 c 0
367 611 m 0
 426.583 611 466.033 569.988 466.033 513.721 c 0
 466.033 504.828 465.047 495.554 463 486 c 0
 449 419 381 363 315 363 c 0
 256.143 363 216.015 404.954 216.015 460.329 c 0
 216.015 468.931 216.983 477.857 219 487 c 128
 233 555 300 611 367 611 c 0
359 573 m 0
 313 573 267 534 257 487 c 128
 255.67 480.751 255.03 474.643 255.03 468.749 c 0
 255.03 430.318 282.249 401 323 401 c 0
 368 401 416 440 425 486 c 0
 426.571 493 427.327 499.776 427.327 506.248 c 0
 427.327 545.082 400.143 573 359 573 c 0
568 344 m 2
 163 222 l 2
 158 220 153 219 151 219 c 0
 144.178 219 137.355 225.545 137.355 233.675 c 0
 137.355 235.078 137.558 236.528 138 238 c 128
 140 248 146 254 160 258 c 2
 565 380 l 2
 569 381 573 382 577 382 c 0
 584.827 382 590.385 375.193 590.385 366.841 c 0
 590.385 365.589 590.261 364.303 590 363 c 0
 588 354 582 348 568 344 c 2
EndSplineSet
EndChar
StartChar: ampersand
Encoding: 6 38 32767
OldEncoding: 38
Width: 600
Flags: W
HStem: -16 41<242 260> 0 41<421 462> 208 41<461 506> 478 41<386 405>
DStem: 286 251 314 298 356 86 388 121 372 48 403 82 393 0 422 41
Fore
393 0 m 1x70
 372 48 l 1
 333 5 293 -16 247 -16 c 0xb0
 179.47 -16 131.429 38.7171 131.429 108.566 c 0
 131.429 119.396 132.584 130.59 135 142 c 0
 150 211 204 266 277 287 c 1
 255.724 340.557 248.442 360.743 248.442 379.148 c 0
 248.442 385.829 249.402 392.276 251 400 c 0
 265 465 332 519 399 519 c 0
 422 519 441 513 461 499 c 1
 469 503 481 510 489 510 c 0
 497.844 510 504.342 502.178 504.342 492.76 c 0
 504.342 491.529 504.231 490.271 504 489 c 0
 502 480 497 475 483 468 c 2
 448 452 l 1
 431 470 414 478 391 478 c 0
 348 478 301 440 292 398 c 0
 290.844 392.681 290.222 387.254 290.222 381.412 c 0
 290.222 361.992 297.088 337.974 314 298 c 2
 388 121 l 1
 416 158 441 201 461 249 c 1
 504 249 l 2
 520.024 249 527.331 243.452 527.331 233.063 c 0
 527.331 231.782 527.22 230.427 527 229 c 0
 524 215 513 208 495 208 c 2
 483 208 l 1
 458 156 429 110 403 82 c 1
 422 41 l 1
 460 41 l 2
 475.32 41 482.672 35.9293 482.672 26.4044 c 0
 482.672 24.7382 482.447 22.9356 482 21 c 0
 479 7 469 0 451 0 c 2
 393 0 l 1x70
356 86 m 1
 286 251 l 1
 231 239 188 197 176 142 c 0
 174.199 133.273 173.339 124.718 173.339 116.456 c 0
 173.339 65.0753 206.619 25 254 25 c 0
 289 25 326 47 356 86 c 1
EndSplineSet
EndChar
StartChar: quotesingle
Encoding: 7 39 32767
OldEncoding: 39
Width: 600
Flags: W
HStem: 584 20G<364 492>
Fore
364 604 m 1
 492 604 l 1
 405 351 l 1
 396 326 385 315 367 315 c 128
 351.68 315 344.328 322.968 344.328 340.754 c 0
 344.328 343.866 344.553 347.278 345 351 c 1
 364 604 l 1
EndSplineSet
EndChar
StartChar: parenleft
Encoding: 8 40 32767
OldEncoding: 40
Width: 600
Flags: W
HStem: 584 20G<561 570.869>
Fore
566 604 m 0
 575.738 604 582.341 596.947 582.341 587.698 c 0
 582.341 586.499 582.23 585.263 582 584 c 0
 581 580 580 578 577 573 c 0
 482 451 429 347 406 240 c 0
 397.942 202.513 393.935 165.64 393.935 128.219 c 0
 393.935 58.8294 407.714 -12.4427 435 -93 c 0
 435.707 -96.5355 436.414 -98.5711 436.414 -100.874 c 0
 436.414 -101.828 436.293 -102.828 436 -104 c 0
 434 -115 422 -124 411 -124 c 0
 401 -124 394 -114 379 -77 c 0
 349.667 -1.66667 335 69.6667 335 139.37 c 0
 335 174.222 338.667 208.667 346 243 c 0
 367 343 431 460 525 570 c 0
 548 597 556 604 566 604 c 0
EndSplineSet
EndChar
StartChar: parenright
Encoding: 9 41 32767
OldEncoding: 41
Width: 600
Flags: W
HStem: 584 20G<290.5 301>
Fore
296 604 m 0
 306 604 313 595 328 557 c 0
 357.773 482.899 372.225 411.862 372.225 342.441 c 0
 372.225 306.936 368.444 271.853 361 237 c 0
 340 137 276 20 182 -90 c 0
 159 -117 151 -124 141 -124 c 0
 131.262 -124 124.659 -116.947 124.659 -107.698 c 0
 124.659 -106.499 124.77 -105.262 125 -104 c 0
 126 -100 127 -98 130 -93 c 0
 225 29 278 133 301 240 c 0
 309.175 278.386 313.307 315.762 313.307 353.608 c 0
 313.307 422.244 299.717 492.428 272 573 c 0
 271.293 576.536 270.586 578.571 270.586 580.874 c 0
 270.586 581.828 270.707 582.828 271 584 c 0
 273 595 285 604 296 604 c 0
EndSplineSet
EndChar
StartChar: asterisk
Encoding: 10 42 32767
OldEncoding: 42
Width: 600
Flags: W
HStem: 584 20G<421 433.281>
DStem: 227 442 248 480 351 400 372 438 351 400 379 376 246 288 274 264 379 376 418 400 437 264 475 288 402 577 443 577 372 438 413 438 555 481 560 442 413 438 418 400
Fore
372 438 m 1
 402 577 l 2
 405 595 414 604 428 604 c 0
 438.562 604 443.844 598.059 443.844 586.176 c 0
 443.844 583.434 443.562 580.375 443 577 c 2
 413 438 l 1
 555 481 l 2
 561 483 568 484 571 484 c 0
 579.844 484 586.342 476.178 586.342 467.451 c 0
 586.342 466.311 586.231 465.156 586 464 c 0
 583 453 576 447 560 442 c 2
 418 400 l 1
 475 288 l 1
 477.25 282.75 478.375 278.062 478.375 273.938 c 0
 478.375 272.562 478.25 271.25 478 270 c 0
 476 259 465 250 454 250 c 0
 446 250 443 253 437 264 c 2
 379 376 l 1
 274 264 l 2
 264 254 258 250 250 250 c 0
 240.732 250 234.303 256.389 234.303 265.579 c 0
 234.303 267.296 234.528 269.111 235 271 c 0
 236 276 237 278 246 288 c 2
 351 400 l 1
 227 442 l 1
 218.044 444.687 210.691 448.978 210.691 459.185 c 0
 210.691 460.374 210.791 461.643 211 463 c 0
 214 474 225 483 236 483 c 0
 240 483 241 482 248 480 c 2
 372 438 l 1
EndSplineSet
EndChar
StartChar: plus
Encoding: 11 43 32767
OldEncoding: 43
Width: 600
Flags: W
HStem: 261 41<152 333 384 566>
DStem: 334 261 375 261 292 59 333 59 386 503 427 503 343 302 384 302
Fore
375 261 m 1
 333 59 l 2
 329 41 320 32 307 32 c 0
 296.111 32 290.667 37.4444 290.667 48.3333 c 0
 290.667 51.4444 291.111 55 292 59 c 2
 334 261 l 1
 154 261 l 2
 138.68 261 131.328 266.071 131.328 276.212 c 0
 131.328 277.986 131.553 279.916 132 282 c 0
 135 295 145 302 163 302 c 2
 343 302 l 1
 386 503 l 2
 390 521 399 530 413 530 c 0
 423.075 530 428.345 524.595 428.345 513.785 c 0
 428.345 510.646 427.9 507.051 427 503 c 2
 384 302 l 1
 564 302 l 2
 580.409 302 588.614 296.779 588.614 286.981 c 0
 588.614 285.434 588.409 283.773 588 282 c 0
 585 268 574 261 555 261 c 2
 375 261 l 1
EndSplineSet
EndChar
StartChar: comma
Encoding: 12 44 32767
OldEncoding: 44
Width: 600
Flags: W
Fore
238 145 m 1
 371 145 l 1
 169 -120 l 2
 155 -139 146 -145 133 -145 c 0
 118.907 -145 109.469 -134.915 109.469 -121.577 c 0
 109.469 -119.772 109.642 -117.907 110 -116 c 0
 111 -112 113 -109 115 -105 c 2
 238 145 l 1
EndSplineSet
EndChar
StartChar: hyphen
Encoding: 13 45 32767
OldEncoding: 45
Width: 600
Flags: W
HStem: 258 41<152 567>
Fore
556 258 m 2
 154 258 l 2
 138.47 258 130.384 263.211 130.384 273.632 c 0
 130.384 275.29 130.588 277.079 131 279 c 0
 134 292 145 299 163 299 c 2
 565 299 l 2
 580.32 299 587.672 293.929 587.672 284.404 c 0
 587.672 282.738 587.447 280.936 587 279 c 0
 584 265 574 258 556 258 c 2
EndSplineSet
EndChar
StartChar: period
Encoding: 14 46 32767
OldEncoding: 46
Width: 600
Flags: W
Fore
320 116 m 2
 330 116 l 2
 363.951 116 386.535 94.7801 386.535 64.8754 c 0
 386.535 60.4286 386.036 55.7897 385 51 c 0
 377 13 341 -15 302 -15 c 2
 292 -15 l 2
 258.049 -15 235.465 6.9778 235.465 37.0787 c 0
 235.465 41.5547 235.964 46.2103 237 51 c 128
 245 88 281 116 320 116 c 2
EndSplineSet
EndChar
StartChar: slash
Encoding: 15 47 32767
OldEncoding: 47
Width: 600
Flags: W
DStem: 583 650 617 633 108 -46 142 -63
Fore
617 633 m 2
 142 -63 l 2
 132 -77 126 -81 116 -81 c 128
 107.044 -81 99.6915 -73.7804 99.6915 -65.0889 c 0
 99.6915 -64.0762 99.7913 -63.0436 100 -62 c 0
 101 -58 103 -53 108 -46 c 1
 583 650 l 2
 593 664 599 668 609 668 c 128
 617.956 668 625.309 660.78 625.309 652.089 c 0
 625.309 651.076 625.209 650.044 625 649 c 0
 624 645 622 641 617 633 c 2
EndSplineSet
EndChar
StartChar: zero
Encoding: 16 48 32767
OldEncoding: 48
Width: 600
Flags: W
HStem: -15 41<295 315> 577 41<413 433>
DStem: 188 351 228 346 166 251 209 257 520 346 562 351 501 257 540 251
Fore
562 351 m 2
 540 251 l 2
 507 93 408 -15 297 -15 c 128
 208.007 -15 156.295 54.4211 156.295 163.373 c 0
 156.295 190.315 159.457 219.675 166 251 c 2
 188 351 l 2
 221 510 320 618 431 618 c 128
 519.993 618 571.705 548.579 571.705 439.112 c 0
 571.705 412.042 568.543 382.523 562 351 c 2
228 346 m 2
 209 257 l 2
 203.433 231.549 200.712 205.465 200.712 180.384 c 0
 200.712 142.395 206.953 106.707 219 79 c 0
 234 45 264 26 306 26 c 128
 348 26 386 45 415 79 c 0
 455 125 487 193 501 257 c 2
 520 346 l 2
 525.154 371.371 527.793 397.371 527.793 422.38 c 0
 527.793 460.457 521.675 496.236 509 524 c 0
 495 558 465 577 423 577 c 128
 381 577 343 558 313 524 c 0
 274 478 241 410 228 346 c 2
EndSplineSet
EndChar
StartChar: one
Encoding: 17 49 32767
OldEncoding: 49
Width: 600
Flags: W
HStem: 0 41<139 289 330 471>
DStem: 398 557 451 612 289 41 330 41 451 612 398 557 254 554 257 515
Fore
451 612 m 1
 330 41 l 1
 469 41 l 2
 484.32 41 491.672 35.9293 491.672 26.4044 c 0
 491.672 24.7382 491.447 22.9356 491 21 c 0
 488 7 478 0 460 0 c 2
 141 0 l 2
 125.286 0 116.431 5.3347 116.431 16.0041 c 0
 116.431 17.5565 116.619 19.2218 117 21 c 0
 120 34 131 41 150 41 c 2
 289 41 l 1
 398 557 l 1
 257 515 l 2
 253 514 245 512 243 512 c 0
 234.945 512 227.69 520.011 227.69 528.863 c 0
 227.69 529.901 227.79 530.95 228 532 c 0
 230 543 237 549 254 554 c 2
 451 612 l 1
EndSplineSet
EndChar
StartChar: two
Encoding: 18 50 32767
OldEncoding: 50
Width: 600
Flags: W
HStem: 0 41<132 478> 0 104<476 480> 577 41<403 423>
Fore
132 41 m 1xa0
 446 41 l 1xa0
 453 77 l 2
 457 95 466 104 480 104 c 0x60
 490.075 104 495.345 98.5949 495.345 87.7846 c 0
 495.345 84.6455 494.9 81.0506 494 77 c 2
 478 0 l 1xa0
 84 0 l 1x60
 97 60 l 1
 380 282 l 2
 493 374 518 402 528 447 c 0
 529.696 454.8 530.51 462.498 530.51 470.018 c 0
 530.51 529.012 480.408 577 413 577 c 0
 345 577 273 532 244 472 c 0
 237 458 230 452 219 452 c 0
 210.156 452 203.658 459.04 203.658 466.894 c 0
 203.658 467.92 203.769 468.96 204 470 c 0
 208 488 227 518 251 542 c 0
 298 590 360 618 421 618 c 0
 508.007 618 572.155 554.153 572.155 476.145 c 0
 572.155 466.29 571.131 456.208 569 446 c 0
 556 387 530 358 380 237 c 0
 275 151 200 92 132 44 c 1
 132 41 l 1xa0
EndSplineSet
EndChar
StartChar: three
Encoding: 19 51 32767
OldEncoding: 51
Width: 600
Flags: W
HStem: -15 41<275 303> 312 41<343 356> 577 41<413 434>
Fore
444 328 m 1
 504.467 300.747 538.097 253.186 538.097 197.671 c 0
 538.097 188 537.077 178.088 535 168 c 0
 513 67 402 -15 287 -15 c 0
 238 -15 194 -2 148 26 c 0
 121.36 41.0959 110.491 53.0376 110.491 64.6261 c 0
 110.491 66.0878 110.664 67.5439 111 69 c 0
 113 79 124 88 134 88 c 0
 140 88 143 86 149 81 c 0
 189 45 241 26 297 26 c 0
 388 26 477 91 494 168 c 0
 495.575 175.676 496.336 183.236 496.336 190.628 c 0
 496.336 258.351 432.454 312 345 312 c 0
 329.68 312 322.328 317.071 322.328 327.212 c 0
 322.328 328.986 322.553 330.916 323 333 c 0
 326 346 337 353 354 353 c 0
 404 353 420 354 443 364 c 0
 489 382 525 421 534 463 c 0
 535.631 470.574 536.421 477.93 536.421 485.017 c 0
 536.421 538.753 491.028 577 423 577 c 0
 367 577 313 557 277 523 c 0
 265 511 261 509 253 509 c 0
 243.262 509 236.659 516.053 236.659 524.609 c 0
 236.659 525.718 236.77 526.852 237 528 c 128
 239 538 257 556 282 572 c 0
 327 602 380 618 432 618 c 0
 520.397 618 579.1 565.646 579.1 493.404 c 0
 579.1 483.921 578.089 474.095 576 464 c 0
 564 407 514 355 449 330 c 0
 448 330 446 329 444 328 c 1
EndSplineSet
EndChar
StartChar: four
Encoding: 20 52 32767
OldEncoding: 52
Width: 600
Flags: W
HStem: 0 41<298 385 426 462> 0 210<189 451> 169 41<189 412 462 498> 543 20G<472 496> 584 20G<461 545>
DStem: 412 169 453 169 385 41 426 41 461 604 472 563 151 216 189 210 496 563 545 604 421 210 462 210
Fore
412 169 m 1xb8
 141 169 l 1
 151 216 l 1
 461 604 l 1
 545 604 l 1
 462 210 l 1
 496 210 l 2
 511.32 210 518.672 204.929 518.672 194.788 c 0
 518.672 193.014 518.447 191.084 518 189 c 0
 515 176 505 169 487 169 c 2
 453 169 l 1
 426 41 l 1
 460 41 l 2
 475.32 41 482.672 35.9293 482.672 26.4044 c 0
 482.672 24.7382 482.447 22.9356 482 21 c 0
 479 7 469 0 451 0 c 2
 300 0 l 2
 284.47 0 276.384 5.21073 276.384 15.6322 c 0
 276.384 17.2897 276.588 19.0789 277 21 c 0
 280 34 291 41 309 41 c 2
 385 41 l 1
 412 169 l 1xb8
421 210 m 1x58
 496 563 l 1
 472 563 l 1
 189 210 l 1
 421 210 l 1x58
EndSplineSet
EndChar
StartChar: five
Encoding: 21 53 32767
OldEncoding: 53
Width: 600
Flags: W
HStem: -15 41<278 312> 354 41<383 408> 563 41<277 561>
DStem: 277 604 310 563 220 335 268 365
Fore
310 563 m 1
 268 365 l 1
 323 386 362 395 406 395 c 0
 492.529 395 547.394 335.988 547.394 249.71 c 0
 547.394 234.284 545.64 217.987 542 201 c 0
 515 75 411 -15 292 -15 c 0
 239 -15 192 1 149 34 c 0
 124.059 53.3987 112.771 67.6776 112.771 79.2013 c 0
 112.771 80.1525 112.847 81.085 113 82 c 0
 116 93 127 102 138 102 c 0
 144 102 147 100 153 93 c 0
 191 49 241 26 299 26 c 0
 397 26 479 98 501 203 c 0
 503.907 216.618 505.316 229.604 505.316 241.832 c 0
 505.316 309.522 462.147 354 391 354 c 0
 351 354 305 343 258 321 c 0
 245 315 240 313 235 313 c 0
 225.732 313 219.303 319.389 219.303 329.177 c 0
 219.303 331.006 219.528 332.953 220 335 c 2
 277 604 l 1
 559 604 l 2
 575.409 604 583.614 598.779 583.614 588.981 c 0
 583.614 587.434 583.409 585.773 583 584 c 0
 580 570 570 563 551 563 c 2
 310 563 l 1
EndSplineSet
EndChar
StartChar: six
Encoding: 22 54 32767
OldEncoding: 54
Width: 600
Flags: W
HStem: -15 41<327 346> 323 41<407 425> 577 41<545 561>
Fore
228 242 m 1
 287 324 349 364 420 364 c 0
 498.088 364 552.612 302.147 552.612 220.143 c 0
 552.612 206.584 551.122 192.473 548 178 c 0
 525 70 431 -15 334 -15 c 0
 240.086 -15 184.812 62.2774 184.812 182.048 c 0
 184.812 212.766 188.447 246.279 196 282 c 0
 221 398 274 484 361 547 c 0
 424 593 494 618 559 618 c 0
 599.628 618 631.329 603.717 631.329 586.115 c 0
 631.329 585.087 631.221 584.048 631 583 c 0
 629 572 619 563 608 563 c 0
 603 563 599 564 592 569 c 0
 583 574 566 577 547 577 c 0
 471 577 382 530 317 455 c 0
 279 411 249 349 236 285 c 0
 234 276 231 261 228 242 c 1
223 188 m 1
 228 84 262 26 344 26 c 0
 418 26 489 92 507 178 c 0
 509.51 189.665 510.712 201.047 510.712 211.975 c 0
 510.712 275.052 470.664 323 411 323 c 0
 374 323 329 302 290 266 c 0
 271 250 256 232 223 188 c 1
EndSplineSet
EndChar
StartChar: seven
Encoding: 23 55 32767
OldEncoding: 55
Width: 600
Flags: W
HStem: -1 21G<290.131 300> 563 41<233 557>
DStem: 553 545 593 539 284 32 319 20
Fore
553 545 m 1
 557 563 l 1
 266 563 l 1
 258 528 l 2
 254 509 245 500 232 500 c 0
 221.111 500 215.667 505.444 215.667 516.804 c 0
 215.667 520.049 216.111 523.778 217 528 c 2
 233 604 l 1
 606 604 l 1
 593 539 l 1
 319 20 l 2
 311 4 305 -1 295 -1 c 0
 285.262 -1 278.659 6.05269 278.659 15.3022 c 0
 278.659 16.5014 278.77 17.7375 279 19 c 0
 280 22 282 28 284 32 c 2
 553 545 l 1
EndSplineSet
EndChar
StartChar: eight
Encoding: 24 56 32767
OldEncoding: 56
Width: 600
Flags: W
HStem: -15 41<290 308> 293 40<360 373> 577 41<414 433>
Fore
442 313 m 1
 496.684 285.658 524.595 244.586 524.595 193.765 c 0
 524.595 183.249 523.4 172.316 521 161 c 0
 501 64 400 -15 297 -15 c 128
 206.267 -15 143.47 46.3028 143.47 127.211 c 0
 143.47 138.15 144.618 149.447 147 161 c 0
 161 227 211 279 292 313 c 1
 240.263 342.564 215.502 376.849 215.502 421.946 c 0
 215.502 431.764 216.676 442.094 219 453 c 0
 238 543 335 618 431 618 c 128
 515.725 618 576.304 559.583 576.304 483.993 c 0
 576.304 473.934 575.232 463.57 573 453 c 0
 560 392 520 349 442 313 c 1
423 577 m 0
 347 577 275 521 260 451 c 0
 258.392 443.418 257.615 436.02 257.615 428.865 c 0
 257.615 373.739 303.731 333 371 333 c 0
 446 333 518 385 532 450 c 0
 533.849 458.752 534.741 467.276 534.741 475.496 c 0
 534.741 533.955 489.632 577 423 577 c 0
362 293 m 0
 280 293 204 235 188 161 c 0
 186.076 151.982 185.15 143.181 185.15 134.675 c 0
 185.15 72.439 234.739 26 306 26 c 0
 386 26 464 86 480 160 c 0
 481.974 169.377 482.928 178.464 482.928 187.191 c 0
 482.928 249.198 434.76 293 362 293 c 0
EndSplineSet
EndChar
StartChar: nine
Encoding: 25 57 32767
OldEncoding: 57
Width: 600
Flags: W
HStem: -15 41<213 230> 239 41<349 366> 577 41<429 447>
Fore
546 361 m 1
 487 279 425 239 354 239 c 0
 275.603 239 221.698 301.344 221.698 383.831 c 0
 221.698 397.092 223.092 410.873 226 425 c 0
 249 533 343 618 440 618 c 0
 533.914 618 589.188 540.723 589.188 420.952 c 0
 589.188 390.234 585.553 356.721 578 321 c 0
 554 205 500 119 413 56 c 0
 350 10 280 -15 215 -15 c 0
 174.372 -15 142.671 -0.716571 142.671 16.8852 c 0
 142.671 17.9129 142.779 18.9519 143 20 c 0
 146 31 156 40 167 40 c 0
 172 40 175 39 182 34 c 0
 191 29 209 26 228 26 c 0
 304 26 393 73 457 148 c 0
 495 192 525 254 539 318 c 0
 541 327 543 342 546 361 c 1
551 415 m 1
 546 519 513 577 431 577 c 0
 357 577 286 511 267 425 c 0
 264.744 413.862 263.661 402.983 263.661 392.511 c 0
 263.661 328.702 303.869 280 364 280 c 0
 401 280 445 301 485 337 c 0
 503 353 518 371 551 415 c 1
EndSplineSet
EndChar
StartChar: colon
Encoding: 26 58 32767
OldEncoding: 58
Width: 600
Flags: W
HStem: -15 131<302 320> 285 132<366 384>
Fore
320 116 m 2
 330 116 l 2
 363.951 116 386.535 94.7801 386.535 64.8754 c 0
 386.535 60.4286 386.036 55.7897 385 51 c 0
 377 13 341 -15 302 -15 c 2
 292 -15 l 2
 258.049 -15 235.465 6.9778 235.465 37.0787 c 0
 235.465 41.5547 235.964 46.2103 237 51 c 128
 245 88 281 116 320 116 c 2
384 417 m 2
 394 417 l 2
 428.319 417 450.248 394.544 450.248 363.941 c 0
 450.248 359.767 449.84 355.441 449 351 c 128
 441 314 405 285 366 285 c 2
 356 285 l 2
 322.049 285 299.465 306.978 299.465 337.079 c 0
 299.465 341.555 299.964 346.21 301 351 c 128
 308 388 345 417 384 417 c 2
EndSplineSet
EndChar
StartChar: semicolon
Encoding: 27 59 32767
OldEncoding: 59
Width: 600
Flags: W
HStem: 285 132<342 360>
Fore
242 145 m 1
 375 145 l 1
 173 -120 l 2
 159 -139 150 -145 137 -145 c 0
 122.907 -145 113.469 -134.915 113.469 -121.577 c 0
 113.469 -119.772 113.642 -117.907 114 -116 c 0
 115 -112 117 -109 119 -105 c 2
 242 145 l 1
360 417 m 2
 370 417 l 2
 404.319 417 426.248 394.544 426.248 363.941 c 0
 426.248 359.767 425.84 355.441 425 351 c 128
 417 314 381 285 342 285 c 2
 332 285 l 2
 298.049 285 275.465 306.978 275.465 337.079 c 0
 275.465 341.555 275.964 346.21 277 351 c 128
 284 388 321 417 360 417 c 2
EndSplineSet
EndChar
StartChar: less
Encoding: 28 60 32767
OldEncoding: 60
Width: 600
Flags: W
DStem: 132 281 214 281 499 49 527 84 599 513 611 478 132 281 214 281
Fore
132 281 m 1
 599 513 l 2
 605 516 609 518 612 518 c 0
 620.55 518 627.639 509.227 627.639 500.432 c 0
 627.639 498.941 627.435 497.45 627 496 c 0
 626 488 621 483 611 478 c 2
 214 281 l 1
 527 84 l 2
 533.4 80 536.6 75.36 536.6 70.592 c 0
 536.6 69.4 536.4 68.2 536 67 c 0
 536 64 534 60 531 57 c 2
 528 54 l 2
 524 48 517 44 511 44 c 0
 508 44 504 46 499 49 c 2
 132 281 l 1
EndSplineSet
EndChar
StartChar: equal
Encoding: 29 61 32767
OldEncoding: 61
Width: 600
Flags: W
HStem: 190 41<116 573> 334 41<147 604>
Fore
593 334 m 2
 149 334 l 2
 133.47 334 125.384 339.211 125.384 349.632 c 0
 125.384 351.29 125.588 353.079 126 355 c 0
 129 368 140 375 158 375 c 2
 602 375 l 2
 617.32 375 624.672 369.929 624.672 360.404 c 0
 624.672 358.738 624.447 356.936 624 355 c 0
 621 341 611 334 593 334 c 2
562 190 m 2
 118 190 l 2
 102.68 190 95.3283 195.071 95.3283 205.212 c 0
 95.3283 206.986 95.5533 208.916 96 211 c 0
 99 224 109 231 127 231 c 2
 571 231 l 2
 586.53 231 594.616 225.789 594.616 216.01 c 0
 594.616 214.455 594.412 212.784 594 211 c 0
 591 197 580 190 562 190 c 2
EndSplineSet
EndChar
StartChar: greater
Encoding: 30 62 32767
OldEncoding: 62
Width: 600
Flags: W
DStem: 193 478 220 513 506 281 588 281 506 281 588 281 109 84 120 49
Fore
588 281 m 1
 120 49 l 2
 115 46 110 44 107 44 c 0
 97.4088 44 91.6189 53.123 91.6189 62.7516 c 0
 91.6189 64.1659 91.7439 65.5912 92 67 c 0
 94 74 99 79 109 84 c 2
 506 281 l 1
 193 478 l 2
 185.985 482.384 182.814 487.538 182.814 493.46 c 0
 182.814 494.292 182.877 495.138 183 496 c 0
 184 499 186 502 188 505 c 2
 191 508 l 2
 195 514 202 518 208 518 c 0
 211 518 216 516 220 513 c 2
 588 281 l 1
EndSplineSet
EndChar
StartChar: question
Encoding: 31 63 32767
OldEncoding: 63
Width: 600
Flags: W
HStem: -15 100<293 323> 536 41<405 439>
DStem: 246 529 282 502 232 461 273 461 339 274 375 247 325 206 366 206
Fore
375 247 m 1
 366 206 l 2
 362 188 353 179 340 179 c 0
 329.111 179 323.667 184.444 323.667 195.333 c 0
 323.667 198.444 324.111 202 325 206 c 2
 339 274 l 1
 466 323 524 366 536 423 c 0
 537.598 430.531 538.375 437.815 538.375 444.81 c 0
 538.375 499.114 491.529 536 418 536 c 0
 373 536 339 528 282 502 c 1
 273 461 l 2
 269 443 260 434 247 434 c 0
 236.111 434 230.667 439.444 230.667 450.333 c 0
 230.667 453.444 231.111 457 232 461 c 2
 246 529 l 1
 256 532 269 538 278 541 c 0
 347 569 381 577 432 577 c 0
 524.603 577 580.573 529.681 580.573 456.38 c 0
 580.573 445.776 579.401 434.627 577 423 c 0
 561 349 512 306 375 247 c 1
305 85 m 2
 332 85 l 2
 361.285 85 379.442 70.1627 379.441 46.8779 c 0
 379.441 43.1287 378.971 39.1605 378 35 c 0
 372 6 345 -15 311 -15 c 2
 284 -15 l 2
 254.183 -15 235.902 0.381629 235.902 24.4002 c 0
 235.902 27.7697 236.262 31.3092 237 35 c 128
 244 65 271 85 305 85 c 2
EndSplineSet
EndChar
StartChar: at
Encoding: 32 64 32767
OldEncoding: 64
Width: 600
Flags: W
HStem: -62 41<281 303> 147 41<407 427> 583 41<419 435>
DStem: 182 361 222 358 147 198 188 198 498 376 557 463 459 192 499 186 516 463 557 463 506 416 499 186
Fore
449 145 m 1
 450 150 l 1
 429 148 419 147 409 147 c 0
 340.888 147 297.177 188.177 297.177 245.893 c 0
 297.177 254.272 298.098 262.999 300 272 c 0
 317.854 355.321 403.598 416.012 503.553 416.012 c 0
 504.368 416.012 505.183 416.008 506 416 c 1
 516 463 l 2
 518.192 473.23 519.252 483.033 519.252 492.315 c 0
 519.252 546.546 483.062 583 425 583 c 0
 334 583 250 490 222 358 c 2
 188 198 l 2
 183.207 175.88 180.861 154.168 180.861 133.315 c 0
 180.861 97.6035 187.742 64.4102 201 36 c 0
 219 -3 251 -21 301 -21 c 0
 344 -21 387 -9 412 9 c 0
 425 19 426 20 433 20 c 0
 442.738 20 449.341 12.9473 449.341 4.39149 c 0
 449.341 3.28223 449.23 2.1477 449 1 c 0
 443 -30 360 -62 286 -62 c 0
 226 -62 187 -38 162 13 c 0
 146.375 45.5 138.562 81.9062 138.562 121.975 c 0
 138.562 146.016 141.375 171.375 147 198 c 2
 182 361 l 2
 214 513 320 624 433 624 c 0
 511.096 624 561.204 573.182 561.204 500.62 c 0
 561.204 488.63 559.836 476.046 557 463 c 2
 499 186 l 1
 508.093 184.347 513.77 179.277 513.77 171.355 c 0
 513.77 169.693 513.52 167.907 513 166 c 0
 510 152 500 145 482 145 c 2
 449 145 l 1
459 192 m 1
 498 376 l 1
 420 376 354 333 341 273 c 0
 339.586 266.572 338.899 260.391 338.899 254.501 c 0
 338.899 214.579 370.457 188 421 188 c 0
 432 188 446 189 459 192 c 1
EndSplineSet
EndChar
StartChar: A
Encoding: 33 65 32767
OldEncoding: 65
Width: 600
Flags: W
HStem: 0 41<34 76 117 198 406 493 535 575> 188 41<227 468> 522 41<235 357 246 412>
DStem: 357 522 397 522 76 41 227 229 357 522 202 188 76 41 117 41 412 522 450 563 462 229 536 41 468 188 450 563 493 41 536 41
Fore
468 188 m 1
 202 188 l 1
 117 41 l 1
 196 41 l 2
 211.32 41 218.672 35.9293 218.672 26.4044 c 0
 218.672 24.7382 218.447 22.9356 218 21 c 0
 215 7 205 0 187 0 c 2
 36 0 l 2
 20.47 0 12.3838 5.21073 12.3838 15.6322 c 0
 12.3838 17.2897 12.5883 19.0789 13 21 c 0
 16 34 27 41 45 41 c 2
 76 41 l 1
 357 522 l 1
 237 522 l 2
 221.47 522 213.384 527.211 213.384 537.632 c 0
 213.384 539.29 213.588 541.079 214 543 c 0
 217 556 228 563 246 563 c 2
 450 563 l 1
 536 41 l 1
 573 41 l 2
 588.32 41 595.672 35.9293 595.672 26.4044 c 0
 595.672 24.7382 595.447 22.9356 595 21 c 0
 592 7 582 0 564 0 c 2
 408 0 l 2
 392.47 0 384.384 5.21073 384.384 15.6322 c 0
 384.384 17.2897 384.588 19.0789 385 21 c 0
 388 34 399 41 417 41 c 2
 493 41 l 1
 468 188 l 1
462 229 m 1
 412 522 l 1
 397 522 l 1
 227 229 l 1
 462 229 l 1
EndSplineSet
EndChar
StartChar: B
Encoding: 34 66 32767
OldEncoding: 66
Width: 600
Flags: W
HStem: 0 41<68 133 174 384> 272 41<232 399> 522 41<179 234 190 451>
DStem: 235 522 276 522 133 41 232 313 235 522 223 272 133 41 174 41
Fore
133 41 m 1
 235 522 l 1
 181 522 l 2
 165.47 522 157.384 527.211 157.384 537.632 c 0
 157.384 539.29 157.588 541.079 158 543 c 0
 161 556 172 563 190 563 c 2
 448 563 l 2
 533.966 563 590.871 513.517 590.871 445.18 c 0
 590.871 436.409 589.934 427.328 588 418 c 0
 577 367 543 330 477 298 c 1
 543.346 272.482 577.134 233.942 577.134 181.763 c 0
 577.134 172.597 576.092 163.011 574 153 c 0
 556 69 467 0 376 0 c 2
 70 0 l 2
 54.47 0 46.3838 5.21073 46.3838 15.6322 c 0
 46.3838 17.2897 46.5883 19.0789 47 21 c 0
 50 34 61 41 79 41 c 2
 133 41 l 1
232 313 m 1
 379 313 l 2
 464 313 534 357 547 419 c 0
 548.278 425.176 548.898 431.204 548.898 437.046 c 0
 548.898 486.073 505.227 522 440 522 c 2
 276 522 l 1
 232 313 l 1
174 41 m 1
 382 41 l 2
 453 41 519 91 533 153 c 0
 534.176 159.048 534.759 165.069 534.759 171.004 c 0
 534.759 200.394 520.456 227.696 493 246 c 0
 465 265 433 272 372 272 c 2
 223 272 l 1
 174 41 l 1
EndSplineSet
EndChar
StartChar: C
Encoding: 35 67 32767
OldEncoding: 67
Width: 600
Flags: W
HStem: -16 41<316 334> 535 41<412 429>
DStem: 132 325 172 319 114 242 157 248
Fore
586 507 m 1
 592 536 l 2
 596 554 605 563 619 563 c 0
 629.075 563 634.345 557.595 634.345 546.785 c 0
 634.345 543.646 633.9 540.051 633 536 c 2
 609 424 l 2
 605 406 596 397 582 397 c 0
 571.714 397 566.571 402.878 566.571 414.633 c 0
 566.571 416.592 566.714 418.714 567 421 c 0
 567.538 424.644 567.801 428.26 567.801 431.837 c 0
 567.801 488.143 502.683 535 419 535 c 0
 308 535 197 438 172 319 c 2
 157 248 l 2
 153.614 232.374 151.992 217.036 151.992 202.176 c 0
 151.992 102.922 224.366 25 327 25 c 0
 396 25 453 51 520 115 c 0
 529 123 534 125 541 125 c 0
 551.476 125 557.379 118.903 557.379 110.036 c 0
 557.379 108.746 557.254 107.397 557 106 c 0
 554 96 539 79 508 55 c 0
 449 9 383 -16 319 -16 c 0
 198.869 -16 109.168 79.9705 109.168 195.41 c 0
 109.168 210.659 110.733 226.248 114 242 c 2
 132 325 l 2
 145 386 188 456 241 502 c 0
 296 550 360 576 427 576 c 0
 493 576 548 552 586 507 c 1
EndSplineSet
EndChar
StartChar: D
Encoding: 36 68 32767
OldEncoding: 68
Width: 600
Flags: W
HStem: 0 41<68 113 154 307> 522 41<179 215 190 415>
DStem: 215 522 256 522 113 41 154 41 547 318 586 310 531 245 574 254
Fore
113 41 m 1
 215 522 l 1
 181 522 l 2
 165.47 522 157.384 527.211 157.384 537.632 c 0
 157.384 539.29 157.588 541.079 158 543 c 0
 161 556 172 563 190 563 c 2
 410 563 l 2
 520.213 563 592.469 481.247 592.469 369.503 c 0
 592.469 350.455 590.369 330.535 586 310 c 2
 574 254 l 2
 544 112 419 0 290 0 c 2
 70 0 l 2
 54.47 0 46.3838 5.21073 46.3838 15.6322 c 0
 46.3838 17.2897 46.5883 19.0789 47 21 c 0
 50 34 61 41 79 41 c 2
 113 41 l 1
154 41 m 1
 304 41 l 2
 400 41 509 139 531 245 c 2
 547 318 l 2
 549.673 330.878 550.988 344.169 550.988 357.501 c 0
 550.988 399.036 538.225 440.962 514 472 c 0
 487 507 453 522 399 522 c 2
 256 522 l 1
 154 41 l 1
EndSplineSet
EndChar
StartChar: E
Encoding: 37 69 32767
OldEncoding: 69
Width: 600
Flags: W
HStem: 0 41<68 133 174 520> 200 113<232 378> 272 41<232 368> 522 41<179 234 190 569>
DStem: 235 522 276 522 133 41 232 313 235 522 223 272 133 41 174 41 368 272 427 358 358 227 399 227 386 358 427 358 377 313 399 227 513 160 554 160 488 41 520 0 569 522 619 563 548 424 589 424
Fore
223 272 m 1xb0
 174 41 l 1
 488 41 l 1
 513 160 l 2
 517 178 526 187 540 187 c 0
 550.075 187 555.345 181.595 555.345 170.785 c 0
 555.345 167.646 554.9 164.051 554 160 c 2
 520 0 l 1
 70 0 l 2
 54.47 0 46.3838 5.21073 46.3838 15.6322 c 0
 46.3838 17.2897 46.5883 19.0789 47 21 c 0
 50 34 61 41 79 41 c 2
 133 41 l 1
 235 522 l 1
 181 522 l 2
 165.47 522 157.384 527.211 157.384 537.632 c 0
 157.384 539.29 157.588 541.079 158 543 c 0
 161 556 172 563 190 563 c 2
 619 563 l 1
 589 424 l 2
 585 406 576 397 562 397 c 0
 551.925 397 546.655 402.405 546.655 413.215 c 0
 546.655 416.354 547.1 419.949 548 424 c 2
 569 522 l 1
 276 522 l 1
 232 313 l 1
 377 313 l 1
 386 358 l 2
 390 376 399 385 413 385 c 0
 423.075 385 428.345 379.595 428.345 368.785 c 0
 428.345 365.646 427.9 362.051 427 358 c 2
 399 227 l 2
 395 209 387 200 374 200 c 0xd0
 362.858 200 356.784 205.7 356.784 217.1 c 0
 356.784 220.025 357.183 223.325 358 227 c 2
 368 272 l 1
 223 272 l 1xb0
EndSplineSet
EndChar
StartChar: F
Encoding: 38 70 32767
OldEncoding: 70
Width: 600
Flags: W
HStem: 0 41<68 133 174 314> 200 113<232 377> 272 41<232 368> 522 41<179 234 190 590>
DStem: 235 522 276 522 133 41 232 313 235 522 223 272 133 41 174 41 368 272 427 358 358 227 399 227 386 358 427 358 377 313 399 227 590 522 640 563 569 424 610 424
Fore
223 272 m 1xb0
 174 41 l 1
 312 41 l 2
 328.192 41 335.668 35.9165 335.668 26.3683 c 0
 335.668 24.7121 335.443 22.9216 335 21 c 0
 332 7 321 0 303 0 c 2
 70 0 l 2
 54.47 0 46.3838 5.21073 46.3838 15.6322 c 0
 46.3838 17.2897 46.5883 19.0789 47 21 c 0
 50 34 61 41 79 41 c 2
 133 41 l 1
 235 522 l 1
 181 522 l 2
 165.47 522 157.384 527.211 157.384 537.632 c 0
 157.384 539.29 157.588 541.079 158 543 c 0
 161 556 172 563 190 563 c 2
 640 563 l 1
 610 424 l 2
 606 406 597 397 583 397 c 0
 572.925 397 567.655 402.405 567.655 413.215 c 0
 567.655 416.354 568.1 419.949 569 424 c 2
 590 522 l 1
 276 522 l 1
 232 313 l 1
 377 313 l 1
 386 358 l 2
 390 376 399 385 412 385 c 0
 422.889 385 428.333 379.556 428.333 368.667 c 0
 428.333 365.556 427.889 362 427 358 c 2
 399 227 l 2
 395 209 387 200 373 200 c 0xd0
 362.683 200 356.775 205.668 356.775 217.005 c 0
 356.775 219.953 357.174 223.285 358 227 c 2
 368 272 l 1
 223 272 l 1xb0
EndSplineSet
EndChar
StartChar: G
Encoding: 39 71 32767
OldEncoding: 71
Width: 600
Flags: W
HStem: -16 41<314 348> 209 41<382 523 393 589> 418 21G<583.542 595.5> 535 41<426 444>
DStem: 131 318 171 317 115 244 156 244 523 209 564 209 492 59 528 36
Fore
564 209 m 1
 528 36 l 1
 461 2 392 -16 330 -16 c 0
 190.02 -16 107.593 58.3097 107.593 178.325 c 0
 107.593 198.919 110.02 220.859 115 244 c 2
 131 318 l 2
 146 389 192 463 253 511 c 0
 307 553 369 576 435 576 c 128
 501 576 553 558 590 522 c 1
 593 536 l 2
 597 554 606 563 620 563 c 128
 630.603 563 635.47 558.411 635.47 547.931 c 0
 635.47 544.573 634.971 540.61 634 536 c 2
 615 445 l 2
 611 427 602 418 589 418 c 128
 578.083 418 573.513 423.641 573.513 435.517 c 0
 573.513 437.783 573.68 440.276 574 443 c 0
 574.356 445.591 574.531 448.157 574.531 450.693 c 0
 574.531 498.061 513.478 535 429 535 c 0
 373 535 324 518 278 481 c 0
 226 440 184 376 171 317 c 2
 156 244 l 2
 151.671 223.698 149.548 204.577 149.548 186.737 c 0
 149.548 85.0694 218.496 25 341 25 c 0
 393 25 430 33 492 59 c 1
 523 209 l 1
 384 209 l 2
 368.68 209 361.328 214.071 361.328 224.212 c 0
 361.328 225.986 361.553 227.916 362 230 c 0
 365 243 375 250 393 250 c 2
 587 250 l 2
 603.409 250 611.614 244.779 611.614 234.981 c 0
 611.614 233.434 611.409 231.773 611 230 c 0
 608 216 597 209 578 209 c 2
 564 209 l 1
EndSplineSet
EndChar
StartChar: H
Encoding: 40 72 32767
OldEncoding: 72
Width: 600
Flags: W
HStem: 0 41<79 135 176 232 381 446 487 535> 272 41<234 495> 522 41<210 236 221 343 492 548 503 625>
DStem: 237 522 278 522 135 41 234 313 237 522 225 272 135 41 176 41 495 272 589 522 446 41 487 41 548 522 589 522 504 313 487 41
Fore
495 272 m 1
 225 272 l 1
 176 41 l 1
 230 41 l 2
 245.32 41 252.672 35.9293 252.672 26.4044 c 0
 252.672 24.7382 252.447 22.9356 252 21 c 0
 249 7 239 0 221 0 c 2
 81 0 l 2
 65.2863 0 56.4315 5.3347 56.4315 16.0041 c 0
 56.4315 17.5565 56.6189 19.2218 57 21 c 0
 60 34 71 41 90 41 c 2
 135 41 l 1
 237 522 l 1
 212 522 l 2
 196.47 522 188.384 527.211 188.384 537.632 c 0
 188.384 539.29 188.588 541.079 189 543 c 0
 192 556 203 563 221 563 c 2
 341 563 l 2
 356.32 563 363.672 557.929 363.672 548.404 c 0
 363.672 546.738 363.447 544.936 363 543 c 0
 360 529 350 522 332 522 c 2
 278 522 l 1
 234 313 l 1
 504 313 l 1
 548 522 l 1
 494 522 l 2
 478.47 522 470.384 527.211 470.384 537.632 c 0
 470.384 539.29 470.588 541.079 471 543 c 0
 474 556 485 563 503 563 c 2
 623 563 l 2
 638.32 563 645.672 557.929 645.672 548.404 c 0
 645.672 546.738 645.447 544.936 645 543 c 0
 642 529 632 522 614 522 c 2
 589 522 l 1
 487 41 l 1
 533 41 l 2
 548.32 41 555.672 35.9293 555.672 26.4044 c 0
 555.672 24.7382 555.447 22.9356 555 21 c 0
 552 7 541 0 524 0 c 2
 383 0 l 2
 367.47 0 359.384 5.21073 359.384 15.6322 c 0
 359.384 17.2897 359.588 19.0789 360 21 c 0
 363 34 374 41 392 41 c 2
 446 41 l 1
 495 272 l 1
EndSplineSet
EndChar
StartChar: I
Encoding: 41 73 32767
OldEncoding: 73
Width: 600
Flags: W
HStem: 0 41<138 288 329 470> 522 41<249 389 260 581>
DStem: 390 522 431 522 288 41 329 41
Fore
431 522 m 1
 329 41 l 1
 468 41 l 2
 484.192 41 491.668 35.9165 491.668 26.3683 c 0
 491.668 24.7121 491.443 22.9216 491 21 c 0
 488 7 477 0 459 0 c 2
 140 0 l 2
 124.47 0 116.384 5.21073 116.384 15.6322 c 0
 116.384 17.2897 116.588 19.0789 117 21 c 0
 120 34 131 41 149 41 c 2
 288 41 l 1
 390 522 l 1
 251 522 l 2
 235.47 522 227.384 527.211 227.384 537.632 c 0
 227.384 539.29 227.588 541.079 228 543 c 0
 231 556 242 563 260 563 c 2
 579 563 l 2
 595.192 563 602.668 557.916 602.668 548.368 c 0
 602.668 546.712 602.443 544.922 602 543 c 0
 599 529 589 522 570 522 c 2
 431 522 l 1
EndSplineSet
EndChar
StartChar: J
Encoding: 42 74 32767
OldEncoding: 74
Width: 600
Flags: W
HStem: -16 41<259 280> 522 41<369 530 380 678>
DStem: 131 223 172 223 100 74 145 93 530 522 571 522 454 165 495 165
Fore
571 522 m 1
 495 165 l 2
 474 66 372 -16 269 -16 c 0
 205 -16 158 9 100 74 c 1
 131 223 l 2
 135 241 144 250 158 250 c 0
 168.075 250 173.345 244.595 173.345 233.785 c 0
 173.345 230.646 172.9 227.051 172 223 c 2
 145 93 l 1
 186 47 228 25 278 25 c 0
 359 25 437 87 454 165 c 2
 530 522 l 1
 371 522 l 2
 355.47 522 347.384 527.211 347.384 537.632 c 0
 347.384 539.29 347.588 541.079 348 543 c 0
 351 556 362 563 380 563 c 2
 676 563 l 2
 691.32 563 698.672 557.929 698.672 548.404 c 0
 698.672 546.738 698.447 544.936 698 543 c 0
 695 529 685 522 667 522 c 2
 571 522 l 1
EndSplineSet
EndChar
StartChar: K
Encoding: 43 75 32767
OldEncoding: 75
Width: 600
Flags: W
HStem: 0 41<68 133 174 251 497 556> 522 41<179 235 190 362 509 556 520 640>
DStem: 235 522 276 522 133 41 223 273 235 522 212 221 133 41 174 41 556 522 613 522 223 273 349 324 556 522 308 294 223 273 212 221
Fore
212 221 m 1
 174 41 l 1
 249 41 l 2
 264.32 41 271.672 35.9293 271.672 26.4044 c 0
 271.672 24.7382 271.447 22.9356 271 21 c 0
 268 7 258 0 240 0 c 2
 70 0 l 2
 54.47 0 46.3838 5.21073 46.3838 15.6322 c 0
 46.3838 17.2897 46.5883 19.0789 47 21 c 0
 50 34 61 41 79 41 c 2
 133 41 l 1
 235 522 l 1
 181 522 l 2
 165.47 522 157.384 527.211 157.384 537.632 c 0
 157.384 539.29 157.588 541.079 158 543 c 0
 161 556 172 563 190 563 c 2
 360 563 l 2
 375.32 563 382.672 557.929 382.672 548.404 c 0
 382.672 546.738 382.447 544.936 382 543 c 0
 379 529 369 522 351 522 c 2
 276 522 l 1
 223 273 l 1
 556 522 l 1
 511 522 l 2
 494.591 522 486.386 527.221 486.386 537.663 c 0
 486.386 539.312 486.591 541.091 487 543 c 0
 490 556 501 563 520 563 c 2
 638 563 l 2
 654.192 563 661.668 557.916 661.668 548.368 c 0
 661.668 546.712 661.443 544.922 661 543 c 0
 658 529 648 522 629 522 c 2
 613 522 l 1
 349 324 l 1
 437 284 464 233 498 41 c 1
 554 41 l 2
 569.32 41 576.672 35.9293 576.672 26.4044 c 0
 576.672 24.7382 576.447 22.9356 576 21 c 0
 573 7 563 0 545 0 c 2
 458 0 l 1
 428 203 397 263 308 294 c 1
 212 221 l 1
EndSplineSet
EndChar
StartChar: L
Encoding: 44 76 32767
OldEncoding: 76
Width: 600
Flags: W
HStem: 0 41<88 195 236 541> 522 41<199 297 210 445>
DStem: 297 522 338 522 195 41 236 41 543 201 584 201 509 41 541 0
Fore
338 522 m 1
 236 41 l 1
 509 41 l 1
 543 201 l 2
 547 219 555 228 569 228 c 0
 579.317 228 585.225 222.332 585.225 210.995 c 0
 585.225 208.047 584.826 204.715 584 201 c 2
 541 0 l 1
 90 0 l 2
 74.47 0 66.3838 5.21073 66.3838 15.6322 c 0
 66.3838 17.2897 66.5883 19.0789 67 21 c 0
 70 34 81 41 99 41 c 2
 195 41 l 1
 297 522 l 1
 201 522 l 2
 185.47 522 177.384 527.211 177.384 537.632 c 0
 177.384 539.29 177.588 541.079 178 543 c 0
 181 556 192 563 210 563 c 2
 443 563 l 2
 458.32 563 465.672 557.929 465.672 548.404 c 0
 465.672 546.738 465.447 544.936 465 543 c 0
 462 529 452 522 434 522 c 2
 338 522 l 1
EndSplineSet
EndChar
StartChar: M
Encoding: 45 77 32767
OldEncoding: 77
Width: 600
Flags: W
HStem: 0 41<36 81 122 198 415 500 541 577> 522 41<156 183 167 232 577 602 577 679>
DStem: 183 522 224 522 81 41 122 41 232 522 266 563 316 169 349 215 577 563 594 522 349 215 362 169 602 522 643 522 500 41 541 41
Fore
362 169 m 1
 316 169 l 1
 232 522 l 1
 224 522 l 1
 122 41 l 1
 196 41 l 2
 212.192 41 219.668 35.9165 219.668 26.3683 c 0
 219.668 24.7121 219.443 22.9216 219 21 c 0
 216 7 205 0 187 0 c 2
 38 0 l 2
 22.47 0 14.3838 5.21073 14.3838 15.6322 c 0
 14.3838 17.2897 14.5883 19.0789 15 21 c 0
 18 34 29 41 47 41 c 2
 81 41 l 1
 183 522 l 1
 158 522 l 2
 142.47 522 134.384 527.211 134.384 537.632 c 0
 134.384 539.29 134.588 541.079 135 543 c 0
 138 556 149 563 167 563 c 2
 266 563 l 1
 349 215 l 1
 577 563 l 1
 677 563 l 2
 692.32 563 699.672 557.929 699.672 548.404 c 0
 699.672 546.738 699.447 544.936 699 543 c 0
 696 529 686 522 668 522 c 2
 643 522 l 1
 541 41 l 1
 575 41 l 2
 590.32 41 597.672 35.9293 597.672 26.4044 c 0
 597.672 24.7382 597.447 22.9356 597 21 c 0
 594 7 584 0 566 0 c 2
 417 0 l 2
 401.47 0 393.384 5.21073 393.384 15.6322 c 0
 393.384 17.2897 393.588 19.0789 394 21 c 0
 397 34 408 41 426 41 c 2
 500 41 l 1
 602 522 l 1
 594 522 l 1
 362 169 l 1
EndSplineSet
EndChar
StartChar: N
Encoding: 46 78 32767
OldEncoding: 78
Width: 600
Flags: W
HStem: 0 41<67 112 153 230> 522 41<158 214 495 571 506 656>
DStem: 214 522 251 504 112 41 153 41 251 504 275 563 449 0 473 59 571 522 612 522 473 59 501 0
Fore
501 0 m 1
 449 0 l 1
 251 504 l 1
 153 41 l 1
 228 41 l 2
 243.32 41 250.672 35.9293 250.672 26.4044 c 0
 250.672 24.7382 250.447 22.9356 250 21 c 0
 247 7 236 0 219 0 c 2
 69 0 l 2
 53.47 0 45.3838 5.21073 45.3838 15.6322 c 0
 45.3838 17.2897 45.5883 19.0789 46 21 c 0
 49 34 60 41 78 41 c 2
 112 41 l 1
 214 522 l 1
 160 522 l 2
 144.47 522 136.384 527.211 136.384 537.632 c 0
 136.384 539.29 136.588 541.079 137 543 c 0
 140 556 151 563 169 563 c 2
 275 563 l 1
 473 59 l 1
 571 522 l 1
 497 522 l 2
 480.591 522 472.386 527.221 472.386 537.663 c 0
 472.386 539.312 472.591 541.091 473 543 c 0
 476 556 487 563 506 563 c 2
 655 563 l 2
 670.32 563 677.672 557.929 677.672 548.404 c 0
 677.672 546.738 677.447 544.936 677 543 c 0
 674 529 664 522 646 522 c 2
 612 522 l 1
 501 0 l 1
EndSplineSet
EndChar
StartChar: O
Encoding: 47 79 32767
OldEncoding: 79
Width: 600
Flags: W
HStem: -16 41<293 311> 535 41<405 424>
Fore
422 576 m 0
 540.427 576 616.528 484.291 616.528 354.201 c 0
 616.528 329.405 613.763 303.215 608 276 c 0
 573 115 434 -16 297 -16 c 0
 179.942 -16 102.6 76.9059 102.6 204.784 c 0
 102.6 228.755 105.317 253.954 111 280 c 128
 146 445 283 576 422 576 c 0
414 535 m 0
 299 535 181 420 152 280 c 128
 147.249 257.83 144.981 236.288 144.981 215.729 c 0
 144.981 106.462 209.052 25 305 25 c 0
 418 25 538 140 567 277 c 0
 571.832 300.192 574.147 322.606 574.147 343.891 c 0
 574.147 454.764 511.317 535 414 535 c 0
EndSplineSet
EndChar
StartChar: P
Encoding: 48 80 32767
OldEncoding: 80
Width: 600
Flags: W
HStem: 0 41<68 133 174 314> 231 41<223 367> 522 41<179 235 190 432>
DStem: 235 522 276 522 133 41 223 272 235 522 214 231 133 41 174 41
Fore
214 231 m 1
 174 41 l 1
 312 41 l 2
 328.192 41 335.668 35.9165 335.668 26.3683 c 0
 335.668 24.7121 335.443 22.9216 335 21 c 0
 332 7 321 0 303 0 c 2
 70 0 l 2
 54.47 0 46.3838 5.21073 46.3838 15.6322 c 0
 46.3838 17.2897 46.5883 19.0789 47 21 c 0
 50 34 61 41 79 41 c 2
 133 41 l 1
 235 522 l 1
 181 522 l 2
 165.47 522 157.384 527.211 157.384 537.632 c 0
 157.384 539.29 157.588 541.079 158 543 c 0
 161 556 172 563 190 563 c 2
 430 563 l 2
 523.914 563 587.215 506.483 587.215 428.916 c 0
 587.215 418.934 586.166 408.604 584 398 c 0
 564 305 459 231 345 231 c 2
 214 231 l 1
223 272 m 1
 357 272 l 2
 444 272 528 329 543 398 c 0
 544.513 405.347 545.243 412.555 545.243 419.566 c 0
 545.243 477.448 495.464 522 425 522 c 2
 276 522 l 1
 223 272 l 1
EndSplineSet
EndChar
StartChar: Q
Encoding: 49 81 32767
OldEncoding: 81
Width: 600
Flags: W
HStem: -115 41<416 431> -89 41<294 312> 535 41<406 431>
DStem: 247 -10 302 -16 143 -75 239 -56
Fore
302 -16 m 1x60
 239 -56 l 1
 270 -50 287 -48 308 -48 c 0x60
 337 -48 359 -52 387 -63 c 0
 409 -72 416 -74 429 -74 c 0
 450 -74 469 -67 504 -47 c 0
 509 -44 513 -43 517 -43 c 0
 526.268 -43 532.697 -49.3892 532.697 -58.5788 c 0
 532.697 -60.2959 532.472 -62.1108 532 -64 c 0
 528 -84 460 -115 418 -115 c 0xa0
 402 -115 391 -112 364 -102 c 0
 339 -92 324 -89 299 -89 c 0
 269 -89 200 -100 154 -112 c 0
 150 -113 147 -114 144 -114 c 0
 134.262 -114 127.659 -106.947 127.659 -97.0041 c 0
 127.659 -95.715 127.77 -94.3772 128 -93 c 0
 130 -86 135 -80 143 -75 c 2
 247 -10 l 1
 157.494 10.5288 103.052 97.8124 103.052 206.448 c 0
 103.052 230.109 105.635 254.782 111 280 c 0
 146 445 283 576 422 576 c 128
 539.513 576 617.001 482.37 617.001 353.723 c 0
 617.001 330.2 614.41 305.506 609 280 c 0
 574 116 440 -12 302 -16 c 1x60
414 535 m 0
 299 535 181 420 152 280 c 128
 147.249 257.83 144.981 236.288 144.981 215.729 c 0
 144.981 106.462 209.052 25 305 25 c 0
 418 25 538 140 567 277 c 0
 571.832 300.192 574.147 322.606 574.147 343.891 c 0
 574.147 454.764 511.317 535 414 535 c 0
EndSplineSet
EndChar
StartChar: R
Encoding: 50 82 32767
OldEncoding: 82
Width: 600
Flags: W
HStem: 0 41<68 133 174 251 539 573> 251 41<227 350> 522 41<179 235 190 440>
DStem: 235 522 276 522 133 41 227 292 235 522 218 251 133 41 174 41
Fore
218 251 m 1
 174 41 l 1
 249 41 l 2
 264.32 41 271.672 35.9293 271.672 26.4044 c 0
 271.672 24.7382 271.447 22.9356 271 21 c 0
 268 7 258 0 240 0 c 2
 70 0 l 2
 54.47 0 46.3838 5.21073 46.3838 15.6322 c 0
 46.3838 17.2897 46.5883 19.0789 47 21 c 0
 50 34 61 41 79 41 c 2
 133 41 l 1
 235 522 l 1
 181 522 l 2
 165.47 522 157.384 527.211 157.384 537.632 c 0
 157.384 539.29 157.588 541.079 158 543 c 0
 161 556 172 563 190 563 c 2
 438 563 l 2
 524.843 563 587.639 505.289 587.639 432.925 c 0
 587.639 424.461 586.78 415.796 585 407 c 0
 571 342 514 294 415 262 c 1
 469 219 489 182 540 41 c 1
 571 41 l 2
 586.32 41 593.672 35.9293 593.672 26.4044 c 0
 593.672 24.7382 593.447 22.9356 593 21 c 0
 590 7 580 0 562 0 c 2
 505 0 l 1
 451 162 419 216 350 251 c 1
 218 251 l 1
227 292 m 1
 341 292 l 2
 439 292 530 344 544 408 c 0
 545.113 413.566 545.65 419.08 545.65 424.504 c 0
 545.65 477.554 494.321 522 429 522 c 2
 276 522 l 1
 227 292 l 1
EndSplineSet
EndChar
StartChar: S
Encoding: 51 83 32767
OldEncoding: 83
Width: 600
Flags: W
HStem: -16 41<287 321> -16 182<148 299> 406 170<421 552> 535 41<399 433>
Fore
555 517 m 1xa0
 559 536 l 2
 563 554 572 563 586 563 c 0
 596.075 563 601.345 557.595 601.345 546.785 c 0
 601.345 543.646 600.9 540.051 600 536 c 2
 578 433 l 2
 574 415 565 406 552 406 c 128xa0
 540.839 406 535.574 411.897 535.574 423.691 c 0
 535.574 425.634 535.717 427.737 536 430 c 0
 536.69 434.597 537.027 439.106 537.027 443.513 c 0
 537.027 496.631 488.024 535 416 535 c 0
 334 535 262 486 248 420 c 0
 246.292 411.889 245.473 404.404 245.473 397.488 c 0
 245.473 339.597 302.858 321.506 377 309 c 0
 451 296 477 288 503 269 c 0
 529.348 250.402 543.685 220.393 543.685 184.094 c 0
 543.685 173.551 542.476 162.478 540 151 c 0
 519 54 419 -16 299 -16 c 0x90
 230 -16 176 9 145 56 c 1
 139 27 l 2
 135 9 126 0 112 0 c 0
 101.925 0 96.6555 5.40513 96.6555 16.2154 c 0
 96.6555 19.3545 97.0999 22.9494 98 27 c 2
 122 139 l 2
 125 157 134 166 148 166 c 0x40
 158.562 166 163.844 160.719 163.844 150.156 c 0
 163.844 147.719 163.562 145 163 142 c 0
 162.163 136.976 161.754 132.038 161.754 127.204 c 0
 161.754 68.5307 221.927 25 306 25 c 0
 399 25 481 79 497 153 c 0
 498.459 160.295 499.18 167.46 499.18 174.386 c 0
 499.18 200.688 488.789 223.543 469 237 c 0
 449 253 429 259 361 271 c 0
 293 283 260 295 234 317 c 0
 212.222 334.889 201.333 362.457 201.333 393.587 c 0
 201.333 402.481 202.222 411.667 204 421 c 0
 223 509 316 576 421 576 c 0
 480 576 522 558 555 517 c 1xa0
EndSplineSet
EndChar
StartChar: T
Encoding: 52 84 32767
OldEncoding: 84
Width: 600
Flags: W
HStem: 0 41<173 289 330 436> 422 21G<176.719 189 592.937 605> 522 41<192 391 192 598>
DStem: 192 563 224 522 167 449 208 449 391 522 432 522 289 41 330 41 598 522 648 563 582 449 623 449
Fore
330 41 m 1
 435 41 l 2
 450.32 41 457.672 35.9293 457.672 26.4044 c 0
 457.672 24.7382 457.447 22.9356 457 21 c 0
 454 7 444 0 426 0 c 2
 175 0 l 2
 159.47 0 151.384 5.21073 151.384 15.6322 c 0
 151.384 17.2897 151.588 19.0789 152 21 c 0
 155 34 166 41 184 41 c 2
 289 41 l 1
 391 522 l 1
 224 522 l 1
 208 449 l 2
 205 431 196 422 182 422 c 0
 171.438 422 166.156 427.941 166.156 439.824 c 0
 166.156 442.566 166.438 445.625 167 449 c 2
 192 563 l 1
 648 563 l 1
 623 449 l 2
 619 430 612 422 598 422 c 0
 587.873 422 581.307 429.834 581.307 441.896 c 0
 581.307 444.127 581.532 446.503 582 449 c 2
 598 522 l 1
 432 522 l 1
 330 41 l 1
EndSplineSet
EndChar
StartChar: U
Encoding: 53 85 32767
OldEncoding: 85
Width: 600
Flags: W
HStem: -16 41<294 312> 522 41<175 212 187 338 493 568 504 655>
DStem: 212 522 253 522 140 185 181 185 569 522 610 522 497 185 538 185
Fore
610 522 m 1
 538 185 l 2
 514 71 409 -16 297 -16 c 0
 199.266 -16 135.194 49.081 135.194 140.423 c 0
 135.194 154.691 136.758 169.599 140 185 c 2
 212 522 l 1
 178 522 l 2
 162.47 522 154.384 527.211 154.384 537.632 c 0
 154.384 539.29 154.588 541.079 155 543 c 128
 158 557 169 563 187 563 c 2
 336 563 l 2
 351.32 563 358.672 557.929 358.672 548.404 c 0
 358.672 546.738 358.447 544.936 358 543 c 0
 355 529 345 522 327 522 c 2
 253 522 l 1
 181 185 l 2
 178.437 172.862 177.203 161.087 177.203 149.799 c 0
 177.203 77.3913 228.004 25 305 25 c 0
 393 25 478 95 497 185 c 2
 569 522 l 1
 495 522 l 2
 479.47 522 471.384 527.211 471.384 537.632 c 0
 471.384 539.29 471.588 541.079 472 543 c 128
 475 557 485 563 504 563 c 2
 653 563 l 2
 668.943 563 675.732 558.776 675.732 549.145 c 0
 675.732 547.298 675.483 545.253 675 543 c 128
 672 529 662 522 644 522 c 2
 610 522 l 1
EndSplineSet
EndChar
StartChar: V
Encoding: 54 86 32767
OldEncoding: 86
Width: 600
Flags: W
HStem: 0 21G<267 324> 522 41<145 178 156 309 522 603 534 686>
DStem: 178 522 221 522 267 0 305 41 603 522 644 522 308 41 324 0
Fore
267 0 m 1
 178 522 l 1
 147 522 l 2
 131.47 522 123.384 527.211 123.384 537.632 c 0
 123.384 539.29 123.588 541.079 124 543 c 128
 127 557 138 563 156 563 c 2
 307 563 l 2
 322.32 563 329.672 558.654 329.672 548.728 c 0
 329.672 546.992 329.447 545.085 329 543 c 128
 326 529 316 522 298 522 c 2
 221 522 l 1
 305 41 l 1
 308 41 l 1
 603 522 l 1
 525 522 l 2
 509.47 522 501.384 527.211 501.384 537.632 c 0
 501.384 539.29 501.588 541.079 502 543 c 0
 505 556 515 563 534 563 c 2
 684 563 l 2
 699.32 563 706.672 558.654 706.672 548.728 c 0
 706.672 546.992 706.447 545.085 706 543 c 0
 703 529 693 522 675 522 c 2
 644 522 l 1
 324 0 l 1
 267 0 l 1
EndSplineSet
EndChar
StartChar: W
Encoding: 55 87 32767
OldEncoding: 87
Width: 600
Flags: W
HStem: 0 21G<122 185 412 476> 522 41<156 173 167 319 512 610 523 675>
DStem: 173 522 214 522 122 0 169 46 364 438 385 400 169 46 185 0 385 400 426 438 412 0 452 46 610 522 649 522 452 46 476 0
Fore
122 0 m 1
 173 522 l 1
 158 522 l 2
 142.47 522 134.384 527.211 134.384 537.632 c 0
 134.384 539.29 134.588 541.079 135 543 c 0
 138 556 149 563 167 563 c 2
 316 563 l 2
 332.192 563 339.668 557.916 339.668 548.368 c 0
 339.668 546.712 339.443 544.922 339 543 c 0
 336 529 326 522 307 522 c 2
 214 522 l 1
 169 46 l 1
 364 438 l 1
 426 438 l 1
 452 46 l 1
 610 522 l 1
 514 522 l 2
 498.47 522 490.384 527.211 490.384 537.632 c 0
 490.384 539.29 490.588 541.079 491 543 c 0
 494 556 505 563 523 563 c 2
 673 563 l 2
 688.32 563 695.672 557.929 695.672 548.404 c 0
 695.672 546.738 695.447 544.936 695 543 c 0
 692 529 682 522 664 522 c 2
 649 522 l 1
 476 0 l 1
 412 0 l 1
 385 400 l 1
 185 0 l 1
 122 0 l 1
EndSplineSet
EndChar
StartChar: X
Encoding: 56 88 32767
OldEncoding: 88
Width: 600
Flags: W
HStem: 0 41<65 94 143 208 399 472 524 544> 522 41<187 204 198 310 517 564 528 641>
DStem: 204 522 256 522 333 288 368 321 333 288 352 255 93 41 143 41 352 255 386 288 472 41 525 41 564 522 615 522 368 321 386 288
Fore
386 288 m 1
 525 41 l 1
 542 41 l 2
 557.32 41 564.672 35.9293 564.672 26.4044 c 0
 564.672 24.7382 564.447 22.9356 564 21 c 0
 561 7 551 0 533 0 c 2
 401 0 l 2
 385.47 0 377.384 5.21073 377.384 15.6322 c 0
 377.384 17.2897 377.588 19.0789 378 21 c 0
 381 34 392 41 410 41 c 2
 472 41 l 1
 352 255 l 1
 143 41 l 1
 207 41 l 2
 222.32 41 229.672 35.9293 229.672 26.4044 c 0
 229.672 24.7382 229.447 22.9356 229 21 c 0
 226 7 216 0 198 0 c 2
 67 0 l 2
 51.47 0 43.3838 5.21073 43.3838 15.6322 c 0
 43.3838 17.2897 43.5883 19.0789 44 21 c 0
 47 34 58 41 76 41 c 2
 93 41 l 1
 333 288 l 1
 204 522 l 1
 189 522 l 2
 173.47 522 165.384 527.211 165.384 537.632 c 0
 165.384 539.29 165.588 541.079 166 543 c 0
 169 556 180 563 198 563 c 2
 308 563 l 2
 323.32 563 330.672 557.929 330.672 548.404 c 0
 330.672 546.738 330.447 544.936 330 543 c 0
 327 529 317 522 299 522 c 2
 256 522 l 1
 368 321 l 1
 564 522 l 1
 519 522 l 2
 503.47 522 495.384 527.211 495.384 537.632 c 0
 495.384 539.29 495.588 541.079 496 543 c 0
 499 556 510 563 528 563 c 2
 639 563 l 2
 654.32 563 661.672 558.654 661.672 548.728 c 0
 661.672 546.992 661.447 545.085 661 543 c 0
 658 529 648 522 630 522 c 2
 615 522 l 1
 386 288 l 1
EndSplineSet
EndChar
StartChar: Y
Encoding: 57 89 32767
OldEncoding: 89
Width: 600
Flags: W
HStem: 0 41<174 290 331 438> 522 41<187 213 198 311 521 563 532 642>
DStem: 213 522 262 522 335 254 366 295 335 254 376 254 290 41 331 41 563 522 609 522 366 295 376 254
Fore
376 254 m 1
 331 41 l 1
 436 41 l 2
 451.32 41 458.672 35.9293 458.672 26.4044 c 0
 458.672 24.7382 458.447 22.9356 458 21 c 0
 455 7 445 0 427 0 c 2
 176 0 l 2
 160.47 0 152.384 5.21073 152.384 15.6322 c 0
 152.384 17.2897 152.588 19.0789 153 21 c 0
 156 34 167 41 185 41 c 2
 290 41 l 1
 335 254 l 1
 213 522 l 1
 189 522 l 2
 173.47 522 165.384 527.211 165.384 537.632 c 0
 165.384 539.29 165.588 541.079 166 543 c 0
 169 556 180 563 198 563 c 2
 309 563 l 2
 324.32 563 331.672 557.929 331.672 548.404 c 0
 331.672 546.738 331.447 544.936 331 543 c 0
 328 529 318 522 300 522 c 2
 262 522 l 1
 366 295 l 1
 563 522 l 1
 523 522 l 2
 506.591 522 498.386 527.221 498.386 537.663 c 0
 498.386 539.312 498.591 541.091 499 543 c 0
 502 556 513 563 532 563 c 2
 642 563 l 2
 656.652 563 664.619 557.057 664.619 547.732 c 0
 664.619 546.238 664.414 544.657 664 543 c 0
 662 530 649 522 633 522 c 2
 609 522 l 1
 376 254 l 1
EndSplineSet
MinimumDistance: x12,32 
EndChar
StartChar: Z
Encoding: 58 90 32767
OldEncoding: 90
Width: 600
Flags: W
HStem: 0 41<151 497> 522 41<241 542>
DStem: 241 563 273 522 207 404 248 404 495 182 536 182 465 41 497 0 541 519 577 505 116 59 152 45
Fore
497 0 m 1
 103 0 l 1
 116 59 l 1
 541 519 l 1
 542 522 l 1
 273 522 l 1
 248 404 l 2
 244 385 235 376 222 376 c 0
 211.111 376 205.667 381.444 205.667 392.804 c 0
 205.667 396.049 206.111 399.778 207 404 c 2
 241 563 l 1
 590 563 l 1
 577 505 l 1
 152 45 l 1
 151 41 l 1
 465 41 l 1
 495 182 l 2
 499 200 506 209 520 209 c 128
 531.142 209 537.216 203.3 537.216 191.9 c 0
 537.216 188.975 536.817 185.675 536 182 c 2
 497 0 l 1
EndSplineSet
EndChar
StartChar: bracketleft
Encoding: 59 91 32767
OldEncoding: 91
Width: 600
Flags: W
HStem: -124 41<303 403> 563 41<408 548>
DStem: 408 604 441 563 254 -124 303 -83
Fore
441 563 m 1
 303 -83 l 1
 400 -83 l 2
 415.53 -83 423.616 -88.2107 423.616 -97.99 c 0
 423.616 -99.5453 423.412 -101.216 423 -103 c 0
 420 -117 410 -124 392 -124 c 2
 254 -124 l 1
 408 604 l 1
 546 604 l 2
 561.53 604 569.616 598.789 569.616 589.01 c 0
 569.616 587.455 569.412 585.784 569 584 c 0
 566 570 556 563 538 563 c 2
 441 563 l 1
EndSplineSet
EndChar
StartChar: backslash
Encoding: 60 92 32767
OldEncoding: 92
Width: 600
Flags: W
DStem: 253 633 293 650 432 -63 472 -46
Fore
293 650 m 2
 472 -46 l 1
 473.902 -50.4378 474.598 -54.0718 474.598 -57.1567 c 0
 474.598 -58.9378 474.366 -60.5359 474 -62 c 0
 472 -72 460 -81 450 -81 c 128
 440 -81 436 -77 432 -63 c 2
 253 633 l 2
 251.098 638.072 250.402 641.536 250.402 644.412 c 0
 250.402 646.072 250.634 647.536 251 649 c 0
 253 659 265 668 276 668 c 0
 285 668 289 664 293 650 c 2
EndSplineSet
EndChar
StartChar: bracketright
Encoding: 61 93 32767
OldEncoding: 93
Width: 600
Flags: W
HStem: -124 41<154 261> 563 41<300 399>
DStem: 399 563 448 604 261 -83 294 -124
Fore
261 -83 m 1
 399 563 l 1
 302 563 l 2
 286.47 563 278.384 568.211 278.384 577.99 c 0
 278.384 579.545 278.588 581.216 279 583 c 0
 282 597 292 604 310 604 c 2
 448 604 l 1
 294 -124 l 1
 156 -124 l 2
 140.47 -124 132.384 -118.789 132.384 -109.01 c 0
 132.384 -107.455 132.588 -105.784 133 -104 c 0
 136 -90 146 -83 164 -83 c 2
 261 -83 l 1
EndSplineSet
EndChar
StartChar: asciicircum
Encoding: 62 94 32767
OldEncoding: 94
Width: 600
Flags: W
DStem: 417 552 431 615 525 367 561 392 431 615 417 552 205 392 231 367
Fore
431 615 m 1
 561 392 l 2
 564.708 386.808 566.766 382.167 566.766 378.075 c 0
 566.766 376.65 566.517 375.292 566 374 c 0
 564 363 553 354 542 354 c 0
 534 354 530 357 525 367 c 1
 417 552 l 1
 231 367 l 1
 222 357 216 354 208 354 c 0
 198.262 354 191.659 361.053 191.659 370.302 c 0
 191.659 371.501 191.77 372.738 192 374 c 0
 194 380 197 384 205 392 c 2
 431 615 l 1
EndSplineSet
EndChar
StartChar: underscore
Encoding: 63 95 32767
OldEncoding: 95
Width: 600
Flags: W
HStem: -125 50<-29 585>
Fore
596 -75 m 1
 585 -125 l 1
 -39 -125 l 1
 -28 -75 l 1
 596 -75 l 1
EndSplineSet
EndChar
StartChar: grave
Encoding: 64 96 32767
OldEncoding: 96
Width: 600
Flags: W
DStem: 294 599 328 630 387 499 421 530
Fore
328 630 m 2
 421 530 l 1
 426 522 l 2
 428.667 518.667 429.556 517.556 429.556 515.407 c 0
 429.556 514.333 429.333 513 429 511 c 0
 426 499 415 490 403 490 c 0
 398 490 393 493 387 499 c 2
 294 599 l 2
 288.698 605.059 286.265 608.823 286.265 613.769 c 0
 286.265 615.353 286.515 617.059 287 619 c 0
 289 630 300 639 311 639 c 0
 317 639 321 636 328 630 c 2
EndSplineSet
EndChar
StartChar: a
Encoding: 65 97 32767
OldEncoding: 97
Width: 600
Flags: W
HStem: -16 41<218 238> 0 41<469 525> 217 41<316 366> 390 41<377 398>
DStem: 462 202 525 308 443 112 469 41 484 308 525 308 469 237 469 41
Fore
419 0 m 1x70
 433 67 l 1
 360 10 295 -16 225 -16 c 0xb0
 143.209 -16 93.1309 24.2202 93.1309 85.6139 c 0
 93.1309 94.0279 94.0715 102.84 96 112 c 0
 114 199 213 258 338 258 c 0
 384 258 414 253 469 237 c 1
 484 308 l 2
 485.147 313.109 485.707 318.044 485.707 322.786 c 0
 485.707 363.523 444.388 390 379 390 c 0
 343 390 314 384 231 360 c 0
 226 359 222 358 220 358 c 0
 211.156 358 204.658 365.04 204.658 374.277 c 0
 204.658 375.484 204.769 376.729 205 378 c 0
 207 388 215 395 227 399 c 0
 286 418 354 431 391 431 c 0
 473.508 431 527.681 390.071 527.681 331.257 c 0
 527.681 323.778 526.805 316.01 525 308 c 2
 469 41 l 1
 523 41 l 2
 538.32 41 545.672 35.9293 545.672 26.4044 c 0
 545.672 24.7382 545.447 22.9356 545 21 c 0
 542 7 532 0 514 0 c 2
 419 0 l 1x70
443 112 m 1
 462 202 l 1
 428 211 381 217 337 217 c 0
 231 217 150 174 137 111 c 0
 135.715 104.923 135.085 99.0924 135.085 93.5329 c 0
 135.085 51.5179 171.063 25 232 25 c 0
 303 25 362 49 443 112 c 1
EndSplineSet
EndChar
StartChar: b
Encoding: 66 98 32767
OldEncoding: 98
Width: 600
Flags: W
HStem: -16 41<312 329> 0 41<47 112> 390 41<403 418> 563 41<167 223>
DStem: 223 563 272 604 112 41 214 328 223 563 163 88 112 41 144 0
Fore
272 604 m 1x70
 214 328 l 1
 279 399 342 431 416 431 c 0
 521.564 431 591.19 358.375 591.19 258.474 c 0
 591.19 242.92 589.503 226.705 586 210 c 0
 559 85 441 -16 321 -16 c 0xb0
 248 -16 195 18 163 88 c 1
 144 0 l 1
 49 0 l 2
 33.47 0 25.3838 5.21073 25.3838 15.6322 c 0
 25.3838 17.2897 25.5883 19.0789 26 21 c 0
 29 34 40 41 58 41 c 2
 112 41 l 1
 223 563 l 1
 169 563 l 2
 153.47 563 145.384 568.211 145.384 578.632 c 0
 145.384 580.29 145.588 582.079 146 584 c 0
 149 597 159 604 177 604 c 2
 272 604 l 1x70
405 390 m 0
 306 390 210 309 188 208 c 128
 185.212 194.589 183.869 181.514 183.869 168.92 c 0
 183.869 86.6699 241.145 25 327 25 c 0
 424 25 523 107 544 205 c 0
 547.026 219.305 548.482 233.174 548.482 246.458 c 0
 548.482 329.75 491.246 390 405 390 c 0
EndSplineSet
EndChar
StartChar: c
Encoding: 67 99 32767
OldEncoding: 99
Width: 600
Flags: W
HStem: -16 41<296 330> 390 41<392 410>
Fore
550 376 m 1
 553 389 l 2
 557 408 566 417 580 417 c 0
 590.075 417 595.345 411.595 595.345 400.319 c 0
 595.345 397.045 594.9 393.276 594 389 c 2
 574 298 l 2
 571 280 562 271 549 271 c 128
 537.839 271 532.574 276.16 532.574 288.379 c 0
 532.574 290.391 532.717 292.596 533 295 c 0
 533.361 297.737 533.539 300.444 533.539 303.117 c 0
 533.539 352.225 473.663 390 394 390 c 0
 284 390 192 315 169 205 c 0
 165.753 190.177 164.18 175.951 164.18 162.45 c 0
 164.18 80.3185 222.388 25 316 25 c 0
 389 25 456 49 519 97 c 0
 528 105 532 107 539 107 c 0
 547.844 107 554.342 99.9599 554.342 91.4145 c 0
 554.342 90.2979 554.231 89.1556 554 88 c 0
 551 76 532 58 500 39 c 0
 442 4 372 -16 306 -16 c 0
 192.889 -16 121.528 52.589 121.528 153.718 c 0
 121.528 169.713 123.313 186.521 127 204 c 0
 155 336 272 431 406 431 c 0
 467 431 517 412 550 376 c 1
EndSplineSet
EndChar
StartChar: d
Encoding: 68 100 32767
OldEncoding: 100
Width: 600
Flags: W
HStem: -16 41<274 294> 0 41<511 567> 390 41<356 373> 563 41<525 581>
DStem: 480 89 630 604 461 0 511 41 581 563 630 604 531 327 511 41
Fore
630 604 m 1xb0
 511 41 l 1
 565 41 l 2
 580.32 41 587.672 35.9293 587.672 26.4044 c 0
 587.672 24.7382 587.447 22.9356 587 21 c 0
 584 7 574 0 556 0 c 2
 461 0 l 1x70
 480 89 l 1
 418 19 351 -16 276 -16 c 0
 172.771 -16 101.9 60.0028 101.9 160.439 c 0
 101.9 175.784 103.554 191.699 107 208 c 128
 133 331 252 431 371 431 c 0
 446 431 497 398 531 327 c 1
 581 563 l 1
 527 563 l 2
 511.47 563 503.384 568.211 503.384 578.632 c 0
 503.384 580.29 503.588 582.079 504 584 c 0
 507 597 517 604 535 604 c 2
 630 604 l 1xb0
365 390 m 0
 266 390 170 309 148 208 c 0
 145.214 194.468 143.871 181.306 143.871 168.654 c 0
 143.871 85.9341 201.266 25 288 25 c 0xb0
 386 25 484 106 505 206 c 0
 508.023 220.292 509.479 234.131 509.479 247.371 c 0
 509.479 330.477 452.12 390 365 390 c 0
EndSplineSet
EndChar
StartChar: e
Encoding: 69 101 32767
OldEncoding: 101
Width: 600
Flags: W
HStem: -16 41<294 313> 199 41<155 562> 390 41<372 392>
Fore
562 199 m 1
 146 199 l 1
 145.557 193.18 145.337 187.471 145.337 181.878 c 0
 145.337 86.5632 208.986 25 311 25 c 0
 373 25 451 47 498 79 c 0
 506 84 510 86 515 86 c 0
 523.844 86 530.342 78.9599 530.342 69.7226 c 0
 530.342 68.5157 530.231 67.2712 530 66 c 0
 523 31 393 -16 302 -16 c 0
 184.204 -16 103.715 62.4207 103.715 168.772 c 0
 103.715 184.305 105.432 200.433 109 217 c 0
 135 338 255 431 383 431 c 0
 479 431 548 380 566 297 c 0
 568.983 282.937 570.513 271.417 570.513 259.266 c 0
 570.513 242.903 567.738 225.397 562 199 c 1
155 240 m 1
 529 240 l 1
 529.071 242.144 529.106 244.27 529.106 246.378 c 0
 529.106 333.747 468.715 390 374 390 c 128
 277 390 193 332 155 240 c 1
EndSplineSet
EndChar
StartChar: f
Encoding: 70 102 32767
OldEncoding: 102
Width: 600
Flags: W
HStem: 0 41<130 239 280 460> 376 41<220 310 360 551> 563 41<491 525>
DStem: 310 376 351 376 239 41 280 41 332 478 373 478 319 417 360 417
Fore
351 376 m 1
 280 41 l 1
 458 41 l 2
 473.32 41 480.672 35.9293 480.672 26.4044 c 0
 480.672 24.7382 480.447 22.9356 480 21 c 0
 477 7 466 0 449 0 c 2
 132 0 l 2
 116.47 0 108.384 5.21073 108.384 15.6322 c 0
 108.384 17.2897 108.588 19.0789 109 21 c 0
 112 34 123 41 141 41 c 2
 239 41 l 1
 310 376 l 1
 222 376 l 2
 206.47 376 198.384 381.211 198.384 391.632 c 0
 198.384 393.29 198.588 395.079 199 397 c 0
 202 410 213 417 231 417 c 2
 319 417 l 1
 332 478 l 2
 347 551 422 604 512 604 c 0
 550 604 618 597 649 591 c 0
 658.191 588.493 662.495 583.194 662.495 575.685 c 0
 662.495 574.207 662.329 572.644 662 571 c 0
 660 559 649 551 637 551 c 0
 635 551 635 551 588 557 c 0
 562 560 524 563 502 563 c 0
 436 563 383 528 373 478 c 2
 360 417 l 1
 549 417 l 2
 564.32 417 571.672 411.929 571.672 402.404 c 0
 571.672 400.738 571.447 398.936 571 397 c 0
 568 383 558 376 540 376 c 2
 351 376 l 1
EndSplineSet
EndChar
StartChar: g
Encoding: 71 103 32767
OldEncoding: 103
Width: 600
Flags: W
HStem: -186 41<160 290> 10 41<264 289> 376 41<529 626> 390 41<344 363>
DStem: 463 107 561 376 435 -22 475 -28 529 417 561 376 511 334 475 -28
Fore
511 334 m 1xd0
 529 417 l 1
 624 417 l 2
 639.32 417 646.672 411.929 646.672 402.404 c 0
 646.672 400.738 646.447 398.936 646 397 c 0
 643 383 633 376 615 376 c 2
 561 376 l 1xe0
 475 -28 l 2
 466 -69 447 -100 410 -132 c 0
 367 -169 326 -186 276 -186 c 2
 162 -186 l 2
 146.68 -186 139.328 -180.929 139.328 -170.788 c 0
 139.328 -169.014 139.553 -167.084 140 -165 c 0
 143 -152 153 -145 171 -145 c 2
 287 -145 l 2
 355 -145 421 -90 435 -22 c 2
 463 107 l 1
 404 41 343 10 271 10 c 0
 173.003 10 105.089 81.4488 105.089 176.081 c 0
 105.089 190.568 106.681 205.599 110 221 c 128
 135 337 248 431 361 431 c 0
 434 431 480 401 511 334 c 1xd0
355 390 m 0xd0
 261 390 171 315 151 221 c 0
 148.37 208.507 147.106 196.359 147.106 184.683 c 0
 147.106 107.571 202.23 51 283 51 c 128
 376 51 467 126 487 219 c 0
 489.689 232.041 490.986 244.667 490.986 256.753 c 0
 490.986 334.561 437.227 390 355 390 c 0xd0
EndSplineSet
EndChar
StartChar: h
Encoding: 72 104 32767
OldEncoding: 104
Width: 600
Flags: W
HStem: 0 41<76 133 174 221 390 446 487 534> 390 41<389 413> 563 41<188 243>
DStem: 244 563 293 604 133 41 239 347 244 563 228 296 133 41 174 41 498 288 540 291 446 41 487 41
Fore
293 604 m 1
 239 347 l 1
 303 408 350 431 411 431 c 0
 492.397 431 543.152 385.804 543.152 320.218 c 0
 543.152 310.869 542.121 301.106 540 291 c 2
 487 41 l 1
 532 41 l 2
 548.192 41 555.668 35.9165 555.668 26.3683 c 0
 555.668 24.7121 555.443 22.9216 555 21 c 0
 552 7 542 0 523 0 c 2
 392 0 l 2
 376.47 0 368.384 5.21073 368.384 15.6322 c 0
 368.384 17.2897 368.588 19.0789 369 21 c 0
 372 34 383 41 401 41 c 2
 446 41 l 1
 498 288 l 2
 499.66 295.112 500.476 302 500.476 308.636 c 0
 500.476 329.991 492.021 348.742 476 364 c 0
 457 383 437 390 397 390 c 0
 341 390 309 373 242 309 c 2
 228 296 l 1
 174 41 l 1
 219 41 l 2
 235.192 41 242.668 35.9165 242.668 26.3683 c 0
 242.668 24.7121 242.443 22.9216 242 21 c 0
 239 7 228 0 210 0 c 2
 78 0 l 2
 63.1712 0 54.4294 5.32612 54.4294 15.9784 c 0
 54.4294 17.5381 54.6168 19.2119 55 21 c 0
 58 34 69 41 87 41 c 2
 133 41 l 1
 244 563 l 1
 190 563 l 2
 174.47 563 166.384 568.211 166.384 578.632 c 0
 166.384 580.29 166.588 582.079 167 584 c 0
 170 597 180 604 198 604 c 2
 293 604 l 1
EndSplineSet
EndChar
StartChar: i
Encoding: 73 105 32767
OldEncoding: 105
Width: 600
Flags: W
HStem: 0 41<117 288 329 491> 376 41<239 359>
DStem: 359 376 409 417 288 41 329 41 392 624 451 624 370 520 429 520
Fore
409 417 m 1
 329 41 l 1
 489 41 l 2
 505.192 41 512.668 35.9165 512.668 26.3683 c 0
 512.668 24.7121 512.443 22.9216 512 21 c 0
 509 7 498 0 480 0 c 2
 119 0 l 2
 103.47 0 95.3838 5.21073 95.3838 15.6322 c 0
 95.3838 17.2897 95.5883 19.0789 96 21 c 0
 99 34 110 41 128 41 c 2
 288 41 l 1
 359 376 l 1
 241 376 l 2
 225.47 376 217.384 381.211 217.384 391.632 c 0
 217.384 393.29 217.588 395.079 218 397 c 0
 221 410 232 417 250 417 c 2
 409 417 l 1
451 624 m 1
 429 520 l 1
 370 520 l 1
 392 624 l 1
 451 624 l 1
EndSplineSet
EndChar
StartChar: j
Encoding: 74 106 32767
OldEncoding: 106
Width: 600
Flags: W
HStem: -186 41<132 273> 376 41<254 496>
DStem: 488 624 547 624 466 520 525 520 497 376 547 417 411 -28 452 -28
Fore
497 376 m 1
 256 376 l 2
 240.47 376 232.384 381.211 232.384 391.632 c 0
 232.384 393.29 232.588 395.079 233 397 c 0
 236 410 247 417 265 417 c 2
 547 417 l 1
 452 -28 l 2
 432 -121 354 -186 263 -186 c 2
 134 -186 l 2
 118.68 -186 111.328 -180.929 111.328 -170.788 c 0
 111.328 -169.014 111.553 -167.084 112 -165 c 0
 115 -152 125 -145 143 -145 c 2
 271 -145 l 2
 337 -145 397 -96 411 -28 c 2
 497 376 l 1
547 624 m 1
 525 520 l 1
 466 520 l 1
 488 624 l 1
 547 624 l 1
EndSplineSet
EndChar
StartChar: k
Encoding: 75 107 32767
OldEncoding: 107
Width: 600
Flags: W
HStem: 0 41<88 153 381 420 477 525> 376 41<414 438 425 557> 563 41<208 264>
DStem: 264 563 313 604 153 41 234 229 264 563 223 180 153 41 185 0 278 219 314 245 420 41 478 41 438 376 499 376 234 229 314 245
Fore
223 180 m 1
 185 0 l 1
 90 0 l 2
 74.47 0 66.3838 5.21073 66.3838 15.6322 c 0
 66.3838 17.2897 66.5883 19.0789 67 21 c 0
 70 34 81 41 99 41 c 2
 153 41 l 1
 264 563 l 1
 210 563 l 2
 194.47 563 186.384 568.211 186.384 578.632 c 0
 186.384 580.29 186.588 582.079 187 584 c 0
 190 597 200 604 218 604 c 2
 313 604 l 1
 234 229 l 1
 438 376 l 1
 416 376 l 2
 400.47 376 392.384 381.211 392.384 391.632 c 0
 392.384 393.29 392.588 395.079 393 397 c 0
 396 410 407 417 425 417 c 2
 555 417 l 2
 570.32 417 577.672 411.929 577.672 402.404 c 0
 577.672 400.738 577.447 398.936 577 397 c 0
 574 383 564 376 546 376 c 2
 499 376 l 1
 314 245 l 1
 478 41 l 1
 523 41 l 2
 538.32 41 545.672 35.9293 545.672 26.4044 c 0
 545.672 24.7382 545.447 22.9356 545 21 c 0
 542 7 532 0 514 0 c 2
 383 0 l 2
 367.47 0 359.384 5.21073 359.384 15.6322 c 0
 359.384 17.2897 359.588 19.0789 360 21 c 0
 363 34 374 41 392 41 c 2
 420 41 l 1
 278 219 l 1
 223 180 l 1
EndSplineSet
EndChar
StartChar: l
Encoding: 76 108 32767
OldEncoding: 108
Width: 600
Flags: W
HStem: 0 41<117 288 329 491> 563 41<280 399>
DStem: 399 563 448 604 288 41 329 41
Fore
448 604 m 1
 329 41 l 1
 489 41 l 2
 505.192 41 512.668 35.9165 512.668 26.3683 c 0
 512.668 24.7121 512.443 22.9216 512 21 c 0
 509 7 498 0 480 0 c 2
 119 0 l 2
 103.47 0 95.3838 5.21073 95.3838 15.6322 c 0
 95.3838 17.2897 95.5883 19.0789 96 21 c 0
 99 34 110 41 128 41 c 2
 288 41 l 1
 399 563 l 1
 282 563 l 2
 266.47 563 258.384 568.211 258.384 578.632 c 0
 258.384 580.29 258.588 582.079 259 584 c 0
 262 597 272 604 290 604 c 2
 448 604 l 1
EndSplineSet
EndChar
StartChar: m
Encoding: 77 109 32767
OldEncoding: 109
Width: 600
Flags: W
HStem: 0 41<36 156 331 367 541 577> 376 41<116 152> 390 41<298 309 507 519>
DStem: 152 376 177 308 81 41 121 41 349 316 387 308 282 0 331 41 560 319 601 323 492 0 541 41
Fore
201 417 m 1xc0
 190 365 l 1
 234 413 267 431 309 431 c 0
 352 431 379 408 391 360 c 1
 440 410 478 431 519 431 c 0
 569.486 431 603.304 393.873 603.304 345.341 c 0
 603.304 338.118 602.555 330.643 601 323 c 2
 541 41 l 1
 575 41 l 2
 590.32 41 597.672 35.9293 597.672 26.4044 c 0
 597.672 24.7382 597.447 22.9356 597 21 c 0
 594 7 584 0 566 0 c 2
 492 0 l 1
 560 319 l 2
 561.045 323.963 561.544 328.84 561.544 333.57 c 0
 561.544 365.057 539.429 390 509 390 c 0
 473 390 438 366 387 308 c 1
 331 41 l 1
 365 41 l 2
 380.32 41 387.672 35.9293 387.672 26.4044 c 0
 387.672 24.7382 387.447 22.9356 387 21 c 0
 384 7 374 0 356 0 c 2
 282 0 l 1
 349 316 l 2
 350.079 321.261 350.594 326.45 350.594 331.489 c 0
 350.594 363.806 329.413 390 300 390 c 0xa0
 265 390 228 365 177 308 c 1
 121 41 l 1
 155 41 l 2
 170.32 41 177.672 35.9293 177.672 26.4044 c 0
 177.672 24.7382 177.447 22.9356 177 21 c 0
 174 7 163 0 146 0 c 2
 37 0 l 2
 22.3477 0 14.3812 5.20013 14.3812 15.6004 c 0
 14.3812 17.2668 14.5857 19.0666 15 21 c 0
 18 34 29 41 47 41 c 2
 81 41 l 1
 152 376 l 1
 118 376 l 2
 102.47 376 94.3838 381.211 94.3838 391.632 c 0
 94.3838 393.29 94.5883 395.079 95 397 c 0
 98 410 109 417 127 417 c 2
 201 417 l 1xc0
EndSplineSet
EndChar
StartChar: n
Encoding: 78 110 32767
OldEncoding: 110
Width: 600
Flags: W
HStem: 0 41<79 135 176 223 403 448 489 525> 376 41<170 206> 390 41<400 425>
DStem: 206 376 229 294 135 41 176 41 500 288 543 295 448 41 489 41
Fore
256 417 m 1xc0
 241 348 l 1
 313 412 353 431 415 431 c 0
 493.659 431 545.76 384.914 545.76 321.047 c 0
 545.76 312.651 544.859 303.947 543 295 c 2
 489 41 l 1
 523 41 l 2
 538.32 41 545.672 35.9293 545.672 26.4044 c 0
 545.672 24.7382 545.447 22.9356 545 21 c 0
 542 7 532 0 514 0 c 2
 405 0 l 2
 389.47 0 381.384 5.21073 381.384 15.6322 c 0
 381.384 17.2897 381.588 19.0789 382 21 c 0
 385 34 396 41 414 41 c 2
 448 41 l 1
 500 288 l 2
 501.66 295.112 502.476 301.944 502.476 308.507 c 0
 502.476 329.629 494.021 347.979 478 364 c 0
 459 384 441 390 402 390 c 0xa0
 364 390 333 380 300 357 c 0
 283 346 270 335 229 294 c 1
 176 41 l 1
 221 41 l 2
 236.32 41 243.672 35.9293 243.672 26.4044 c 0
 243.672 24.7382 243.447 22.9356 243 21 c 0
 240 7 230 0 212 0 c 2
 81 0 l 2
 64.5909 0 56.3864 5.22107 56.3864 15.6632 c 0
 56.3864 17.312 56.5909 19.0909 57 21 c 0
 60 34 71 41 90 41 c 2
 135 41 l 1
 206 376 l 1
 172 376 l 2
 156.47 376 148.384 381.211 148.384 391.632 c 0
 148.384 393.29 148.588 395.079 149 397 c 0
 152 410 163 417 181 417 c 2
 256 417 l 1xc0
EndSplineSet
EndChar
StartChar: o
Encoding: 79 111 32767
OldEncoding: 111
Width: 600
Flags: W
HStem: -16 41<286 320> 390 41<381 400>
Fore
392 431 m 0
 503.098 431 577.282 356.419 577.282 253.682 c 0
 577.282 238.052 575.565 221.77 572 205 c 0
 546 83 423 -16 297 -16 c 0
 186.147 -16 111.102 59.4265 111.102 161.733 c 0
 111.102 176.635 112.694 192.107 116 208 c 0
 142 331 265 431 392 431 c 0
383 390 m 0
 279 390 179 309 157 208 c 0
 154.344 195.101 153.064 182.537 153.064 170.431 c 0
 153.064 86.8084 214.152 25 305 25 c 0
 408 25 510 106 531 205 c 0
 533.884 218.763 535.273 232.097 535.273 244.877 c 0
 535.273 329.598 474.237 390 383 390 c 0
EndSplineSet
EndChar
StartChar: p
Encoding: 80 112 32767
OldEncoding: 112
Width: 600
Flags: W
HStem: -186 41<7 72 113 213> 10 41<321 339> 376 41<127 183> 390 41<401 419>
DStem: 183 376 233 417 72 -145 215 335 183 376 167 106 72 -145 113 -145
Fore
233 417 m 1xe0
 215 335 l 1
 283 404 339 431 415 431 c 0xd0
 522.821 431 592.838 362.197 592.838 266.01 c 0
 592.838 251.577 591.262 236.527 588 221 c 0
 563 102 448 10 325 10 c 0
 248 10 199 40 167 106 c 1
 113 -145 l 1
 211 -145 l 2
 226.53 -145 234.616 -150.211 234.616 -159.99 c 0
 234.616 -161.545 234.412 -163.216 234 -165 c 0
 231 -179 220 -186 202 -186 c 2
 9 -186 l 2
 -6.31995 -186 -13.6717 -180.929 -13.6717 -170.788 c 0
 -13.6717 -169.014 -13.4467 -167.084 -13 -165 c 0
 -10 -152 0 -145 18 -145 c 2
 72 -145 l 1
 183 376 l 1
 129 376 l 2
 113.47 376 105.384 381.211 105.384 391.632 c 0
 105.384 393.29 105.588 395.079 106 397 c 0
 109 410 120 417 138 417 c 2
 233 417 l 1xe0
405 390 m 0
 306 390 211 315 191 221 c 0
 188.502 209.135 187.299 197.581 187.299 186.447 c 0
 187.299 108.435 246.365 51 333 51 c 0
 431 51 527 126 547 219 c 0
 549.552 231.375 550.785 243.375 550.785 254.896 c 0
 550.785 333.677 493.115 390 405 390 c 0
EndSplineSet
EndChar
StartChar: q
Encoding: 81 113 32767
OldEncoding: 113
Width: 600
Flags: W
HStem: -186 41<321 430 471 527> 10 41<280 302> 376 41<550 647> 390 41<360 378>
DStem: 484 106 582 376 430 -145 471 -145 550 417 582 376 532 335 471 -145
Fore
532 335 m 1xd0
 550 417 l 1
 645 417 l 2
 660.32 417 667.672 411.929 667.672 402.404 c 0
 667.672 400.738 667.447 398.936 667 397 c 0
 664 383 654 376 636 376 c 2
 582 376 l 1xe0
 471 -145 l 1
 525 -145 l 2
 540.53 -145 548.616 -150.211 548.616 -159.99 c 0
 548.616 -161.545 548.412 -163.216 548 -165 c 0
 545 -179 534 -186 516 -186 c 2
 323 -186 l 2
 307.68 -186 300.328 -180.929 300.328 -170.788 c 0
 300.328 -169.014 300.553 -167.084 301 -165 c 0
 304 -152 314 -145 332 -145 c 2
 430 -145 l 1
 484 106 l 1
 424 40 361 10 283 10 c 0
 175.91 10 105.206 79.7389 105.206 176.318 c 0
 105.206 190.666 106.766 205.607 110 221 c 128
 135 340 250 431 374 431 c 0
 451 431 499 401 532 335 c 1xd0
365 390 m 0xd0
 265 390 171 316 151 221 c 128
 148.475 209.009 147.257 197.336 147.257 186.092 c 0
 147.257 108.261 205.623 51 293 51 c 0
 392 51 488 126 508 219 c 0
 510.522 231.234 511.741 243.102 511.741 254.502 c 0
 511.741 333.489 453.262 390 365 390 c 0xd0
EndSplineSet
EndChar
StartChar: r
Encoding: 82 114 32767
OldEncoding: 114
Width: 600
Flags: W
HStem: 0 41<110 436> 376 41<211 287> 386 41<518 532>
DStem: 287 376 337 417 216 41 315 315 287 376 304 262 216 41 257 41
Fore
337 417 m 1xc0
 315 315 l 1
 426 399 481 427 532 427 c 0
 561 427 581 418 602 396 c 0
 614.664 383.336 619.145 375.582 619.145 367.556 c 0
 619.145 366.709 619.095 365.859 619 365 c 0
 616 353 605 344 593 344 c 0
 586 344 584 345 579 352 c 0
 560 375 542 386 520 386 c 0xa0
 475 386 435 363 304 262 c 1
 257 41 l 1
 436 41 l 2
 450.652 41 458.619 35.057 458.619 25.0918 c 0
 458.619 23.4952 458.414 21.7953 458 20 c 0
 456 8 444 0 427 0 c 2
 111 0 l 2
 95.7086 0 87.699 6.47273 87.699 17.2349 c 0
 87.699 18.4374 87.799 19.6934 88 21 c 0
 91 33 103 41 120 41 c 2
 216 41 l 1
 287 376 l 1
 212 376 l 2
 196.709 376 188.699 382.473 188.699 393.235 c 0
 188.699 394.437 188.799 395.693 189 397 c 0
 192 409 204 417 221 417 c 2
 337 417 l 1xc0
EndSplineSet
EndChar
StartChar: s
Encoding: 83 115 32767
OldEncoding: 115
Width: 600
Flags: W
HStem: -16 41<282 316> 0 137<124 153> 293 124<515 542> 390 41<362 396>
Fore
514 385 m 1x90
 515 389 l 2
 518 406 529 417 542 417 c 128
 552.075 417 557.345 411.595 557.345 400.319 c 0
 557.345 397.045 556.9 393.276 556 389 c 2
 541 320 l 2
 537 302 528 293 515 293 c 0x20
 503.993 293 498.876 298.889 498.876 312.211 c 0
 498.876 313.413 498.917 314.676 499 316 c 0
 499.248 318.229 499.37 320.418 499.37 322.566 c 0
 499.37 363.801 454.236 390 382 390 c 0
 308 390 245 358 236 315 c 0
 235.553 312.618 235.328 310.213 235.328 307.806 c 0
 235.328 294.049 242.68 280.213 258 270 c 0
 277 256 283 254 369 245 c 0
 429 238 463 227 491 206 c 0
 512.088 188.967 523.967 163.382 523.967 135.647 c 0
 523.967 129.188 523.322 122.612 522 116 c 0
 506 40 411 -16 298 -16 c 0x90
 233 -16 186 1 152 38 c 1
 150 27 l 2
 146 9 137 0 124 0 c 0
 113.111 0 107.667 5.44444 107.667 16.3333 c 0
 107.667 19.4444 108.111 23 109 27 c 2
 126 110 l 2
 130 128 139 137 153 137 c 0x40
 162.941 137 168.764 130.823 168.764 121.313 c 0
 168.764 119.343 168.515 117.23 168 115 c 2
 167 108 l 2
 166.279 104.681 165.927 101.409 165.927 98.195 c 0
 165.927 56.8538 224.132 25 303 25 c 0
 391 25 466 64 477 117 c 0
 477.752 120.459 478.119 123.963 478.119 127.471 c 0
 478.119 147.293 466.391 167.256 446 180 c 0
 423 194 398 201 344 207 c 0
 272 215 245 222 221 239 c 0
 201.582 253.563 190.02 275.982 190.02 300.43 c 0
 190.02 306.199 190.664 312.081 192 318 c 0
 205 383 289 431 387 431 c 0
 444 431 485 416 514 385 c 1x90
EndSplineSet
EndChar
StartChar: t
Encoding: 84 116 32767
OldEncoding: 116
Width: 600
Flags: W
HStem: -16 41<284 319> 376 41<149 225 275 497> 543 20G<279 291.302>
DStem: 225 376 266 376 168 107 209 109 259 536 300 536 234 417 275 417
Fore
275 417 m 1
 495 417 l 2
 510.32 417 517.672 411.929 517.672 402.404 c 0
 517.672 400.738 517.447 398.936 517 397 c 0
 514 383 504 376 486 376 c 2
 266 376 l 1
 209 109 l 2
 207.69 102.924 207.046 97.1037 207.046 91.5641 c 0
 207.046 50.6055 242.22 25 303 25 c 0
 359 25 434 42 478 65 c 0
 487 70 490 71 495 71 c 0
 503.844 71 510.342 63.1777 510.342 54.4514 c 0
 510.342 53.3113 510.231 52.1556 510 51 c 0
 504 22 382 -16 297 -16 c 0
 214.475 -16 165.092 20.9964 165.092 80.779 c 0
 165.092 89.0916 166.047 97.8446 168 107 c 2
 225 376 l 1
 151 376 l 2
 134.591 376 126.386 381.221 126.386 391.663 c 0
 126.386 393.312 126.591 395.091 127 397 c 0
 130 410 141 417 160 417 c 2
 234 417 l 1
 259 536 l 2
 263 554 272 563 286 563 c 128
 296.603 563 301.47 558.411 301.47 547.931 c 0
 301.47 544.573 300.971 540.61 300 536 c 2
 275 417 l 1
EndSplineSet
EndChar
StartChar: u
Encoding: 85 117 32767
OldEncoding: 117
Width: 600
Flags: W
HStem: -16 41<252 271> 376 41<148 204 443 519>
DStem: 204 376 254 417 148 115 189 115 519 376 569 417 463 115 489 41
Fore
439 0 m 1
 453 66 l 1
 387 12 320 -16 254 -16 c 0
 185.31 -16 144.635 22.3361 144.635 83.1832 c 0
 144.635 93.2021 145.738 103.831 148 115 c 2
 204 376 l 1
 150 376 l 2
 134.47 376 126.384 381.211 126.384 391.632 c 0
 126.384 393.29 126.588 395.079 127 397 c 0
 130 410 141 417 159 417 c 2
 254 417 l 1
 189 115 l 2
 187.74 108.699 187.131 102.557 187.131 96.6337 c 0
 187.131 55.5538 216.427 25 261 25 c 0
 328 25 396 55 463 115 c 1
 519 376 l 1
 445 376 l 2
 428.591 376 420.386 381.221 420.386 391.663 c 0
 420.386 393.312 420.591 395.091 421 397 c 0
 424 410 435 417 454 417 c 2
 569 417 l 1
 489 41 l 1
 523 41 l 2
 538.32 41 545.672 35.9293 545.672 26.4044 c 0
 545.672 24.7382 545.447 22.9356 545 21 c 0
 542 7 532 0 514 0 c 2
 439 0 l 1
EndSplineSet
EndChar
StartChar: v
Encoding: 86 118 32767
OldEncoding: 118
Width: 600
Flags: W
HStem: 0 21G<266 336> 376 41<135 178 146 299 469 539 480 634>
DStem: 178 376 223 376 266 0 302 41 539 376 582 376 321 41 336 0
Fore
336 0 m 1
 266 0 l 1
 178 376 l 1
 137 376 l 2
 121.47 376 113.384 381.211 113.384 391.632 c 0
 113.384 393.29 113.588 395.079 114 397 c 0
 117 410 128 417 146 417 c 2
 297 417 l 2
 313.192 417 320.668 411.916 320.668 402.368 c 0
 320.668 400.712 320.443 398.922 320 397 c 0
 317 383 307 376 288 376 c 2
 223 376 l 1
 302 41 l 1
 321 41 l 1
 539 376 l 1
 471 376 l 2
 455.47 376 447.384 381.211 447.384 391.632 c 0
 447.384 393.29 447.588 395.079 448 397 c 0
 451 410 462 417 480 417 c 2
 632 417 l 2
 647.32 417 654.672 411.929 654.672 402.404 c 0
 654.672 400.738 654.447 398.936 654 397 c 0
 651 383 641 376 623 376 c 2
 582 376 l 1
 336 0 l 1
EndSplineSet
EndChar
StartChar: w
Encoding: 87 119 32767
OldEncoding: 119
Width: 600
Flags: W
HStem: 0 21G<160 211 391 441> 376 41<135 156 146 259 510 562 521 634>
VStem: 156 39<0 376>
DStem: 156 376 195 376 160 0 199 56 339 311 355 259 199 56 211 0 355 259 390 311 391 0 425 56 562 376 604 376 425 56 441 0
Fore
441 0 m 1
 391 0 l 1
 355 259 l 1
 211 0 l 1
 160 0 l 1
 156 376 l 1
 137 376 l 2
 121.47 376 113.384 381.211 113.384 391.632 c 0
 113.384 393.29 113.588 395.079 114 397 c 0
 117 410 128 417 146 417 c 2
 257 417 l 2
 272.32 417 279.672 411.929 279.672 402.404 c 0
 279.672 400.738 279.447 398.936 279 397 c 0
 276 383 266 376 248 376 c 2
 195 376 l 1
 199 56 l 1
 339 311 l 1
 390 311 l 1
 425 56 l 1
 562 376 l 1
 512 376 l 2
 496.47 376 488.384 381.211 488.384 391.632 c 0
 488.384 393.29 488.588 395.079 489 397 c 0
 492 410 503 417 521 417 c 2
 632 417 l 2
 647.32 417 654.672 411.929 654.672 402.404 c 0
 654.672 400.738 654.447 398.936 654 397 c 0
 651 383 641 376 623 376 c 2
 604 376 l 1
 441 0 l 1
EndSplineSet
EndChar
StartChar: x
Encoding: 88 120 32767
OldEncoding: 120
Width: 600
Flags: W
HStem: 0 41<76 96 152 222 388 464 522 533> 376 41<179 190 190 303 467 517 478 590>
DStem: 188 376 246 376 318 219 352 246 318 219 340 190 96 41 152 41 340 190 376 219 464 41 522 41 517 376 572 376 352 246 376 219
Fore
376 219 m 1
 522 41 l 1
 531 41 l 2
 546.32 41 553.672 35.9293 553.672 26.4044 c 0
 553.672 24.7382 553.447 22.9356 553 21 c 0
 550 7 540 0 522 0 c 2
 390 0 l 2
 374.47 0 366.384 5.21073 366.384 15.6322 c 0
 366.384 17.2897 366.588 19.0789 367 21 c 0
 370 34 381 41 399 41 c 2
 464 41 l 1
 340 190 l 1
 152 41 l 1
 220 41 l 2
 235.32 41 242.672 35.9293 242.672 26.4044 c 0
 242.672 24.7382 242.447 22.9356 242 21 c 0
 239 7 229 0 211 0 c 2
 78 0 l 2
 62.47 0 54.3838 5.21073 54.3838 15.6322 c 0
 54.3838 17.2897 54.5883 19.0789 55 21 c 0
 58 34 69 41 87 41 c 2
 96 41 l 1
 318 219 l 1
 188 376 l 1
 181 376 l 2
 165.47 376 157.384 381.211 157.384 391.632 c 0
 157.384 393.29 157.588 395.079 158 397 c 0
 161 410 172 417 190 417 c 2
 301 417 l 2
 316.32 417 323.672 412.654 323.672 402.728 c 0
 323.672 400.992 323.447 399.084 323 397 c 128
 320 383 310 376 292 376 c 2
 246 376 l 1
 352 246 l 1
 517 376 l 1
 469 376 l 2
 453.47 376 445.384 381.211 445.384 391.632 c 0
 445.384 393.29 445.588 395.079 446 397 c 0
 449 410 460 417 478 417 c 2
 588 417 l 2
 603.32 417 610.672 411.929 610.672 402.404 c 0
 610.672 400.738 610.447 398.936 610 397 c 0
 607 383 597 376 579 376 c 2
 572 376 l 1
 376 219 l 1
EndSplineSet
EndChar
StartChar: y
Encoding: 89 121 32767
OldEncoding: 121
Width: 600
Flags: W
HStem: -186 41<42 180 221 288> 376 41<156 174 167 284 490 546 501 613>
DStem: 174 376 221 376 282 0 315 45 282 0 588 376 180 -145 221 -145 546 376 588 376 315 45 221 -145
Fore
282 0 m 1
 174 376 l 1
 158 376 l 2
 142.47 376 134.384 381.211 134.384 391.632 c 0
 134.384 393.29 134.588 395.079 135 397 c 0
 138 410 149 417 167 417 c 2
 282 417 l 2
 297.32 417 304.672 411.929 304.672 402.404 c 0
 304.672 400.738 304.447 398.936 304 397 c 0
 301 383 291 376 273 376 c 2
 221 376 l 1
 315 45 l 1
 546 376 l 1
 492 376 l 2
 476.47 376 468.384 381.211 468.384 391.632 c 0
 468.384 393.29 468.588 395.079 469 397 c 0
 472 410 483 417 501 417 c 2
 611 417 l 2
 626.32 417 633.672 411.929 633.672 402.404 c 0
 633.672 400.738 633.447 398.936 633 397 c 0
 630 383 620 376 602 376 c 2
 588 376 l 1
 221 -145 l 1
 286 -145 l 2
 301.53 -145 309.616 -150.211 309.616 -159.99 c 0
 309.616 -161.545 309.412 -163.216 309 -165 c 0
 306 -179 295 -186 277 -186 c 2
 44 -186 l 2
 28.68 -186 21.3283 -180.929 21.3283 -170.788 c 0
 21.3283 -169.014 21.5533 -167.084 22 -165 c 0
 25 -152 35 -145 53 -145 c 2
 180 -145 l 1
 282 0 l 1
EndSplineSet
EndChar
StartChar: z
Encoding: 90 122 32767
OldEncoding: 122
Width: 600
Flags: W
HStem: 0 41<180 489> 0 124<487 495> 376 41<213 496>
DStem: 213 417 245 376 192 321 233 321 469 97 510 97 457 41 489 0 496 376 555 381 123 36 180 41
Fore
563 417 m 1x60
 555 381 l 1
 180 41 l 1
 457 41 l 1xa0
 469 97 l 2
 472 115 481 124 495 124 c 0x60
 505.562 124 510.844 118.059 510.844 106.176 c 0
 510.844 103.434 510.562 100.375 510 97 c 2
 489 0 l 1xa0
 115 0 l 1
 123 36 l 1
 496 376 l 1
 245 376 l 1
 233 321 l 2
 229 303 220 294 207 294 c 0
 196.111 294 190.667 299.444 190.667 310.333 c 0
 190.667 313.444 191.111 317 192 321 c 2
 213 417 l 1
 563 417 l 1x60
EndSplineSet
EndChar
StartChar: braceleft
Encoding: 91 123 32767
OldEncoding: 123
Width: 600
Flags: W
HStem: 584 20G<479.5 513.451>
DStem: 314 154 355 154 277 -19 318 -19 387 499 428 499 350 326 391 326
Fore
428 499 m 2
 391 326 l 2
 383 285 367 264 329 240 c 1
 349.564 222.374 358.262 206.365 358.262 182.864 c 0
 358.262 174.366 357.125 164.888 355 154 c 2
 318 -19 l 2
 316.946 -24.1189 316.436 -29.0791 316.436 -33.8227 c 0
 316.436 -60.586 332.667 -80.4517 359 -83 c 0
 374.943 -84.6782 381.732 -88.4686 381.732 -97.9158 c 0
 381.732 -99.7275 381.483 -101.747 381 -104 c 0
 378 -116 368 -124 353 -124 c 0
 305.922 -124 274.23 -90.297 274.23 -43.5867 c 0
 274.23 -35.7266 275.128 -27.4981 277 -19 c 2
 314 154 l 2
 315.003 159.158 315.493 164.111 315.493 168.821 c 0
 315.493 196.979 297.985 216.43 268 219 c 0
 254.418 219.849 247.322 224.301 247.322 234.19 c 0
 247.322 235.951 247.547 237.884 248 240 c 0
 251 253 260 260 276 261 c 0
 313 264 342 289 350 326 c 2
 387 499 l 2
 400 558 452 604 507 604 c 0
 519.901 604 527.624 598.082 527.624 588.791 c 0
 527.624 587.28 527.42 585.679 527 584 c 0
 524 570 516 565 497 563 c 0
 464 560 435 533 428 499 c 2
EndSplineSet
EndChar
StartChar: bar
Encoding: 92 124 32767
OldEncoding: 124
Width: 600
Flags: W
HStem: 584 20G<421.5 433.281>
DStem: 403 577 443 577 259 -97 299 -97
Fore
443 577 m 2
 299 -97 l 2
 296 -115 287 -124 274 -124 c 128
 263.438 -124 258.156 -118.059 258.156 -106.176 c 0
 258.156 -103.434 258.438 -100.375 259 -97 c 2
 403 577 l 2
 406 595 415 604 428 604 c 128
 438.562 604 443.844 598.059 443.844 586.176 c 0
 443.844 583.434 443.562 580.375 443 577 c 2
EndSplineSet
EndChar
StartChar: braceright
Encoding: 93 125 32767
OldEncoding: 125
Width: 600
Flags: W
HStem: 584 20G<341.5 372.539>
DStem: 311 154 352 154 274 -19 315 -19 384 499 425 499 347 326 388 326
Fore
274 -19 m 2
 311 154 l 2
 319 195 335 216 373 240 c 1
 352.436 257.626 343.738 273.635 343.738 297.136 c 0
 343.738 305.634 344.875 315.112 347 326 c 2
 384 499 l 2
 385.054 504.119 385.564 509.079 385.564 513.823 c 0
 385.564 540.586 369.333 560.452 343 563 c 0
 327.057 564.678 320.268 568.469 320.268 577.916 c 0
 320.268 579.727 320.517 581.747 321 584 c 0
 324 596 334 604 349 604 c 0
 396.078 604 427.77 570.297 427.77 523.587 c 0
 427.77 515.727 426.872 507.498 425 499 c 2
 388 326 l 2
 386.997 320.842 386.507 315.889 386.507 311.179 c 0
 386.507 283.021 404.015 263.57 434 261 c 0
 447.582 260.151 454.678 255.699 454.678 245.81 c 0
 454.678 244.049 454.453 242.116 454 240 c 0
 451 227 442 220 426 219 c 0
 389 216 360 191 352 154 c 2
 315 -19 l 2
 302 -78 250 -124 195 -124 c 0
 182.099 -124 174.376 -118.082 174.376 -108.791 c 0
 174.376 -107.28 174.58 -105.679 175 -104 c 0
 178 -90 186 -85 205 -83 c 0
 238 -80 267 -53 274 -19 c 2
EndSplineSet
EndChar
StartChar: asciitilde
Encoding: 94 126 32767
OldEncoding: 126
Width: 600
Flags: W
HStem: 212 41<431 442> 307 41<271 286>
Fore
558 330 m 0
 567.738 330 574.341 322.947 574.341 314.391 c 0
 574.341 313.282 574.23 312.148 574 311 c 0
 572 303 562 291 541 271 c 0
 498 230 465 212 434 212 c 0
 402 212 384 224 332 277 c 0
 311 297 294 307 277 307 c 0
 251 307 238 298 182 242 c 0
 174 233 168 230 160 230 c 0
 151.156 230 144.658 237.04 144.658 245.586 c 0
 144.658 246.702 144.769 247.844 145 249 c 0
 147 257 158 271 182 294 c 0
 225 333 253 348 286 348 c 0
 318 348 331 340 376 297 c 0
 412 261 424 253 440 253 c 0
 464 253 491 270 524 305 c 0
 544 327 548 330 558 330 c 0
EndSplineSet
EndChar
StartChar: exclamdown
Encoding: 96 161 32767
OldEncoding: 161
Width: 600
Flags: W
HStem: 317 100<372 385>
Fore
228 -161 m 1
 315 165 l 1
 320 185 328 193 342 193 c 0
 352.295 193 356.945 187.356 356.945 175.572 c 0
 356.945 172.475 356.624 168.954 356 165 c 2
 305 -161 l 1
 304 -168 303 -173 302 -177 c 0
 298 -199 277 -216 254 -216 c 0
 234.664 -216 222.281 -202.868 222.281 -184.751 c 0
 222.281 -182.255 222.516 -179.664 223 -177 c 0
 224 -175 225 -169 228 -161 c 1
374 317 m 2
 361 317 l 2
 334.73 317 316.895 333.87 316.895 356.865 c 0
 316.895 360.13 317.254 363.519 318 367 c 128
 324 395 353 417 383 417 c 2
 396 417 l 2
 422.125 417 439.15 400.316 439.15 377.516 c 0
 439.15 374.133 438.775 370.617 438 367 c 128
 432 339 404 317 374 317 c 2
EndSplineSet
EndChar
StartChar: cent
Encoding: 97 162 32767
OldEncoding: 162
Width: 600
Flags: W
HStem: -13 178<298 342> 364 114<523 547> 458 39<408 429>
DStem: 307 127 348 127 283 14 324 14 408 603 449 603 385 496 427 497
Fore
385 496 m 1xa0
 408 603 l 2
 412 621 421 630 435 630 c 0
 445.075 630 450.345 624.595 450.345 613.785 c 0
 450.345 610.646 449.9 607.051 449 603 c 2
 427 497 l 1xa0
 465 497 503 483 523 461 c 1
 528 472 537 478 547 478 c 0
 557.317 478 563.225 472.332 563.225 461.995 c 0
 563.225 459.306 562.826 456.302 562 453 c 2
 549 392 l 2
 545 373 536 364 523 364 c 0xc0
 512.166 364 507.853 369.706 507.853 382.589 c 0
 507.853 383.976 507.903 385.445 508 387 c 0
 508.108 388.547 508.161 390.075 508.161 391.582 c 0
 508.161 431.978 469.698 458 408 458 c 0
 317 458 238 397 220 311 c 0
 217.609 299.84 216.453 289.068 216.453 278.779 c 0
 216.453 211.62 265.692 165 342 165 c 0
 388 165 437 180 476 207 c 0
 486 214 490 215 496 215 c 0
 505.093 215 510.77 209.533 510.77 200.859 c 0
 510.77 199.04 510.52 197.08 510 195 c 0
 505 168 416 130 348 127 c 1
 324 14 l 2
 320 -4 311 -13 298 -13 c 0
 287.111 -13 281.667 -7.55556 281.667 3.33333 c 0
 281.667 6.44444 282.111 10 283 14 c 2
 307 127 l 1
 225.416 136.447 174.807 195.306 174.807 271.91 c 0
 174.807 284.507 176.176 297.584 179 311 c 0
 192 373 234 429 292 463 c 0
 319 478 342 487 385 496 c 1xa0
EndSplineSet
EndChar
StartChar: sterling
Encoding: 98 163 32767
OldEncoding: 163
Width: 600
Flags: W
HStem: 0 40<111 117 191 446> 273 41<146 251 291 393> 537 41<408 426>
Fore
191 41 m 1
 443 41 l 2
 468 41 490 60 499 92 c 0
 504 108 511 115 524 115 c 0
 534.127 115 540.693 108.59 540.693 98.7762 c 0
 540.693 96.9609 540.468 95.0292 540 93 c 0
 529 42 482 0 436 0 c 2
 113 0 l 2
 97.47 0 89.3838 5.21073 89.3838 15.6322 c 0
 89.3838 17.2897 89.5883 19.0789 90 21 c 0
 93 32 103 40 117 40 c 0
 164 42 225 128 245 220 c 0
 248 237 251 260 252 273 c 1
 148 273 l 2
 131.976 273 124.669 278.548 124.669 289.643 c 0
 124.669 291.011 124.78 292.463 125 294 c 0
 128 307 139 314 157 314 c 2
 251 314 l 1
 247.206 349.769 245.469 374.671 245.469 394.117 c 0
 245.469 410.553 246.71 423.091 249 435 c 0
 266 514 343 578 421 578 c 0
 457 578 487 565 511 539 c 0
 524.477 523.726 532.303 508.453 532.303 498.256 c 0
 532.303 497.103 532.203 496.015 532 495 c 0
 530 486 517 476 508 476 c 0
 502 476 498 479 493 488 c 0
 472 522 448 537 413 537 c 0
 359 537 302 490 290 435 c 0
 288 423.5 286.75 414 286.75 398.75 c 0
 286.75 383.5 288 362.5 291 328 c 0
 292 327 291 321 292 314 c 1
 391 314 l 2
 406.32 314 413.672 308.929 413.672 298.788 c 0
 413.672 297.014 413.447 295.084 413 293 c 0
 411 280 400 273 382 273 c 2
 292 273 l 1
 291 252 289 234 285 216 c 0
 270 148 237 87 191 41 c 1
EndSplineSet
EndChar
StartChar: currency
Encoding: 99 164 32767
OldEncoding: 164
Width: 600
Flags: W
HStem: 127 41<325 338> 417 41<381 399>
DStem: 210 450 244 478 253 394 288 423 211 191 233 162 143 135 165 106 435 162 472 191 480 106 515 135 559 478 583 450 492 423 516 394
Fore
233 162 m 1
 165 106 l 1
 155 97 150 95 144 95 c 0
 133.368 95 126.661 102.065 126.661 111.326 c 0
 126.661 112.518 126.772 113.746 127 115 c 0
 129 122 133 127 143 135 c 2
 211 191 l 1
 198.842 212.614 193.071 234.685 193.071 257.828 c 0
 193.071 268.948 194.404 280.316 197 292 c 0
 205 329 225 366 253 394 c 1
 210 450 l 1
 204.246 455.754 202.113 459.438 202.113 463.658 c 0
 202.113 465.306 202.438 467.035 203 469 c 0
 205 480 216 489 227 489 c 0
 234 489 237 486 244 478 c 2
 288 423 l 1
 322 446 360 458 397 458 c 128
 434 458 469 445 492 423 c 1
 559 478 l 2
 570 487 574 489 581 489 c 0
 590.268 489 596.697 482.611 596.697 473.421 c 0
 596.697 471.704 596.472 469.889 596 468 c 0
 595 461 594 459 583 450 c 2
 516 394 l 1
 526.667 372.667 532 350.889 532 328.074 c 0
 532 316.667 530.667 305 528 293 c 0
 520 256 501 220 472 191 c 1
 515 135 l 2
 518.123 130.315 520.637 124.411 520.637 119.192 c 0
 520.637 117.727 520.438 116.315 520 115 c 0
 518 104 507 95 496 95 c 0
 490 95 485 98 480 106 c 2
 435 162 l 1
 398 138 364 127 327 127 c 128
 290 127 259 139 233 162 c 1
389 417 m 0
 321 417 253 361 238 293 c 0
 236.246 284.355 235.402 275.914 235.402 267.762 c 0
 235.402 210.847 276.52 168 336 168 c 0
 403 168 472 224 486 291 c 0
 488.014 300.4 488.983 309.547 488.983 318.341 c 0
 488.983 375.03 448.734 417 389 417 c 0
EndSplineSet
EndChar
StartChar: yen
Encoding: 100 165 32767
OldEncoding: 165
Width: 600
Flags: W
HStem: 0 41<192 289 330 418> 141 37<178 310 359 492> 238 37<197 324 392 513> 522 41<187 213 198 310 521 562 532 644>
DStem: 213 522 260 522 324 275 363 295 310 141 351 141 289 41 330 41 331 238 372 238 318 178 359 178 562 522 609 522 363 295 392 275
Fore
372 238 m 1
 359 178 l 1
 490 178 l 2
 502.25 178 507.831 174.665 507.831 166.361 c 0
 507.831 164.497 507.55 162.383 507 160 c 0
 504 146 497 141 482 141 c 2
 351 141 l 1
 330 41 l 1
 416 41 l 2
 431.32 41 438.672 35.9293 438.672 26.4044 c 0
 438.672 24.7382 438.447 22.9356 438 21 c 0
 435 7 425 0 407 0 c 2
 194 0 l 2
 178.47 0 170.384 5.21073 170.384 15.6322 c 0
 170.384 17.2897 170.588 19.0789 171 21 c 0
 174 34 185 41 203 41 c 2
 289 41 l 1
 310 141 l 1
 180 141 l 2
 166.901 141 161.175 144.351 161.175 153.248 c 0
 161.175 155.219 161.456 157.461 162 160 c 0
 165 173 172 178 188 178 c 2
 318 178 l 1
 331 238 l 1
 201 238 l 2
 187.901 238 182.175 241.351 182.175 250.248 c 0
 182.175 252.219 182.456 254.461 183 257 c 0
 185 270 191 275 208 275 c 2
 324 275 l 1
 213 522 l 1
 189 522 l 2
 173.47 522 165.384 527.211 165.384 537.632 c 0
 165.384 539.29 165.588 541.079 166 543 c 0
 169 556 180 563 198 563 c 2
 308 563 l 2
 323.32 563 330.672 557.929 330.672 548.404 c 0
 330.672 546.738 330.447 544.936 330 543 c 0
 327 529 317 522 299 522 c 2
 260 522 l 1
 363 295 l 1
 562 522 l 1
 523 522 l 2
 507.47 522 499.384 527.211 499.384 537.632 c 0
 499.384 539.29 499.588 541.079 500 543 c 0
 503 556 514 563 532 563 c 2
 642 563 l 2
 657.32 563 664.672 557.929 664.672 548.404 c 0
 664.672 546.738 664.447 544.936 664 543 c 0
 661 529 651 522 633 522 c 2
 609 522 l 1
 392 275 l 1
 510 275 l 2
 523.525 275 528.475 271.427 528.475 262.47 c 0
 528.475 260.831 528.309 259.011 528 257 c 0
 525 243 519 238 503 238 c 2
 372 238 l 1
EndSplineSet
EndChar
StartChar: brokenbar
Encoding: 101 166 32767
OldEncoding: 166
Width: 600
Flags: W
HStem: 584 20G<421.5 433.281>
DStem: 316 170 356 170 259 -97 299 -97 403 577 443 577 346 310 386 310
Fore
443 577 m 2
 386 310 l 2
 382 292 373 283 360 283 c 128
 349.925 283 344.655 288.405 344.655 299.215 c 0
 344.655 302.354 345.1 305.949 346 310 c 2
 403 577 l 2
 406 595 415 604 428 604 c 128
 438.562 604 443.844 598.059 443.844 586.176 c 0
 443.844 583.434 443.562 580.375 443 577 c 2
356 170 m 2
 299 -97 l 2
 296 -115 287 -124 274 -124 c 128
 263.438 -124 258.156 -118.059 258.156 -106.176 c 0
 258.156 -103.434 258.438 -100.375 259 -97 c 2
 316 170 l 2
 320 188 329 197 342 197 c 128
 352.075 197 357.345 191.595 357.345 180.785 c 0
 357.345 177.646 356.9 174.051 356 170 c 2
EndSplineSet
EndChar
StartChar: section
Encoding: 102 167 32767
OldEncoding: 167
Width: 600
Flags: W
HStem: -62 40<141 317> -62 135<138 299> 563 40<395 575>
DStem: 115 49 156 49 92 -62 141 -22 253 211 286 243 310 175 340 208 575 563 624 603 560 494 601 494
Fore
624 603 m 1xa0
 601 494 l 2
 598 479 589 470 576 470 c 128
 565.208 470 559.24 476.202 559.24 486.89 c 0
 559.24 489.077 559.49 491.452 560 494 c 2
 575 563 l 1
 407 563 l 2
 358 563 308 528 300 487 c 0
 299.081 482.749 298.584 478.643 298.584 474.605 c 0
 298.584 443.498 328.064 416.417 421 358 c 2
 471 327 l 2
 543.076 282.712 575.185 245.211 575.185 204.02 c 0
 575.185 197.777 574.448 191.449 573 185 c 0
 568 159 550 137 524 121 c 0
 504 110 488 105 453 101 c 1
 456.6 92 458.4 83 458.4 73.136 c 0
 458.4 66.56 457.6 59.6 456 52 c 0
 442 -13 375 -62 299 -62 c 2xa0
 92 -62 l 1
 115 49 l 2
 119 64 128 73 142 73 c 0x60
 152.075 73 157.345 67.5949 157.345 58.1809 c 0
 157.345 55.4472 156.9 52.3755 156 49 c 2
 141 -22 l 1
 306 -22 l 2
 359 -22 406 11 415 53 c 0
 415.862 56.7704 416.306 60.5176 416.306 64.2704 c 0
 416.306 95.3536 385.843 126.817 310 175 c 2
 253 211 l 2
 176.486 259.934 140.341 301.743 140.341 342.767 c 0
 140.341 347.852 140.897 352.926 142 358 c 0
 152 403 200 436 263 441 c 1
 259.4 450 257.6 458.28 257.6 467.352 c 0
 257.6 473.4 258.4 479.8 260 487 c 0
 273 550 343 603 412 603 c 2
 624 603 l 1xa0
446 290 m 2
 389 326 l 2
 333 361 309 379 287 403 c 1
 280 402 280 402 268 402 c 0
 226 402 190 383 185 357 c 0
 184.55 354.823 184.325 352.595 184.325 350.317 c 0
 184.325 322.244 218.48 286.472 286 243 c 2
 340 208 l 2
 389 177 415 157 430 139 c 1
 434 141 434 141 448 142 c 0
 493 143 525 159 530 184 c 0
 530.469 186.265 530.699 188.609 530.699 191.023 c 0
 530.699 219.517 498.549 257.733 446 290 c 2
EndSplineSet
EndChar
StartChar: dieresis
Encoding: 103 168 32767
OldEncoding: 168
Width: 600
Flags: W
Fore
320 611 m 0
 344.214 611 360.202 593.799 360.202 571.038 c 0
 360.202 567.48 359.811 563.786 359 560 c 0
 354 534 326 511 299 511 c 128
 275.039 511 258.166 529.114 258.166 552.062 c 0
 258.166 554.973 258.437 557.961 259 561 c 128
 265 588 293 611 320 611 c 0
541 611 m 0
 565.214 611 581.202 593.799 581.202 571.038 c 0
 581.202 567.48 580.811 563.786 580 560 c 0
 575 534 547 511 520 511 c 128
 496.039 511 479.166 529.114 479.166 552.062 c 0
 479.166 554.973 479.437 557.961 480 561 c 128
 486 588 514 611 541 611 c 0
EndSplineSet
EndChar
StartChar: copyright
Encoding: 104 169 32767
OldEncoding: 169
Width: 600
Flags: W
HStem: -15 41<291 313> 111 36<324 335> 338 105<471 493> 414 36<375 393> 537 41<407 437>
DStem: 218 305 253 302 208 260 245 263
Fore
208 260 m 2xd8
 218 305 l 2
 235 385 312 450 388 450 c 0xd8
 420 450 440 443 470 421 c 1
 473 435 482 443 493 443 c 128
 502.412 443 507.432 437.143 507.432 427.934 c 0
 507.432 426.381 507.289 424.732 507 423 c 2
 493 358 l 2
 491 346 482 338 471 338 c 0xe8
 461.839 338 456.874 343.874 456.874 354.086 c 0
 456.874 355.021 456.916 355.993 457 357 c 0
 457.123 358.275 457.184 359.542 457.184 360.799 c 0
 457.184 390.095 424.149 414 381 414 c 0
 323 414 266 364 253 302 c 2
 245 263 l 2
 243.314 254.83 242.503 246.827 242.503 239.087 c 0
 242.503 187.144 279.041 147 333 147 c 0
 369 147 397 160 433 194 c 0
 440 200 444 202 451 202 c 0
 458.827 202 464.385 195.949 464.385 188.452 c 0
 464.385 187.329 464.261 186.173 464 185 c 0
 463 177 453 166 434 152 c 0
 400 125 362 111 326 111 c 0
 256.598 111 204.947 165.024 204.947 231.714 c 0
 204.947 240.937 205.935 250.402 208 260 c 2xd8
423 578 m 0
 564.819 578 662.732 477.32 662.732 343.797 c 0
 662.732 323.856 660.548 303.181 656 282 c 0
 621 116 461 -15 293 -15 c 0
 153.49 -15 56.555 87.6375 56.555 221.318 c 0
 56.555 240.951 58.6459 261.254 63 282 c 0
 98 445 259 578 423 578 c 0
414 537 m 0
 273 537 134 423 104 282 c 0
 100.126 263.921 98.2697 246.242 98.2697 229.162 c 0
 98.2697 113.975 182.692 26 302 26 c 0
 447 26 585 139 615 282 c 0
 618.867 300.048 620.724 317.68 620.724 334.704 c 0
 620.724 449.738 535.952 537 414 537 c 0
EndSplineSet
EndChar
StartChar: ordfeminine
Encoding: 105 170 32767
OldEncoding: 170
Width: 600
Flags: W
HStem: 279 37<308 332> 420 35<372 390> 537 37<404 422>
DStem: 448 409 502 490 435 350 466 319 465 490 502 490 456 446 466 319
Fore
421 282 m 1
 426 308 l 1
 381 286 352 279 313 279 c 0
 261.026 279 229.228 303.833 229.228 341.876 c 0
 229.228 347.019 229.809 352.403 231 358 c 0
 243 415 308 455 385 455 c 0
 408 455 427 452 456 446 c 1
 465 490 l 2
 465.657 493.066 465.978 496.024 465.978 498.861 c 0
 465.978 521.933 444.73 537 410 537 c 0
 392 537 363 530 330 518 c 0
 321 514 319 514 315 514 c 0
 307.173 514 301.615 520.807 301.615 529.159 c 0
 301.615 530.411 301.739 531.697 302 533 c 0
 304 542 309 547 320 552 c 0
 353 564 396 574 420 574 c 0
 470.845 574 504.014 547.103 504.014 507.457 c 0
 504.014 501.877 503.357 496.045 502 490 c 2
 466 319 l 1
 492 319 l 2
 505.139 319 511.373 313.629 511.373 304.231 c 0
 511.373 302.9 511.248 301.488 511 300 c 0
 508 289 498 282 484 282 c 2
 421 282 l 1
435 350 m 1
 448 409 l 1
 433 415 402 420 379 420 c 0
 322 420 276 393 268 356 c 0
 267.51 353.648 267.27 351.373 267.27 349.182 c 0
 267.27 329.018 287.626 316 321 316 c 0
 359 316 396 327 435 350 c 1
EndSplineSet
EndChar
StartChar: guillemotleft
Encoding: 106 171 32767
OldEncoding: 171
Width: 600
Flags: W
HStem: 0 21G<289 297.5 518 526.5> 397 20G<377.5 385.634 606.5 614.634>
Fore
107 209 m 1
 357 406 l 2
 367 414 374 417 381 417 c 0
 390.268 417 396.697 410.611 396.697 402.019 c 0
 396.697 400.414 396.472 398.732 396 397 c 0
 395 390 393 388 381 377 c 2
 202 209 l 1
 310 40 l 2
 314.963 32.2009 316.91 28.9261 316.91 25.1857 c 0
 316.91 23.6505 316.582 22.037 316 20 c 0
 314 9 303 0 292 0 c 0
 286 0 280 4 273 11 c 2
 107 209 l 1
336 209 m 1
 586 406 l 2
 596 414 603 417 610 417 c 0
 619.268 417 625.697 410.611 625.697 402.019 c 0
 625.697 400.414 625.472 398.732 625 397 c 0
 624 390 622 388 610 377 c 2
 431 209 l 1
 539 40 l 2
 543.963 32.2009 545.91 28.9261 545.91 25.1857 c 0
 545.91 23.6505 545.582 22.037 545 20 c 0
 543 9 532 0 521 0 c 0
 515 0 509 4 502 11 c 2
 336 209 l 1
EndSplineSet
EndChar
StartChar: logicalnot
Encoding: 107 172 32767
OldEncoding: 172
Width: 600
Flags: W
HStem: 397 41<181 571>
DStem: 571 397 621 438 528 195 569 195
Fore
571 397 m 1
 183 397 l 2
 167.68 397 160.328 402.071 160.328 412.212 c 0
 160.328 413.986 160.553 415.916 161 418 c 0
 164 431 174 438 192 438 c 2
 621 438 l 1
 569 195 l 2
 566 177 557 168 543 168 c 0
 532.438 168 527.156 173.941 527.156 185.824 c 0
 527.156 188.566 527.438 191.625 528 195 c 2
 571 397 l 1
EndSplineSet
EndChar
StartChar: registered
Encoding: 109 174 32767
OldEncoding: 174
Width: 600
Flags: W
HStem: -15 41<282 318> 120 36<197 230 266 302 463 479> 258 36<295 351> 407 36<258 284 267 409> 537 41<398 435>
DStem: 284 407 320 407 230 156 295 294 284 407 288 258 230 156 266 156
Fore
288 258 m 1
 266 156 l 1
 302 156 l 2
 312.127 156 318.693 151.015 318.693 142.847 c 0
 318.693 141.337 318.468 139.717 318 138 c 128
 316 127 307 120 295 120 c 2
 199 120 l 2
 187.472 120 180.662 125.504 180.662 134.421 c 0
 180.662 135.56 180.773 136.754 181 138 c 128
 184 149 193 156 206 156 c 2
 230 156 l 1
 284 407 l 1
 260 407 l 2
 248.472 407 241.662 412.504 241.662 421.421 c 0
 241.662 422.56 241.773 423.754 242 425 c 128
 245 436 254 443 267 443 c 2
 405 443 l 2
 458.132 443 492.297 413.412 492.297 370.096 c 0
 492.297 363.681 491.548 356.965 490 350 c 0
 482 312 449 281 403 269 c 1
 431 243 438 228 464 156 c 1
 479 156 l 2
 489.127 156 495.693 151.015 495.693 142.847 c 0
 495.693 141.337 495.468 139.717 495 138 c 128
 493 127 484 120 472 120 c 2
 433 120 l 1
 412 198 383 246 351 258 c 1
 288 258 l 1
295 294 m 1
 351 294 l 2
 407 294 447 316 455 352 c 0
 455.812 355.71 456.206 359.299 456.206 362.745 c 0
 456.206 389.024 433.247 407 397 407 c 2
 320 407 l 1
 295 294 l 1
423 578 m 0
 564.819 578 662.732 477.32 662.732 343.797 c 0
 662.732 323.856 660.548 303.181 656 282 c 0
 621 116 461 -15 293 -15 c 0
 153.49 -15 56.555 87.6375 56.555 221.318 c 0
 56.555 240.951 58.6459 261.254 63 282 c 0
 98 445 259 578 423 578 c 0
414 537 m 0
 273 537 134 423 104 282 c 0
 100.126 263.921 98.2697 246.242 98.2697 229.162 c 0
 98.2697 113.975 182.692 26 302 26 c 0
 447 26 585 139 615 282 c 0
 618.867 300.048 620.724 317.68 620.724 334.704 c 0
 620.724 449.738 535.952 537 414 537 c 0
EndSplineSet
EndChar
StartChar: macron
Encoding: 110 175 32767
OldEncoding: 175
Width: 600
Flags: W
HStem: 536 40<294 542>
Fore
532 536 m 2
 296 536 l 2
 280.47 536 272.384 541.211 272.384 550.99 c 0
 272.384 552.545 272.588 554.216 273 556 c 128
 276 569 286 576 304 576 c 2
 540 576 l 2
 555.53 576 563.616 570.789 563.616 561.01 c 0
 563.616 559.455 563.412 557.784 563 556 c 128
 560 543 550 536 532 536 c 2
EndSplineSet
EndChar
StartChar: degree
Encoding: 111 176 32767
OldEncoding: 176
Width: 600
Flags: W
HStem: 346 41<367 384> 595 41<424 437>
Fore
435 636 m 0
 504.613 636 552.268 586.783 552.268 521.292 c 0
 552.268 511.521 551.207 501.387 549 491 c 0
 532 411 454 346 374 346 c 0
 303.986 346 256.387 394.563 256.387 460.692 c 0
 256.387 471.069 257.559 481.878 260 493 c 0
 276 571 356 636 435 636 c 0
426 595 m 0
 369 595 312 548 301 492 c 0
 299.207 484.002 298.346 476.214 298.346 468.729 c 0
 298.346 421.932 331.998 387 382 387 c 0
 439 387 496 434 508 491 c 128
 509.527 498.253 510.26 505.343 510.26 512.196 c 0
 510.26 559.2 475.747 595 426 595 c 0
EndSplineSet
EndChar
StartChar: plusminus
Encoding: 112 177 32767
OldEncoding: 177
Width: 600
Flags: W
HStem: 0 40<97 512> 301 40<161 343 392 574>
DStem: 343 301 384 301 309 139 350 139 386 502 427 502 351 341 392 341
Fore
384 301 m 1
 350 139 l 2
 346 121 337 112 324 112 c 0
 313.111 112 307.667 117.444 307.667 128.333 c 0
 307.667 131.444 308.111 135 309 139 c 2
 343 301 l 1
 163 301 l 2
 147.47 301 139.384 306.211 139.384 315.99 c 0
 139.384 317.545 139.588 319.216 140 321 c 128
 143 334 153 341 171 341 c 2
 351 341 l 1
 386 502 l 2
 390 520 398 529 412 529 c 0
 422.317 529 428.225 523.332 428.225 511.995 c 0
 428.225 509.047 427.826 505.715 427 502 c 2
 392 341 l 1
 572 341 l 2
 588.409 341 596.614 336.525 596.614 326.286 c 0
 596.614 324.669 596.409 322.909 596 321 c 0
 593 308 583 301 564 301 c 2
 384 301 l 1
108 40 m 2
 510 40 l 2
 525.32 40 532.672 34.9293 532.672 25.4044 c 0
 532.672 23.7382 532.447 21.9356 532 20 c 128
 529 7 519 0 501 0 c 2
 99 0 l 2
 83.47 0 75.3838 5.21073 75.3838 14.9899 c 0
 75.3838 16.5453 75.5883 18.2161 76 20 c 128
 79 33 90 40 108 40 c 2
EndSplineSet
EndChar
StartChar: twosuperior
Encoding: 113 178 32767
OldEncoding: 178
Width: 600
Flags: W
HStem: 259 36<282 460> 259 59<453 460> 576 36<415 427>
Fore
282 295 m 1xa0
 432 295 l 1xa0
 432 298 l 2
 435 310 444 318 455 318 c 128x60
 463.887 318 468.857 312.779 468.857 304.445 c 0
 468.857 302.463 468.576 300.305 468 298 c 2
 460 259 l 1xa0
 230 259 l 1x60
 239 302 l 1
 397 425 l 1
 458 475 471 489 476 511 c 0
 476.727 514.635 477.076 518.216 477.076 521.715 c 0
 477.076 551.908 451.054 576 417 576 c 0
 383 576 348 555 332 524 c 0
 327 513 320 508 311 508 c 128
 303.173 508 297.615 514.051 297.615 521.548 c 0
 297.615 522.671 297.739 523.827 298 525 c 0
 300 536 312 554 326 568 c 0
 354 596 390 612 425 612 c 0
 476.51 612 513.823 574.93 513.823 528.808 c 0
 513.823 522.997 513.231 517.042 512 511 c 0
 502 468 481 448 282 295 c 1xa0
EndSplineSet
EndChar
StartChar: threesuperior
Encoding: 114 179 32767
OldEncoding: 179
Width: 600
Flags: W
HStem: 251 36<340 363> 431 36<379 403> 576 36<420 432>
Fore
453 446 m 1
 480.524 426.571 494.286 404.522 494.286 377.728 c 0
 494.286 371.424 493.524 364.857 492 358 c 0
 480 299 414 251 348 251 c 0
 300.064 251 245.693 278.575 245.693 301.119 c 0
 245.693 302.09 245.794 303.051 246 304 c 0
 248 313 257 321 266 321 c 0
 271 321 274 320 278 316 c 0
 304 295 326 287 356 287 c 0
 402 287 448 320 456 358 c 0
 456.994 362.419 457.476 366.741 457.476 370.934 c 0
 457.476 404.693 426.255 430.11 380 431 c 0
 368.472 431.887 361.662 436.705 361.662 445.455 c 0
 361.662 446.573 361.774 447.754 362 449 c 0
 364 455 368 461 375 465 c 0
 378 467 378 467 403 467 c 0
 440 467 472 490 479 520 c 0
 479.616 523.284 479.916 526.484 479.916 529.583 c 0
 479.916 556.674 456.997 576 422 576 c 0
 393 576 366 566 348 549 c 0
 340 541 336 539 330 539 c 0
 321.156 539 314.658 545.258 314.658 552.931 c 0
 314.658 553.933 314.769 554.96 315 556 c 0
 320 581 384 612 430 612 c 0
 482.016 612 516.932 580.91 516.932 537.916 c 0
 516.932 532.143 516.302 526.156 515 520 c 0
 508 490 490 468 453 446 c 1
EndSplineSet
EndChar
StartChar: acute
Encoding: 115 180 32767
OldEncoding: 180
Width: 600
Flags: W
DStem: 540 630 560 599 405 530 425 499
Fore
560 599 m 2
 425 499 l 2
 415 492 410 490 404 490 c 0
 394.732 490 388.303 496.389 388.303 505.579 c 0
 388.303 507.296 388.528 509.111 389 511 c 0
 390 518 393 521 405 530 c 2
 540 630 l 2
 550 637 555 639 561 639 c 0
 570.268 639 576.697 632.611 576.697 623.421 c 0
 576.697 621.704 576.472 619.889 576 618 c 0
 575 611 571 607 560 599 c 2
EndSplineSet
EndChar
StartChar: mu
Encoding: 116 181 7
OldEncoding: 181
Width: 600
Flags: W
HStem: -16 40<252 278> 377 40<148 204 443 518>
DStem: 204 377 254 417 87 -173 189 115 204 377 168 16 87 -173 128 -173 519 377 569 417 463 115 489 40
Fore
168 16 m 1
 128 -173 l 2
 124 -191 115 -200 101 -200 c 0
 90.9255 -200 85.6555 -194.595 85.6555 -183.785 c 0
 85.6555 -180.646 86.0999 -177.051 87 -173 c 2
 204 377 l 1
 150 377 l 2
 133.976 377 126.669 382.548 126.669 392.937 c 0
 126.669 394.218 126.78 395.573 127 397 c 0
 130 411 141 417 159 417 c 2
 254 417 l 1
 189 115 l 2
 187.446 107.373 186.691 100.085 186.691 93.1928 c 0
 186.691 51.2863 214.627 24 261 24 c 0
 329 24 395 54 463 115 c 1
 519 377 l 1
 445 377 l 2
 428.073 377 420.671 382.556 420.671 392.96 c 0
 420.671 394.234 420.782 395.581 421 397 c 0
 424 411 435 417 454 417 c 2
 569 417 l 1
 489 40 l 1
 523 40 l 2
 538.32 40 545.672 35.6537 545.672 25.728 c 0
 545.672 23.9916 545.447 22.0845 545 20 c 0
 542 7 532 0 514 0 c 2
 439 0 l 1
 452 59 l 1
 389 10 320 -16 255 -16 c 0
 214 -16 190 -8 168 16 c 1
EndSplineSet
EndChar
StartChar: paragraph
Encoding: 117 182 32767
OldEncoding: 182
Width: 600
Flags: W
HStem: -62 41<172 280 433 497> 563 41<426 517 426 628>
DStem: 339 260 445 563 280 -21 321 -21 403 558 445 563 349 307 321 -21 517 563 557 563 393 -21 433 -21
Fore
557 563 m 1
 433 -21 l 1
 495 -21 l 2
 509.45 -21 516.675 -26.0575 516.675 -35.5584 c 0
 516.675 -37.235 516.45 -39.05 516 -41 c 0
 513 -55 503 -62 486 -62 c 2
 388 -62 l 2
 374.523 -62 366.697 -55.5423 366.697 -44.8025 c 0
 366.697 -43.5887 366.797 -42.3201 367 -41 c 0
 370 -30 379 -22 393 -21 c 1
 517 563 l 1
 445 563 l 1
 321 -21 l 1
 331.127 -21.8439 337.693 -27.6731 337.693 -36.0835 c 0
 337.693 -37.6391 337.468 -39.283 337 -41 c 0
 334 -55 324 -62 308 -62 c 2
 174 -62 l 2
 159.616 -62 151.698 -55.5347 151.698 -44.7836 c 0
 151.698 -43.5755 151.798 -42.3133 152 -41 c 128
 155 -28 166 -21 183 -21 c 2
 280 -21 l 1
 339 260 l 1
 293 263 261 271 233 284 c 0
 188.367 306.316 162.889 344.104 162.889 385.348 c 0
 162.889 392.156 163.583 399.058 165 406 c 2
 175 453 l 2
 194 543 296 604 426 604 c 2
 626 604 l 2
 639.776 604 647.621 598.069 647.621 588.761 c 0
 647.621 587.259 647.417 585.668 647 584 c 0
 644 571 634 563 618 563 c 2
 557 563 l 1
349 307 m 1
 403 558 l 1
 324 550 256 504 245 451 c 2
 237 414 l 2
 235.947 408.928 235.435 403.919 235.435 399.003 c 0
 235.435 352.543 281.178 314.234 349 307 c 1
EndSplineSet
EndChar
StartChar: periodcentered
Encoding: 118 183 32767
OldEncoding: 183
Width: 600
Flags: W
Fore
369 348 m 2
 379 348 l 2
 412.951 348 435.535 326.78 435.535 296.875 c 0
 435.535 292.429 435.036 287.79 434 283 c 0
 426 245 390 217 351 217 c 2
 341 217 l 2
 307.049 217 284.465 238.978 284.465 269.079 c 0
 284.465 273.555 284.964 278.21 286 283 c 128
 294 320 330 348 369 348 c 2
EndSplineSet
EndChar
StartChar: cedilla
Encoding: 119 184 32767
OldEncoding: 184
Width: 600
Flags: W
HStem: -173 38<255 276> -81 34<277 302> -20 20G<274 312>
DStem: 274 0 312 0 257 -81 302 -47
Fore
274 0 m 1
 312 0 l 1
 302 -47 l 1
 336.84 -47.8498 355.794 -63.8635 355.794 -91.9732 c 0
 355.794 -96.943 355.202 -102.291 354 -108 c 0
 346 -147 308 -173 261 -173 c 0
 241 -173 212 -165 195 -155 c 0
 185.234 -149.303 181.429 -144.931 181.429 -138.11 c 0
 181.429 -136.55 181.628 -134.861 182 -133 c 0
 184 -122 195 -114 206 -114 c 0
 210 -114 213 -115 220 -119 c 0
 239 -131 252 -135 267 -135 c 0
 293 -135 314 -123 317 -106 c 128
 317.469 -104.007 317.704 -102.137 317.704 -100.39 c 0
 317.704 -87.2341 304.365 -81 277 -81 c 2
 257 -81 l 1
 274 0 l 1
EndSplineSet
EndChar
StartChar: onesuperior
Encoding: 120 185 32767
OldEncoding: 185
Width: 600
Flags: W
HStem: 259 37<280 453>
DStem: 403 563 449 612 346 295 382 295
Fore
449 612 m 1
 382 295 l 1
 453 295 l 2
 463.476 295 469.379 289.665 469.379 280.992 c 0
 469.379 279.73 469.254 278.397 469 277 c 128
 467 266 457 259 445 259 c 2
 267 259 l 2
 255.638 259 249.623 264.347 249.623 273.039 c 0
 249.623 274.292 249.748 275.614 250 277 c 0
 253 290 264 296 285 296 c 0
 293 296 324 296 346 295 c 1
 403 563 l 1
 333 542 l 2
 329 541 326 540 324 540 c 0
 316.938 540 310.655 547.014 310.655 554.85 c 0
 310.655 555.89 310.766 556.945 311 558 c 0
 314 573 314 573 449 612 c 1
EndSplineSet
EndChar
StartChar: ordmasculine
Encoding: 121 186 32767
OldEncoding: 186
Width: 600
Flags: W
HStem: 284 37<359 371> 540 37<414 426>
Fore
424 577 m 0
 494.89 577 542.611 528.42 542.611 461.629 c 0
 542.611 451.161 541.439 440.246 539 429 c 0
 522 350 441 284 361 284 c 0
 290.839 284 242.436 333.518 242.436 399.411 c 0
 242.436 409.59 243.591 420.161 246 431 c 0
 263 511 343 577 424 577 c 0
416 540 m 0
 355 540 295 491 283 431 c 0
 281.309 423.068 280.498 415.338 280.498 407.893 c 0
 280.498 358.085 316.802 321 369 321 c 128
 429 321 490 370 502 429 c 0
 503.749 437.341 504.593 445.446 504.593 453.228 c 0
 504.593 503.297 469.66 540 416 540 c 0
EndSplineSet
EndChar
StartChar: guillemotright
Encoding: 122 187 32767
OldEncoding: 187
Width: 600
Flags: W
HStem: 0 21G<78.1312 86.5 308.131 316.5> 397 20G<166.5 175 396.5 405>
Fore
355 208 m 1
 106 11 l 2
 97 3 90 0 83 0 c 0
 73.2625 0 66.6595 7.05269 66.6595 16.3022 c 0
 66.6595 17.5014 66.7705 18.7375 67 20 c 0
 69 27 70 29 83 40 c 2
 260 208 l 1
 154 377 l 2
 148.09 385.127 146.546 388.341 146.546 392.289 c 0
 146.546 393.684 146.739 395.172 147 397 c 0
 150 408 161 417 172 417 c 0
 178 417 184 413 190 406 c 2
 355 208 l 1
585 208 m 1
 336 11 l 2
 327 3 320 0 313 0 c 0
 303.262 0 296.659 7.05269 296.659 16.3022 c 0
 296.659 17.5014 296.77 18.7375 297 20 c 0
 299 27 300 29 313 40 c 2
 490 208 l 1
 384 377 l 2
 378.09 385.127 376.546 388.341 376.546 392.289 c 0
 376.546 393.684 376.739 395.172 377 397 c 0
 380 408 391 417 402 417 c 0
 408 417 414 413 420 406 c 2
 585 208 l 1
EndSplineSet
EndChar
StartChar: onequarter
Encoding: 123 188 32767
OldEncoding: 188
Width: 600
Flags: W
HStem: 0 36<471 518 554 567> 0 129<428 559> 93 36<428 530 573 586> 259 37<105 278>
DStem: 228 563 274 612 171 295 207 295 530 93 566 93 518 36 554 36 562 345 574 309 388 127 428 129 569 502 593 477 131 88 154 63 576 309 619 345 537 129 573 129
Fore
274 612 m 1x10
 207 295 l 1
 278 295 l 2
 289.362 295 295.377 289.653 295.377 280.961 c 0
 295.377 279.708 295.252 278.386 295 277 c 128
 293 266 282 259 270 259 c 2
 92 259 l 2
 80.6379 259 74.623 264.347 74.623 273.039 c 0
 74.623 274.292 74.748 275.614 75 277 c 0
 78 290 89 296 110 296 c 0
 118 296 149 296 171 295 c 1
 228 563 l 1
 158 542 l 2
 154 541 151 540 149 540 c 0
 141.938 540 135.655 547.014 135.655 554.85 c 0
 135.655 555.89 135.766 556.945 136 558 c 0
 139 573 139 573 274 612 c 1x10
593 477 m 1
 154 63 l 2
 144 53 140 51 134 51 c 0
 124.262 51 117.659 58.0527 117.659 67.3022 c 0
 117.659 68.5014 117.77 69.7375 118 71 c 0
 119 75 123 81 131 88 c 2
 569 502 l 2
 580 512 583 514 589 514 c 0
 598.738 514 605.341 506.947 605.341 497.698 c 0
 605.341 496.499 605.23 495.262 605 494 c 0
 604 490 599 483 593 477 c 1
530 93 m 1xb0
 381 93 l 1
 388 127 l 1
 562 345 l 1
 619 345 l 1
 573 129 l 1
 586 129 l 2
 597.528 129 604.338 123.496 604.338 114.579 c 0
 604.338 113.44 604.227 112.246 604 111 c 0
 601 99 591 93 575 93 c 2
 566 93 l 1
 554 36 l 1
 567 36 l 2
 578.362 36 584.377 30.6528 584.377 21.9613 c 0
 584.377 20.7083 584.252 19.3859 584 18 c 128
 581 7 572 0 559 0 c 2
 474 0 l 2
 463.012 0 456.311 5.00063 456.311 13.1905 c 0
 456.311 14.6904 456.536 16.2973 457 18 c 0
 458 25 465 32 471 35 c 0
 477 36 477 36 518 36 c 1
 530 93 l 1xb0
537 129 m 1x50
 576 309 l 1
 574 309 l 1
 428 129 l 1
 537 129 l 1x50
EndSplineSet
Ligature: 8 2 'frac' one slash four
Ligature: 8 2 'frac' one fraction four
EndChar
StartChar: onehalf
Encoding: 124 189 32767
OldEncoding: 189
Width: 600
Flags: W
HStem: 0 36<395 573> 0 59<561 573> 259 37<108 285> 317 36<528 540>
DStem: 235 563 281 612 178 295 214 295 562 502 586 477 124 88 147 63
Fore
586 477 m 1x30
 147 63 l 2
 137 53 133 51 127 51 c 0
 117.262 51 110.659 58.0527 110.659 67.3022 c 0
 110.659 68.5014 110.77 69.7375 111 71 c 0
 112 75 116 81 124 88 c 2
 562 502 l 2
 573 512 576 514 582 514 c 0
 591.738 514 598.341 506.947 598.341 497.698 c 0
 598.341 496.499 598.23 495.262 598 494 c 0
 597 490 592 483 586 477 c 1x30
281 612 m 1
 214 295 l 1
 285 295 l 2
 295.476 295 301.379 289.665 301.379 280.992 c 0
 301.379 279.73 301.254 278.397 301 277 c 128
 299 266 289 259 277 259 c 2
 99 259 l 2
 87.6379 259 81.623 264.347 81.623 273.039 c 0
 81.623 274.292 81.748 275.614 82 277 c 0
 85 290 96 296 117 296 c 0
 125 296 156 296 178 295 c 1
 235 563 l 1
 165 542 l 2
 161 541 158 540 156 540 c 0
 148.938 540 142.655 547.014 142.655 554.85 c 0
 142.655 555.89 142.766 556.945 143 558 c 0
 146 573 146 573 281 612 c 1
395 36 m 1xb0
 545 36 l 1xb0
 545 39 l 2
 548 51 557 59 568 59 c 128x70
 576.887 59 581.857 53.7786 581.857 45.4448 c 0
 581.857 43.4631 581.576 41.3054 581 39 c 2
 573 0 l 1xb0
 343 0 l 1x70
 352 43 l 1
 510 166 l 1
 571 216 584 230 589 252 c 0
 589.727 255.635 590.076 259.216 590.076 262.715 c 0
 590.076 292.908 564.054 317 530 317 c 0
 496 317 461 296 445 265 c 0
 440 254 433 249 424 249 c 128
 416.173 249 410.615 255.051 410.615 262.548 c 0
 410.615 263.671 410.739 264.827 411 266 c 0
 413 277 425 295 439 309 c 0
 467 337 503 353 538 353 c 0
 589.51 353 626.823 315.93 626.823 269.808 c 0
 626.823 263.997 626.231 258.042 625 252 c 0
 615 209 594 189 395 36 c 1xb0
EndSplineSet
Ligature: 8 2 'frac' one slash two
Ligature: 8 2 'frac' one fraction two
EndChar
StartChar: threequarters
Encoding: 125 190 32767
OldEncoding: 190
Width: 600
Flags: W
HStem: 0 36<471 518 554 567> 0 129<428 559> 93 36<428 530 573 585> 251 36<165 188> 431 36<204 228> 576 36<245 257>
DStem: 530 93 566 93 518 36 554 36 562 345 574 309 388 127 428 129 568 502 592 477 130 88 153 63 576 309 619 345 537 129 573 129
Fore
278 446 m 1x1c
 305.524 426.571 319.286 404.522 319.286 377.728 c 0
 319.286 371.424 318.524 364.857 317 358 c 0
 305 299 239 251 173 251 c 0
 125.064 251 70.6929 278.575 70.6929 301.119 c 0
 70.6929 302.09 70.7936 303.051 71 304 c 0
 73 313 82 321 91 321 c 0
 96 321 99 320 103 316 c 0
 129 295 151 287 181 287 c 0
 227 287 273 320 281 358 c 0
 281.994 362.419 282.476 366.741 282.476 370.934 c 0
 282.476 404.693 251.255 430.11 205 431 c 0
 193.472 431.887 186.662 436.705 186.662 445.455 c 0
 186.662 446.573 186.773 447.754 187 449 c 0
 189 455 193 461 200 465 c 0
 203 467 203 467 228 467 c 0
 265 467 297 490 304 520 c 0
 304.616 523.284 304.916 526.484 304.916 529.583 c 0
 304.916 556.674 281.997 576 247 576 c 0
 218 576 191 566 173 549 c 0
 165 541 161 539 155 539 c 0
 146.156 539 139.658 545.258 139.658 552.931 c 0
 139.658 553.933 139.769 554.96 140 556 c 0
 145 581 209 612 255 612 c 0
 307.016 612 341.932 580.91 341.932 537.916 c 0
 341.932 532.143 341.302 526.156 340 520 c 0
 333 490 315 468 278 446 c 1x1c
592 477 m 1
 153 63 l 2
 143 53 139 51 133 51 c 0
 123.262 51 116.659 58.0527 116.659 67.3022 c 0
 116.659 68.5014 116.77 69.7375 117 71 c 0
 118 76 121 80 130 88 c 2
 568 502 l 2
 579 512 582 514 588 514 c 0
 597.738 514 604.341 506.947 604.341 497.698 c 0
 604.341 496.499 604.23 495.262 604 494 c 0
 603 490 598 483 592 477 c 1
530 93 m 1xbc
 381 93 l 1
 388 127 l 1
 562 345 l 1
 619 345 l 1
 573 129 l 1
 586 129 l 2
 597.528 129 604.338 123.496 604.338 114.579 c 0
 604.338 113.44 604.227 112.246 604 111 c 0
 601 99 591 93 575 93 c 2
 566 93 l 1
 554 36 l 1
 567 36 l 2
 578.362 36 584.377 30.6528 584.377 21.9613 c 0
 584.377 20.7083 584.252 19.3859 584 18 c 128
 581 7 572 0 559 0 c 2
 474 0 l 2
 463.012 0 456.311 5.00063 456.311 13.1905 c 0
 456.311 14.6904 456.536 16.2973 457 18 c 0
 458 25 465 32 471 35 c 0
 477 36 477 36 518 36 c 1
 530 93 l 1xbc
537 129 m 1x5c
 576 309 l 1
 574 309 l 1
 428 129 l 1
 537 129 l 1x5c
EndSplineSet
Ligature: 8 2 'frac' three slash four
Ligature: 8 2 'frac' three fraction four
EndChar
StartChar: questiondown
Encoding: 126 191 32767
OldEncoding: 191
Width: 600
Flags: W
HStem: -175 41<248 282> 317 100<362 382>
DStem: 320 196 361 196 311 155 346 128 412 -59 453 -59 404 -100 439 -126
Fore
311 155 m 1
 320 196 l 2
 323 214 332 223 345 223 c 0
 356.405 223 361.837 217.027 361.837 205.081 c 0
 361.837 202.364 361.556 199.336 361 196 c 2
 346 128 l 1
 220 80 162 36 150 -21 c 0
 148.402 -28.5311 147.625 -35.8149 147.625 -42.8096 c 0
 147.625 -97.1142 194.471 -134 268 -134 c 0
 313 -134 345 -126 404 -100 c 1
 412 -59 l 2
 416 -41 425 -32 438 -32 c 0
 448.889 -32 454.333 -37.4444 454.333 -48.3333 c 0
 454.333 -51.4444 453.889 -55 453 -59 c 2
 439 -126 l 1
 428 -131 420 -134 407 -139 c 0
 339 -167 305 -175 254 -175 c 0
 161.781 -175 105.135 -128.073 105.135 -55.29 c 0
 105.135 -44.4139 106.4 -32.9605 109 -21 c 0
 124 53 173 96 311 155 c 1
380 317 m 2
 353 317 l 2
 323.342 317 305.859 332.978 305.859 356.307 c 0
 305.859 359.723 306.234 363.296 307 367 c 128
 313 396 341 417 375 417 c 2
 402 417 l 2
 431.658 417 449.141 401.783 449.141 377.984 c 0
 449.141 374.5 448.766 370.832 448 367 c 128
 442 337 414 317 380 317 c 2
EndSplineSet
EndChar
StartChar: Agrave
Encoding: 127 192 32767
OldEncoding: 192
Width: 600
Flags: W
HStem: 0 41<34 76 117 198 406 493 535 575> 188 41<227 468> 522 41<235 357 246 412>
DStem: 336 749 370 780 429 649 463 680 357 522 397 522 76 41 227 229 357 522 202 188 76 41 117 41 412 522 450 563 462 229 536 41 468 188 450 563 493 41 536 41
Fore
468 188 m 1
 202 188 l 1
 117 41 l 1
 196 41 l 2
 211.32 41 218.672 35.9293 218.672 26.4044 c 0
 218.672 24.7382 218.447 22.9356 218 21 c 0
 215 7 205 0 187 0 c 2
 36 0 l 2
 20.47 0 12.3838 5.21073 12.3838 15.6322 c 0
 12.3838 17.2897 12.5883 19.0789 13 21 c 0
 16 34 27 41 45 41 c 2
 76 41 l 1
 357 522 l 1
 237 522 l 2
 221.47 522 213.384 527.211 213.384 537.632 c 0
 213.384 539.29 213.588 541.079 214 543 c 0
 217 556 228 563 246 563 c 2
 450 563 l 1
 536 41 l 1
 573 41 l 2
 588.32 41 595.672 35.9293 595.672 26.4044 c 0
 595.672 24.7382 595.447 22.9356 595 21 c 0
 592 7 582 0 564 0 c 2
 408 0 l 2
 392.47 0 384.384 5.21073 384.384 15.6322 c 0
 384.384 17.2897 384.588 19.0789 385 21 c 0
 388 34 399 41 417 41 c 2
 493 41 l 1
 468 188 l 1
462 229 m 1
 412 522 l 1
 397 522 l 1
 227 229 l 1
 462 229 l 1
370 780 m 2
 463 680 l 1
 468 672 l 2
 470.343 669.071 471.314 667.858 471.314 666.149 c 0
 471.314 664.941 470.828 663.485 470 661 c 0
 468 649 457 640 445 640 c 0
 440 640 435 643 429 649 c 2
 336 749 l 2
 330.108 755.734 327.759 759.633 327.759 765.47 c 0
 327.759 766.567 327.842 767.734 328 769 c 0
 331 780 342 789 353 789 c 0
 359 789 363 786 370 780 c 2
EndSplineSet
EndChar
StartChar: Aacute
Encoding: 128 193 32767
OldEncoding: 193
Width: 600
Flags: W
HStem: 0 41<34 76 117 198 406 493 535 575> 188 41<227 468> 522 41<235 357 246 412>
DStem: 357 522 397 522 76 41 227 229 357 522 202 188 76 41 117 41 412 522 450 563 462 229 536 41 468 188 450 563 493 41 536 41 510 780 530 749 375 680 395 649
Fore
468 188 m 1
 202 188 l 1
 117 41 l 1
 196 41 l 2
 211.32 41 218.672 35.9293 218.672 26.4044 c 0
 218.672 24.7382 218.447 22.9356 218 21 c 0
 215 7 205 0 187 0 c 2
 36 0 l 2
 20.47 0 12.3838 5.21073 12.3838 15.6322 c 0
 12.3838 17.2897 12.5883 19.0789 13 21 c 0
 16 34 27 41 45 41 c 2
 76 41 l 1
 357 522 l 1
 237 522 l 2
 221.47 522 213.384 527.211 213.384 537.632 c 0
 213.384 539.29 213.588 541.079 214 543 c 0
 217 556 228 563 246 563 c 2
 450 563 l 1
 536 41 l 1
 573 41 l 2
 588.32 41 595.672 35.9293 595.672 26.4044 c 0
 595.672 24.7382 595.447 22.9356 595 21 c 0
 592 7 582 0 564 0 c 2
 408 0 l 2
 392.47 0 384.384 5.21073 384.384 15.6322 c 0
 384.384 17.2897 384.588 19.0789 385 21 c 0
 388 34 399 41 417 41 c 2
 493 41 l 1
 468 188 l 1
462 229 m 1
 412 522 l 1
 397 522 l 1
 227 229 l 1
 462 229 l 1
530 749 m 2
 395 649 l 2
 384 642 380 640 374 640 c 0
 364.262 640 357.659 647.053 357.659 656.996 c 0
 357.659 658.285 357.77 659.623 358 661 c 0
 360 668 363 671 375 680 c 2
 510 780 l 2
 520 787 525 789 531 789 c 0
 540.268 789 546.697 782.611 546.697 773.421 c 0
 546.697 771.704 546.472 769.889 546 768 c 0
 545 761 541 757 530 749 c 2
EndSplineSet
EndChar
StartChar: Acircumflex
Encoding: 129 194 32767
OldEncoding: 194
Width: 600
Flags: W
HStem: 0 41<34 76 117 198 406 493 535 575> 188 41<227 468> 522 41<235 357 246 412>
DStem: 357 522 397 522 76 41 227 229 357 522 202 188 76 41 117 41 412 522 450 563 462 229 536 41 429 736 441 789 518 648 550 681 441 789 429 736 286 680 304 648 468 188 450 563 493 41 536 41
Fore
468 188 m 1
 202 188 l 1
 117 41 l 1
 196 41 l 2
 211.32 41 218.672 35.9293 218.672 26.4044 c 0
 218.672 24.7382 218.447 22.9356 218 21 c 0
 215 7 205 0 187 0 c 2
 36 0 l 2
 20.47 0 12.3838 5.21073 12.3838 15.6322 c 0
 12.3838 17.2897 12.5883 19.0789 13 21 c 0
 16 34 27 41 45 41 c 2
 76 41 l 1
 357 522 l 1
 237 522 l 2
 221.47 522 213.384 527.211 213.384 537.632 c 0
 213.384 539.29 213.588 541.079 214 543 c 0
 217 556 228 563 246 563 c 2
 450 563 l 1
 536 41 l 1
 573 41 l 2
 588.32 41 595.672 35.9293 595.672 26.4044 c 0
 595.672 24.7382 595.447 22.9356 595 21 c 0
 592 7 582 0 564 0 c 2
 408 0 l 2
 392.47 0 384.384 5.21073 384.384 15.6322 c 0
 384.384 17.2897 384.588 19.0789 385 21 c 0
 388 34 399 41 417 41 c 2
 493 41 l 1
 468 188 l 1
462 229 m 1
 412 522 l 1
 397 522 l 1
 227 229 l 1
 462 229 l 1
441 789 m 1
 550 681 l 2
 556.554 674.446 558.866 670.544 558.866 665.817 c 0
 558.866 664.053 558.544 662.174 558 660 c 0
 556 649 545 640 534 640 c 0
 529 640 524 643 518 648 c 2
 429 736 l 1
 304 648 l 2
 296 643 289 640 284 640 c 0
 274.262 640 267.659 647.053 267.659 656.302 c 0
 267.659 657.501 267.77 658.737 268 660 c 0
 270 668 274 673 286 680 c 1
 441 789 l 1
EndSplineSet
EndChar
StartChar: Atilde
Encoding: 130 195 32767
OldEncoding: 195
Width: 600
Flags: W
HStem: 0 41<34 76 117 198 406 493 535 575> 188 41<227 468> 522 41<235 357 246 412> 666 41<475 487> 714 41<358 374>
DStem: 357 522 397 522 76 41 227 229 357 522 202 188 76 41 117 41 412 522 450 563 462 229 536 41 468 188 450 563 493 41 536 41
Fore
468 188 m 1
 202 188 l 1
 117 41 l 1
 196 41 l 2
 211.32 41 218.672 35.9293 218.672 26.4044 c 0
 218.672 24.7382 218.447 22.9356 218 21 c 0
 215 7 205 0 187 0 c 2
 36 0 l 2
 20.47 0 12.3838 5.21073 12.3838 15.6322 c 0
 12.3838 17.2897 12.5883 19.0789 13 21 c 0
 16 34 27 41 45 41 c 2
 76 41 l 1
 357 522 l 1
 237 522 l 2
 221.47 522 213.384 527.211 213.384 537.632 c 0
 213.384 539.29 213.588 541.079 214 543 c 0
 217 556 228 563 246 563 c 2
 450 563 l 1
 536 41 l 1
 573 41 l 2
 588.32 41 595.672 35.9293 595.672 26.4044 c 0
 595.672 24.7382 595.447 22.9356 595 21 c 0
 592 7 582 0 564 0 c 2
 408 0 l 2
 392.47 0 384.384 5.21073 384.384 15.6322 c 0
 384.384 17.2897 384.588 19.0789 385 21 c 0
 388 34 399 41 417 41 c 2
 493 41 l 1
 468 188 l 1
462 229 m 1
 412 522 l 1
 397 522 l 1
 227 229 l 1
 462 229 l 1
568 753 m 0
 576.956 753 584.309 745.78 584.309 736.37 c 0
 584.309 735.274 584.209 734.148 584 733 c 0
 582 725 577 719 555 702 c 0
 524 676 502 666 479 666 c 0
 457 666 439 673 404 697 c 0
 387 710 377 714 365 714 c 0
 345 714 334 708 299 677 c 0
 294 672 286 669 280 669 c 0
 270.262 669 263.659 675.269 263.659 684.339 c 0
 263.659 685.515 263.77 686.737 264 688 c 0
 266 696 274 705 290 718 c 0
 324 745 347 755 372 755 c 0
 392 755 404 751 432 732 c 0
 465 711 472 707 485 707 c 0
 502 707 514 714 550 745 c 0
 558 751 562 753 568 753 c 0
EndSplineSet
EndChar
StartChar: Adieresis
Encoding: 131 196 32767
OldEncoding: 196
Width: 600
Flags: W
HStem: 0 41<34 76 117 198 406 493 535 575> 188 41<227 468> 522 41<235 357 246 412> 661 100<302 324 524 545>
DStem: 357 522 397 522 76 41 227 229 357 522 202 188 76 41 117 41 412 522 450 563 462 229 536 41 468 188 450 563 493 41 536 41
Fore
468 188 m 1
 202 188 l 1
 117 41 l 1
 196 41 l 2
 211.32 41 218.672 35.9293 218.672 26.4044 c 0
 218.672 24.7382 218.447 22.9356 218 21 c 0
 215 7 205 0 187 0 c 2
 36 0 l 2
 20.47 0 12.3838 5.21073 12.3838 15.6322 c 0
 12.3838 17.2897 12.5883 19.0789 13 21 c 0
 16 34 27 41 45 41 c 2
 76 41 l 1
 357 522 l 1
 237 522 l 2
 221.47 522 213.384 527.211 213.384 537.632 c 0
 213.384 539.29 213.588 541.079 214 543 c 0
 217 556 228 563 246 563 c 2
 450 563 l 1
 536 41 l 1
 573 41 l 2
 588.32 41 595.672 35.9293 595.672 26.4044 c 0
 595.672 24.7382 595.447 22.9356 595 21 c 0
 592 7 582 0 564 0 c 2
 408 0 l 2
 392.47 0 384.384 5.21073 384.384 15.6322 c 0
 384.384 17.2897 384.588 19.0789 385 21 c 0
 388 34 399 41 417 41 c 2
 493 41 l 1
 468 188 l 1
462 229 m 1
 412 522 l 1
 397 522 l 1
 227 229 l 1
 462 229 l 1
324 761 m 0
 348.214 761 364.202 743.799 364.202 721.038 c 0
 364.202 717.48 363.811 713.786 363 710 c 0
 357 684 330 661 302 661 c 128
 279.268 661 261.887 678.582 261.887 701.047 c 0
 261.887 704.276 262.246 707.606 263 711 c 128
 269 738 297 761 324 761 c 0
545 761 m 0
 569.214 761 585.202 743.799 585.202 721.038 c 0
 585.202 717.48 584.811 713.786 584 710 c 0
 578 684 550 661 524 661 c 128
 499.638 661 482.846 678.412 482.846 700.72 c 0
 482.846 704.052 483.22 707.492 484 711 c 128
 490 738 518 761 545 761 c 0
EndSplineSet
EndChar
StartChar: Aring
Encoding: 132 197 32767
OldEncoding: 197
Width: 600
Flags: W
HStem: 0 41<34 76 117 198 406 492 535 575> 188 41<227 468> 522 41<235 357 246 412> 630 33<407 420> 778 33<440 453>
DStem: 357 522 397 522 76 41 227 229 357 522 202 188 76 41 117 41 412 522 450 563 462 229 536 41 468 188 450 563 493 41 536 41
Fore
468 188 m 1
 202 188 l 1
 117 41 l 1
 196 41 l 2
 211.32 41 218.672 35.9293 218.672 26.4044 c 0
 218.672 24.7382 218.447 22.9356 218 21 c 0
 215 7 205 0 187 0 c 2
 36 0 l 2
 20.47 0 12.3838 5.21073 12.3838 15.6322 c 0
 12.3838 17.2897 12.5883 19.0789 13 21 c 0
 16 34 27 41 45 41 c 2
 76 41 l 1
 357 522 l 1
 237 522 l 2
 221.47 522 213.384 527.211 213.384 537.632 c 0
 213.384 539.29 213.588 541.079 214 543 c 0
 217 556 228 563 246 563 c 2
 450 563 l 1
 536 41 l 1
 573 41 l 2
 588.32 41 595.672 35.9293 595.672 26.4044 c 0
 595.672 24.7382 595.447 22.9356 595 21 c 0
 592 7 582 0 564 0 c 2
 408 0 l 2
 392.47 0 384.384 5.21073 384.384 15.6322 c 0
 384.384 17.2897 384.588 19.0789 385 21 c 0
 388 34 399 41 417 41 c 2
 493 41 l 1
 468 188 l 1
462 229 m 1
 412 522 l 1
 397 522 l 1
 227 229 l 1
 462 229 l 1
449 811 m 0
 494.251 811 525.114 780.709 525.114 738.579 c 0
 525.114 732.296 524.428 725.749 523 719 c 0
 513 671 462 630 411 630 c 128
 366.146 630 335.214 661.714 335.214 703.373 c 0
 335.214 709.081 335.795 714.975 337 721 c 0
 348 770 398 811 449 811 c 0
442 778 m 0
 409 778 377 752 370 721 c 0
 369.121 716.981 368.699 713.057 368.699 709.267 c 0
 368.699 682.88 389.144 663 418 663 c 128
 451 663 483 689 490 720 c 0
 490.879 724.019 491.301 727.943 491.301 731.733 c 0
 491.301 758.12 470.856 778 442 778 c 0
EndSplineSet
EndChar
StartChar: AE
Encoding: 133 198 32767
OldEncoding: 198
Width: 600
Flags: W
HStem: 0 41<35 83 124 152 243 306 347 590> 189 41<216 337> 219 95<405 483> 273 41<405 474> 522 41<253 318 264 408 264 640>
DStem: 318 522 358 522 83 41 216 230 318 522 196 189 83 41 124 41 337 189 396 273 306 41 347 41 408 522 449 522 346 230 405 314 577 134 618 134 558 41 590 0 640 522 690 563 616 411 657 411
Fore
337 189 m 1xd8
 196 189 l 1xd8
 124 41 l 1
 150 41 l 2
 165.32 41 172.672 35.9293 172.672 26.4044 c 0
 172.672 24.7382 172.447 22.9356 172 21 c 0
 169 7 159 0 141 0 c 2
 37 0 l 2
 21.47 0 13.3838 5.21073 13.3838 15.6322 c 0
 13.3838 17.2897 13.5883 19.0789 14 21 c 0
 17 34 28 41 46 41 c 2
 83 41 l 1
 318 522 l 1
 255 522 l 2
 239.47 522 231.384 527.211 231.384 537.632 c 0
 231.384 539.29 231.588 541.079 232 543 c 0
 235 556 246 563 264 563 c 2
 690 563 l 1
 657 411 l 2
 654 393 645 384 631 384 c 0
 620.438 384 615.156 389.941 615.156 401.824 c 0
 615.156 404.566 615.438 407.625 616 411 c 2
 640 522 l 1
 449 522 l 1
 405 314 l 1
 483 314 l 1
 489 342 l 2
 493 360 501 369 514 369 c 0
 524.889 369 530.333 363.556 530.333 352.667 c 0
 530.333 349.556 529.889 346 529 342 c 2
 508 246 l 2
 504 228 496 219 483 219 c 128xa8
 472.438 219 467.156 225.602 467.156 237.196 c 0
 467.156 239.871 467.438 242.812 468 246 c 2
 474 273 l 1
 396 273 l 1
 347 41 l 1
 558 41 l 1
 577 134 l 2
 582 153 589 160 603 160 c 0
 613.317 160 619.225 153.072 619.225 142.715 c 0
 619.225 140.021 618.826 137.096 618 134 c 2
 590 0 l 1
 245 0 l 2
 229.47 0 221.384 5.21073 221.384 15.6322 c 0
 221.384 17.2897 221.588 19.0789 222 21 c 0
 225 34 236 41 254 41 c 2
 306 41 l 1
 337 189 l 1xd8
346 230 m 1
 408 522 l 1
 358 522 l 1
 216 230 l 1
 346 230 l 1
EndSplineSet
EndChar
StartChar: Ccedilla
Encoding: 134 199 32767
OldEncoding: 199
Width: 600
Flags: W
HStem: -173 38<260 282> -81 34<282 307> -16 41<327 334> 535 41<412 429>
DStem: 132 325 172 319 114 242 157 248
Fore
314 -16 m 1
 307 -47 l 1
 341.84 -47.8498 360.794 -63.8635 360.794 -91.9732 c 0
 360.794 -96.943 360.202 -102.291 359 -108 c 0
 351 -147 313 -173 266 -173 c 0
 246 -173 217 -165 200 -155 c 0
 190.234 -149.303 186.429 -144.931 186.429 -138.11 c 0
 186.429 -136.55 186.628 -134.861 187 -133 c 0
 189 -122 200 -114 211 -114 c 0
 214 -114 218 -115 225 -119 c 0
 245 -131 257 -135 272 -135 c 0
 298 -135 319 -123 322 -106 c 128
 322.469 -104.007 322.704 -102.137 322.704 -100.39 c 0
 322.704 -87.2341 309.365 -81 282 -81 c 2
 262 -81 l 1
 276 -12 l 1
 235 -1 213 8 189 28 c 0
 138.557 68.6802 109.295 131.205 109.295 196.724 c 0
 109.295 211.734 110.831 226.902 114 242 c 2
 132 325 l 2
 145 386 188 456 241 502 c 0
 296 550 360 576 427 576 c 0
 493 576 548 552 586 507 c 1
 592 536 l 2
 596 554 605 563 619 563 c 0
 629.075 563 634.345 557.595 634.345 546.785 c 0
 634.345 543.646 633.9 540.051 633 536 c 2
 609 424 l 2
 605 406 596 397 582 397 c 0
 571.714 397 566.571 402.878 566.571 414.633 c 0
 566.571 416.592 566.714 418.714 567 421 c 0
 567.538 424.644 567.801 428.26 567.801 431.837 c 0
 567.801 488.143 502.683 535 419 535 c 0
 308 535 197 438 172 319 c 2
 157 248 l 2
 153.614 232.374 151.992 217.036 151.992 202.176 c 0
 151.992 102.922 224.366 25 327 25 c 0
 396 25 453 51 520 115 c 0
 529 123 534 125 541 125 c 0
 551.476 125 557.379 118.903 557.379 110.036 c 0
 557.379 108.746 557.254 107.397 557 106 c 0
 554 96 539 79 508 55 c 0
 453 12 382 -16 327 -16 c 2
 314 -16 l 1
EndSplineSet
EndChar
StartChar: Egrave
Encoding: 135 200 32767
OldEncoding: 200
Width: 600
Flags: W
HStem: 0 41<68 133 174 520> 200 113<232 378> 272 41<232 368> 522 41<179 234 190 569>
DStem: 235 522 276 522 133 41 232 313 235 522 223 272 133 41 174 41 347 749 381 780 440 649 474 680 368 272 427 358 358 227 399 227 386 358 427 358 377 313 399 227 513 160 554 160 488 41 520 0 569 522 619 563 548 424 589 424
Fore
223 272 m 1xb0
 174 41 l 1
 488 41 l 1
 513 160 l 2
 517 178 526 187 540 187 c 0
 550.075 187 555.345 181.595 555.345 170.785 c 0
 555.345 167.646 554.9 164.051 554 160 c 2
 520 0 l 1
 70 0 l 2
 54.47 0 46.3838 5.21073 46.3838 15.6322 c 0
 46.3838 17.2897 46.5883 19.0789 47 21 c 0
 50 34 61 41 79 41 c 2
 133 41 l 1
 235 522 l 1
 181 522 l 2
 165.47 522 157.384 527.211 157.384 537.632 c 0
 157.384 539.29 157.588 541.079 158 543 c 0
 161 556 172 563 190 563 c 2
 619 563 l 1
 589 424 l 2
 585 406 576 397 562 397 c 0
 551.925 397 546.655 402.405 546.655 413.215 c 0
 546.655 416.354 547.1 419.949 548 424 c 2
 569 522 l 1
 276 522 l 1
 232 313 l 1
 377 313 l 1
 386 358 l 2
 390 376 399 385 413 385 c 0
 423.075 385 428.345 379.595 428.345 368.785 c 0
 428.345 365.646 427.9 362.051 427 358 c 2
 399 227 l 2
 395 209 387 200 374 200 c 0xd0
 362.858 200 356.784 205.7 356.784 217.1 c 0
 356.784 220.025 357.183 223.325 358 227 c 2
 368 272 l 1
 223 272 l 1xb0
381 780 m 2
 474 680 l 1
 479 672 l 2
 481.667 668.667 482.556 667.556 482.556 665.407 c 0
 482.556 664.333 482.333 663 482 661 c 0
 479 649 468 640 456 640 c 0
 451 640 446 643 440 649 c 2
 347 749 l 2
 341.108 755.734 338.759 759.633 338.759 765.47 c 0
 338.759 766.567 338.842 767.734 339 769 c 0
 342 780 353 789 364 789 c 0
 370 789 374 786 381 780 c 2
EndSplineSet
EndChar
StartChar: Eacute
Encoding: 136 201 32767
OldEncoding: 201
Width: 600
Flags: W
HStem: 0 41<68 133 174 520> 200 113<232 378> 272 41<232 368> 522 41<179 234 190 569>
DStem: 235 522 276 522 133 41 232 313 235 522 223 272 133 41 174 41 368 272 427 358 358 227 399 227 386 358 427 358 377 313 399 227 513 160 554 160 488 41 520 0 528 780 548 749 393 680 413 649 569 522 619 563 548 424 589 424
Fore
223 272 m 1xb0
 174 41 l 1
 488 41 l 1
 513 160 l 2
 517 178 526 187 540 187 c 0
 550.075 187 555.345 181.595 555.345 170.785 c 0
 555.345 167.646 554.9 164.051 554 160 c 2
 520 0 l 1
 70 0 l 2
 54.47 0 46.3838 5.21073 46.3838 15.6322 c 0
 46.3838 17.2897 46.5883 19.0789 47 21 c 0
 50 34 61 41 79 41 c 2
 133 41 l 1
 235 522 l 1
 181 522 l 2
 165.47 522 157.384 527.211 157.384 537.632 c 0
 157.384 539.29 157.588 541.079 158 543 c 0
 161 556 172 563 190 563 c 2
 619 563 l 1
 589 424 l 2
 585 406 576 397 562 397 c 0
 551.925 397 546.655 402.405 546.655 413.215 c 0
 546.655 416.354 547.1 419.949 548 424 c 2
 569 522 l 1
 276 522 l 1
 232 313 l 1
 377 313 l 1
 386 358 l 2
 390 376 399 385 413 385 c 0
 423.075 385 428.345 379.595 428.345 368.785 c 0
 428.345 365.646 427.9 362.051 427 358 c 2
 399 227 l 2
 395 209 387 200 374 200 c 0xd0
 362.858 200 356.784 205.7 356.784 217.1 c 0
 356.784 220.025 357.183 223.325 358 227 c 2
 368 272 l 1
 223 272 l 1xb0
548 749 m 2
 413 649 l 2
 402 642 398 640 392 640 c 0
 382.262 640 375.659 647.053 375.659 656.996 c 0
 375.659 658.285 375.77 659.623 376 661 c 0
 378 668 381 671 393 680 c 2
 528 780 l 2
 538 787 543 789 549 789 c 0
 558.268 789 564.697 782.611 564.697 773.421 c 0
 564.697 771.704 564.472 769.889 564 768 c 0
 563 761 559 757 548 749 c 2
EndSplineSet
EndChar
StartChar: Ecircumflex
Encoding: 137 202 32767
OldEncoding: 202
Width: 600
Flags: W
HStem: 0 41<68 133 174 520> 200 113<232 378> 272 41<232 368> 522 41<179 234 190 569>
DStem: 235 522 276 522 133 41 232 313 235 522 223 272 133 41 174 41 368 272 427 358 358 227 399 227 386 358 427 358 377 313 399 227 447 736 459 789 536 648 568 681 459 789 447 736 304 680 322 648 513 160 554 160 488 41 520 0 569 522 619 563 548 424 589 424
Fore
223 272 m 1xb0
 174 41 l 1
 488 41 l 1
 513 160 l 2
 517 178 526 187 540 187 c 0
 550.075 187 555.345 181.595 555.345 170.785 c 0
 555.345 167.646 554.9 164.051 554 160 c 2
 520 0 l 1
 70 0 l 2
 54.47 0 46.3838 5.21073 46.3838 15.6322 c 0
 46.3838 17.2897 46.5883 19.0789 47 21 c 0
 50 34 61 41 79 41 c 2
 133 41 l 1
 235 522 l 1
 181 522 l 2
 165.47 522 157.384 527.211 157.384 537.632 c 0
 157.384 539.29 157.588 541.079 158 543 c 0
 161 556 172 563 190 563 c 2
 619 563 l 1
 589 424 l 2
 585 406 576 397 562 397 c 0
 551.925 397 546.655 402.405 546.655 413.215 c 0
 546.655 416.354 547.1 419.949 548 424 c 2
 569 522 l 1
 276 522 l 1
 232 313 l 1
 377 313 l 1
 386 358 l 2
 390 376 399 385 413 385 c 0
 423.075 385 428.345 379.595 428.345 368.785 c 0
 428.345 365.646 427.9 362.051 427 358 c 2
 399 227 l 2
 395 209 387 200 374 200 c 0xd0
 362.858 200 356.784 205.7 356.784 217.1 c 0
 356.784 220.025 357.183 223.325 358 227 c 2
 368 272 l 1
 223 272 l 1xb0
459 789 m 1
 568 681 l 2
 574.554 674.446 576.866 670.544 576.866 665.817 c 0
 576.866 664.053 576.544 662.174 576 660 c 0
 574 649 563 640 552 640 c 0
 547 640 542 643 536 648 c 2
 447 736 l 1
 322 648 l 2
 314 643 307 640 302 640 c 0
 292.262 640 285.659 647.053 285.659 656.302 c 0
 285.659 657.501 285.77 658.737 286 660 c 0
 288 668 292 673 304 680 c 1
 459 789 l 1
EndSplineSet
EndChar
StartChar: Edieresis
Encoding: 138 203 32767
OldEncoding: 203
Width: 600
Flags: W
HStem: 0 41<68 133 174 520> 200 113<232 378> 272 41<232 368> 522 41<179 234 190 569> 661 100<322 343 542 564>
DStem: 235 522 276 522 133 41 232 313 235 522 223 272 133 41 174 41 368 272 427 358 358 227 399 227 386 358 427 358 377 313 399 227 513 160 554 160 488 41 520 0 569 522 619 563 548 424 589 424
Fore
223 272 m 1xb8
 174 41 l 1
 488 41 l 1
 513 160 l 2
 517 178 526 187 540 187 c 0
 550.075 187 555.345 181.595 555.345 170.785 c 0
 555.345 167.646 554.9 164.051 554 160 c 2
 520 0 l 1
 70 0 l 2
 54.47 0 46.3838 5.21073 46.3838 15.6322 c 0
 46.3838 17.2897 46.5883 19.0789 47 21 c 0
 50 34 61 41 79 41 c 2
 133 41 l 1
 235 522 l 1
 181 522 l 2
 165.47 522 157.384 527.211 157.384 537.632 c 0
 157.384 539.29 157.588 541.079 158 543 c 0
 161 556 172 563 190 563 c 2
 619 563 l 1
 589 424 l 2
 585 406 576 397 562 397 c 0
 551.925 397 546.655 402.405 546.655 413.215 c 0
 546.655 416.354 547.1 419.949 548 424 c 2
 569 522 l 1
 276 522 l 1
 232 313 l 1
 377 313 l 1
 386 358 l 2
 390 376 399 385 413 385 c 0
 423.075 385 428.345 379.595 428.345 368.785 c 0
 428.345 365.646 427.9 362.051 427 358 c 2
 399 227 l 2
 395 209 387 200 374 200 c 0xd8
 362.858 200 356.784 205.7 356.784 217.1 c 0
 356.784 220.025 357.183 223.325 358 227 c 2
 368 272 l 1
 223 272 l 1xb8
343 761 m 0
 367.214 761 383.202 743.799 383.202 721.038 c 0
 383.202 717.48 382.811 713.786 382 710 c 0
 376 684 348 661 322 661 c 128
 297.638 661 280.846 678.412 280.846 700.72 c 0
 280.846 704.052 281.22 707.492 282 711 c 128
 288 738 316 761 343 761 c 0
564 761 m 0
 588.214 761 604.202 743.799 604.202 721.038 c 0
 604.202 717.48 603.811 713.786 603 710 c 0
 597 684 570 661 542 661 c 128
 519.268 661 501.887 678.582 501.887 701.047 c 0
 501.887 704.276 502.246 707.606 503 711 c 128
 509 738 537 761 564 761 c 0
EndSplineSet
EndChar
StartChar: Igrave
Encoding: 139 204 32767
OldEncoding: 204
Width: 600
Flags: W
HStem: 0 41<138 288 329 470> 522 41<249 389 260 581>
DStem: 362 749 396 780 455 649 489 680 390 522 431 522 288 41 329 41
Fore
431 522 m 1
 329 41 l 1
 468 41 l 2
 484.192 41 491.668 35.9165 491.668 26.3683 c 0
 491.668 24.7121 491.443 22.9216 491 21 c 0
 488 7 477 0 459 0 c 2
 140 0 l 2
 124.47 0 116.384 5.21073 116.384 15.6322 c 0
 116.384 17.2897 116.588 19.0789 117 21 c 0
 120 34 131 41 149 41 c 2
 288 41 l 1
 390 522 l 1
 251 522 l 2
 235.47 522 227.384 527.211 227.384 537.632 c 0
 227.384 539.29 227.588 541.079 228 543 c 0
 231 556 242 563 260 563 c 2
 579 563 l 2
 595.192 563 602.668 557.916 602.668 548.368 c 0
 602.668 546.712 602.443 544.922 602 543 c 0
 599 529 589 522 570 522 c 2
 431 522 l 1
396 780 m 2
 489 680 l 1
 494 672 l 2
 496.343 669.071 497.314 667.858 497.314 666.149 c 0
 497.314 664.941 496.828 663.485 496 661 c 0
 494 649 483 640 471 640 c 0
 466 640 461 643 455 649 c 2
 362 749 l 2
 356.108 755.734 353.759 759.633 353.759 765.47 c 0
 353.759 766.567 353.842 767.734 354 769 c 0
 357 780 368 789 379 789 c 0
 385 789 389 786 396 780 c 2
EndSplineSet
EndChar
StartChar: Iacute
Encoding: 140 205 32767
OldEncoding: 205
Width: 600
Flags: W
HStem: 0 41<138 288 329 470> 522 41<249 389 260 581>
DStem: 390 522 431 522 288 41 329 41 572 780 592 749 437 680 457 649
Fore
431 522 m 1
 329 41 l 1
 468 41 l 2
 484.192 41 491.668 35.9165 491.668 26.3683 c 0
 491.668 24.7121 491.443 22.9216 491 21 c 0
 488 7 477 0 459 0 c 2
 140 0 l 2
 124.47 0 116.384 5.21073 116.384 15.6322 c 0
 116.384 17.2897 116.588 19.0789 117 21 c 0
 120 34 131 41 149 41 c 2
 288 41 l 1
 390 522 l 1
 251 522 l 2
 235.47 522 227.384 527.211 227.384 537.632 c 0
 227.384 539.29 227.588 541.079 228 543 c 0
 231 556 242 563 260 563 c 2
 579 563 l 2
 595.192 563 602.668 557.916 602.668 548.368 c 0
 602.668 546.712 602.443 544.922 602 543 c 0
 599 529 589 522 570 522 c 2
 431 522 l 1
592 749 m 2
 457 649 l 2
 446 642 442 640 436 640 c 0
 426.262 640 419.659 647.053 419.659 656.996 c 0
 419.659 658.285 419.77 659.623 420 661 c 0
 422 668 425 671 437 680 c 2
 572 780 l 2
 582 787 587 789 593 789 c 0
 602.268 789 608.697 782.611 608.697 773.421 c 0
 608.697 771.704 608.472 769.889 608 768 c 0
 607 761 603 757 592 749 c 2
EndSplineSet
EndChar
StartChar: Icircumflex
Encoding: 141 206 32767
OldEncoding: 206
Width: 600
Flags: W
HStem: 0 41<138 288 329 470> 522 41<249 389 260 581>
DStem: 390 522 431 522 288 41 329 41 456 736 468 789 545 648 577 681 468 789 456 736 313 680 331 648
Fore
431 522 m 1
 329 41 l 1
 468 41 l 2
 484.192 41 491.668 35.9165 491.668 26.3683 c 0
 491.668 24.7121 491.443 22.9216 491 21 c 0
 488 7 477 0 459 0 c 2
 140 0 l 2
 124.47 0 116.384 5.21073 116.384 15.6322 c 0
 116.384 17.2897 116.588 19.0789 117 21 c 0
 120 34 131 41 149 41 c 2
 288 41 l 1
 390 522 l 1
 251 522 l 2
 235.47 522 227.384 527.211 227.384 537.632 c 0
 227.384 539.29 227.588 541.079 228 543 c 0
 231 556 242 563 260 563 c 2
 579 563 l 2
 595.192 563 602.668 557.916 602.668 548.368 c 0
 602.668 546.712 602.443 544.922 602 543 c 0
 599 529 589 522 570 522 c 2
 431 522 l 1
468 789 m 1
 577 681 l 2
 583.554 674.446 585.866 670.544 585.866 665.817 c 0
 585.866 664.053 585.544 662.174 585 660 c 0
 583 649 572 640 561 640 c 0
 556 640 551 643 545 648 c 2
 456 736 l 1
 331 648 l 2
 323 643 316 640 311 640 c 0
 301.262 640 294.659 647.053 294.659 656.302 c 0
 294.659 657.501 294.77 658.737 295 660 c 0
 297 668 301 673 313 680 c 1
 468 789 l 1
EndSplineSet
EndChar
StartChar: Idieresis
Encoding: 142 207 32767
OldEncoding: 207
Width: 600
Flags: W
HStem: 0 41<138 288 329 470> 522 41<249 389 260 581> 661 100<330 351 552 573>
DStem: 390 522 431 522 288 41 329 41
Fore
431 522 m 1
 329 41 l 1
 468 41 l 2
 484.192 41 491.668 35.9165 491.668 26.3683 c 0
 491.668 24.7121 491.443 22.9216 491 21 c 0
 488 7 477 0 459 0 c 2
 140 0 l 2
 124.47 0 116.384 5.21073 116.384 15.6322 c 0
 116.384 17.2897 116.588 19.0789 117 21 c 0
 120 34 131 41 149 41 c 2
 288 41 l 1
 390 522 l 1
 251 522 l 2
 235.47 522 227.384 527.211 227.384 537.632 c 0
 227.384 539.29 227.588 541.079 228 543 c 0
 231 556 242 563 260 563 c 2
 579 563 l 2
 595.192 563 602.668 557.916 602.668 548.368 c 0
 602.668 546.712 602.443 544.922 602 543 c 0
 599 529 589 522 570 522 c 2
 431 522 l 1
351 761 m 0
 375.214 761 391.202 743.799 391.202 721.038 c 0
 391.202 717.48 390.811 713.786 390 710 c 0
 384 684 356 661 330 661 c 128
 305.638 661 288.846 678.412 288.846 700.72 c 0
 288.846 704.052 289.22 707.492 290 711 c 128
 296 738 324 761 351 761 c 0
573 761 m 0
 597.214 761 613.202 743.799 613.202 721.038 c 0
 613.202 717.48 612.811 713.786 612 710 c 0
 606 684 578 661 552 661 c 128
 527.638 661 510.846 678.412 510.846 700.72 c 0
 510.846 704.052 511.22 707.492 512 711 c 128
 518 738 546 761 573 761 c 0
EndSplineSet
EndChar
StartChar: Eth
Encoding: 143 208 32767
OldEncoding: 208
Width: 600
Flags: W
HStem: 0 41<68 113 154 307> 272 41<83 162 212 376> 522 41<179 214 190 415>
DStem: 162 272 203 272 113 41 154 41 215 522 256 522 171 313 212 313 547 319 586 310 531 245 574 254
Fore
162 272 m 1
 85 272 l 2
 69.47 272 61.3838 277.211 61.3838 287.632 c 0
 61.3838 289.29 61.5883 291.079 62 293 c 0
 65 306 76 313 94 313 c 2
 171 313 l 1
 215 522 l 1
 181 522 l 2
 165.47 522 157.384 527.211 157.384 537.632 c 0
 157.384 539.29 157.588 541.079 158 543 c 0
 161 556 172 563 190 563 c 2
 410 563 l 2
 518.388 563 591.997 477.902 591.997 366.268 c 0
 591.997 348.129 590.054 329.289 586 310 c 2
 574 254 l 2
 544 115 416 0 290 0 c 2
 70 0 l 2
 54.47 0 46.3838 5.21073 46.3838 15.6322 c 0
 46.3838 17.2897 46.5883 19.0789 47 21 c 0
 50 34 61 41 79 41 c 2
 113 41 l 1
 162 272 l 1
256 522 m 1
 212 313 l 1
 374 313 l 2
 389.32 313 396.672 307.929 396.672 298.404 c 0
 396.672 296.738 396.447 294.936 396 293 c 0
 393 279 383 272 365 272 c 2
 203 272 l 1
 154 41 l 1
 304 41 l 2
 398 41 509 140 531 245 c 2
 547 319 l 2
 549.673 331.635 550.988 344.742 550.988 357.935 c 0
 550.988 399.036 538.225 440.962 514 472 c 0
 487 507 453 522 399 522 c 2
 256 522 l 1
EndSplineSet
EndChar
StartChar: Ntilde
Encoding: 144 209 32767
OldEncoding: 209
Width: 600
Flags: W
HStem: 0 41<67 112 153 230> 522 41<158 214 495 571 506 656> 666 41<500 512> 714 41<388 399>
DStem: 214 522 251 504 112 41 153 41 251 504 275 563 449 0 473 59 571 522 612 522 473 59 501 0
Fore
501 0 m 1
 449 0 l 1
 251 504 l 1
 153 41 l 1
 228 41 l 2
 243.32 41 250.672 35.9293 250.672 26.4044 c 0
 250.672 24.7382 250.447 22.9356 250 21 c 0
 247 7 236 0 219 0 c 2
 69 0 l 2
 53.47 0 45.3838 5.21073 45.3838 15.6322 c 0
 45.3838 17.2897 45.5883 19.0789 46 21 c 0
 49 34 60 41 78 41 c 2
 112 41 l 1
 214 522 l 1
 160 522 l 2
 144.47 522 136.384 527.211 136.384 537.632 c 0
 136.384 539.29 136.588 541.079 137 543 c 0
 140 556 151 563 169 563 c 2
 275 563 l 1
 473 59 l 1
 571 522 l 1
 497 522 l 2
 480.591 522 472.386 527.221 472.386 537.663 c 0
 472.386 539.312 472.591 541.091 473 543 c 0
 476 556 487 563 506 563 c 2
 655 563 l 2
 670.32 563 677.672 557.929 677.672 548.404 c 0
 677.672 546.738 677.447 544.936 677 543 c 0
 674 529 664 522 646 522 c 2
 612 522 l 1
 501 0 l 1
593 753 m 0
 601.956 753 609.309 745.78 609.309 736.37 c 0
 609.309 735.274 609.209 734.148 609 733 c 0
 607 725 602 719 580 702 c 0
 549 676 527 666 504 666 c 0
 482 666 464 673 429 697 c 0
 412 710 402 714 390 714 c 0
 370 714 359 708 324 677 c 0
 319 672 311 669 305 669 c 0
 295.262 669 288.659 675.269 288.659 684.339 c 0
 288.659 685.515 288.77 686.737 289 688 c 0
 291 696 299 705 315 718 c 0
 349 745 372 755 397 755 c 0
 417 755 429 751 457 732 c 0
 490 711 497 707 510 707 c 0
 527 707 539 714 575 745 c 0
 583 751 587 753 593 753 c 0
EndSplineSet
EndChar
StartChar: Ograve
Encoding: 145 210 32767
OldEncoding: 210
Width: 600
Flags: W
HStem: -16 41<293 311> 535 41<405 424>
DStem: 356 749 390 780 449 649 483 680
Fore
422 576 m 0
 540.427 576 616.528 484.291 616.528 354.201 c 0
 616.528 329.405 613.763 303.215 608 276 c 0
 573 115 434 -16 297 -16 c 0
 179.942 -16 102.6 76.9059 102.6 204.784 c 0
 102.6 228.755 105.317 253.954 111 280 c 128
 146 445 283 576 422 576 c 0
414 535 m 0
 299 535 181 420 152 280 c 128
 147.249 257.83 144.981 236.288 144.981 215.729 c 0
 144.981 106.462 209.052 25 305 25 c 0
 418 25 538 140 567 277 c 0
 571.832 300.192 574.147 322.606 574.147 343.891 c 0
 574.147 454.764 511.317 535 414 535 c 0
390 780 m 2
 483 680 l 1
 488 672 l 2
 490.343 669.071 491.314 667.858 491.314 666.149 c 0
 491.314 664.941 490.828 663.485 490 661 c 0
 488 649 477 640 465 640 c 0
 460 640 455 643 449 649 c 2
 356 749 l 2
 350.108 755.734 347.759 759.633 347.759 765.47 c 0
 347.759 766.567 347.842 767.734 348 769 c 0
 351 780 362 789 373 789 c 0
 379 789 383 786 390 780 c 2
EndSplineSet
EndChar
StartChar: Oacute
Encoding: 146 211 32767
OldEncoding: 211
Width: 600
Flags: W
HStem: -16 41<293 311> 535 41<405 430>
DStem: 543 780 563 749 408 680 428 649
Fore
422 576 m 0
 540.427 576 616.528 484.291 616.528 354.201 c 0
 616.528 329.405 613.763 303.215 608 276 c 0
 573 115 434 -16 297 -16 c 0
 179.942 -16 102.6 76.9059 102.6 204.784 c 0
 102.6 228.755 105.317 253.954 111 280 c 128
 146 445 283 576 422 576 c 0
414 535 m 0
 299 535 181 420 152 280 c 128
 147.249 257.83 144.981 236.288 144.981 215.729 c 0
 144.981 106.462 209.052 25 305 25 c 0
 418 25 538 140 567 277 c 0
 571.832 300.192 574.147 322.606 574.147 343.891 c 0
 574.147 454.764 511.317 535 414 535 c 0
563 749 m 2
 428 649 l 2
 417 642 413 640 407 640 c 0
 397.732 640 391.303 646.389 391.303 655.579 c 0
 391.303 657.296 391.528 659.111 392 661 c 0
 393 668 396 671 408 680 c 2
 543 780 l 2
 553 787 558 789 564 789 c 0
 573.268 789 579.697 782.611 579.697 773.421 c 0
 579.697 771.704 579.472 769.889 579 768 c 0
 578 761 574 757 563 749 c 2
EndSplineSet
EndChar
StartChar: Ocircumflex
Encoding: 147 212 32767
OldEncoding: 212
Width: 600
Flags: W
HStem: -16 41<292 315> 535 41<405 424>
DStem: 456 736 468 789 545 648 577 681 468 789 456 736 313 680 331 648
Fore
422 576 m 0
 540.427 576 616.528 484.291 616.528 354.201 c 0
 616.528 329.405 613.763 303.215 608 276 c 0
 573 115 434 -16 297 -16 c 0
 179.942 -16 102.6 76.9059 102.6 204.784 c 0
 102.6 228.755 105.317 253.954 111 280 c 128
 146 445 283 576 422 576 c 0
414 535 m 0
 299 535 181 420 152 280 c 128
 147.249 257.83 144.981 236.288 144.981 215.729 c 0
 144.981 106.462 209.052 25 305 25 c 0
 418 25 538 140 567 277 c 0
 571.832 300.192 574.147 322.606 574.147 343.891 c 0
 574.147 454.764 511.317 535 414 535 c 0
468 789 m 1
 577 681 l 2
 583.554 674.446 585.866 670.544 585.866 665.817 c 0
 585.866 664.053 585.544 662.174 585 660 c 0
 583 649 572 640 561 640 c 0
 556 640 551 643 545 648 c 2
 456 736 l 1
 331 648 l 2
 323 643 316 640 311 640 c 0
 301.262 640 294.659 647.053 294.659 656.302 c 0
 294.659 657.501 294.77 658.737 295 660 c 0
 297 668 301 673 313 680 c 1
 468 789 l 1
EndSplineSet
EndChar
StartChar: Otilde
Encoding: 148 213 32767
OldEncoding: 213
Width: 600
Flags: W
HStem: -16 41<293 315> 535 41<403 424> 666 41<510 520> 714 41<396 407>
Fore
422 576 m 0
 540.427 576 616.528 484.291 616.528 354.201 c 0
 616.528 329.405 613.763 303.215 608 276 c 0
 573 115 434 -16 297 -16 c 0
 179.942 -16 102.6 76.9059 102.6 204.784 c 0
 102.6 228.755 105.317 253.954 111 280 c 128
 146 445 283 576 422 576 c 0
414 535 m 0
 299 535 181 420 152 280 c 128
 147.249 257.83 144.981 236.288 144.981 215.729 c 0
 144.981 106.462 209.052 25 305 25 c 0
 418 25 538 140 567 277 c 0
 571.832 300.192 574.147 322.606 574.147 343.891 c 0
 574.147 454.764 511.317 535 414 535 c 0
601 753 m 0
 609.956 753 617.309 745.78 617.309 736.37 c 0
 617.309 735.274 617.209 734.148 617 733 c 0
 615 725 610 719 588 702 c 0
 557 676 535 666 512 666 c 0
 490 666 472 673 437 697 c 0
 420 710 410 714 398 714 c 0
 378 714 367 708 332 677 c 0
 327 672 319 669 313 669 c 0
 303.262 669 296.659 675.269 296.659 684.339 c 0
 296.659 685.515 296.77 686.737 297 688 c 0
 299 696 307 705 323 718 c 0
 357 745 380 755 405 755 c 0
 425 755 437 751 465 732 c 0
 498 711 505 707 518 707 c 0
 535 707 547 714 583 745 c 0
 591 751 595 753 601 753 c 0
EndSplineSet
EndChar
StartChar: Odieresis
Encoding: 149 214 32767
OldEncoding: 214
Width: 600
Flags: W
HStem: -16 41<286 311> 535 41<405 424> 661 100<330 351 550 572>
Fore
422 576 m 0
 540.427 576 616.528 484.291 616.528 354.201 c 0
 616.528 329.405 613.763 303.215 608 276 c 0
 573 115 434 -16 297 -16 c 0
 179.942 -16 102.6 76.9059 102.6 204.784 c 0
 102.6 228.755 105.317 253.954 111 280 c 128
 146 445 283 576 422 576 c 0
414 535 m 0
 299 535 181 420 152 280 c 128
 147.249 257.83 144.981 236.288 144.981 215.729 c 0
 144.981 106.462 209.052 25 305 25 c 0
 418 25 538 140 567 277 c 0
 571.832 300.192 574.147 322.606 574.147 343.891 c 0
 574.147 454.764 511.317 535 414 535 c 0
351 761 m 0
 375.214 761 391.202 743.799 391.202 721.038 c 0
 391.202 717.48 390.811 713.786 390 710 c 0
 384 684 356 661 330 661 c 128
 305.638 661 288.846 678.412 288.846 700.72 c 0
 288.846 704.052 289.22 707.492 290 711 c 128
 296 738 324 761 351 761 c 0
572 761 m 0
 596.214 761 612.202 743.799 612.202 721.038 c 0
 612.202 717.48 611.811 713.786 611 710 c 0
 605 684 578 661 550 661 c 128
 527.268 661 509.887 678.582 509.887 701.047 c 0
 509.887 704.276 510.246 707.606 511 711 c 128
 517 738 545 761 572 761 c 0
EndSplineSet
EndChar
StartChar: multiply
Encoding: 150 215 32767
OldEncoding: 215
Width: 600
Flags: W
DStem: 218 424 253 453 331 282 366 311 331 282 354 253 158 139 181 110 354 253 389 282 465 110 501 139 538 453 561 424 366 311 389 282
Fore
366 311 m 1
 538 453 l 2
 549 462 554 464 560 464 c 0
 569.417 464 576.636 457.404 576.636 447.976 c 0
 576.636 446.391 576.432 444.727 576 443 c 0
 575 437 571 432 561 424 c 2
 389 282 l 1
 501 139 l 1
 506.55 132.657 508.328 128.828 508.328 124.025 c 0
 508.328 122.771 508.207 121.45 508 120 c 0
 505 109 494 100 482 100 c 0
 476 100 472 102 465 110 c 2
 354 253 l 1
 181 110 l 1
 172 103 166 100 160 100 c 0
 149.873 100 143.307 106.41 143.307 115.022 c 0
 143.307 116.615 143.532 118.283 144 120 c 0
 145 127 149 132 158 139 c 2
 331 282 l 1
 218 424 l 1
 213.833 430.667 211.75 435.25 211.75 440.065 c 0
 211.75 441.028 211.833 442 212 443 c 0
 215 455 226 464 238 464 c 0
 244 464 247 461 253 453 c 2
 366 311 l 1
EndSplineSet
EndChar
StartChar: Oslash
Encoding: 151 216 32767
OldEncoding: 216
Width: 600
Flags: W
HStem: -16 41<289 307> 535 41<401 424> 585 20G<667.5 675.354>
DStem: 134 78 152 51 46 -9 69 -31 533 476 551 449 168 112 185 84 650 593 673 571 566 510 585 483
Fore
152 51 m 1
 69 -31 l 2
 60 -40 55 -43 49 -43 c 0
 40.2917 -43 34.6168 -36.9333 34.6168 -28.7621 c 0
 34.6168 -27.5501 34.7417 -26.2917 35 -25 c 0
 36 -21 37 -18 46 -9 c 2
 134 78 l 1
 112.52 117.055 102.056 158.651 102.056 203.893 c 0
 102.056 228.157 105.065 253.469 111 280 c 0
 146 446 283 576 422 576 c 0
 482 576 527 555 566 510 c 1
 650 593 l 2
 659 602 664 605 671 605 c 0
 679.708 605 685.383 598.933 685.383 590.762 c 0
 685.383 589.55 685.258 588.292 685 587 c 0
 684 582 681 579 673 571 c 2
 585 483 l 1
 605.882 447.299 616.781 402.069 616.781 353.118 c 0
 616.781 329.399 614.222 304.806 609 280 c 0
 573 115 436 -16 297 -16 c 0
 237 -16 187 7 152 51 c 1
168 112 m 1
 533 476 l 1
 502 516 463 535 414 535 c 0
 299 535 181 420 152 280 c 0
 147.011 257.906 144.562 236.829 144.562 216.495 c 0
 144.562 179.768 152.552 145.47 168 112 c 1
551 449 m 1
 185 84 l 1
 216 45 256 25 305 25 c 0
 419 25 538 140 568 280 c 0
 572.488 301.75 574.712 322.785 574.712 343.023 c 0
 574.712 381.404 566.714 416.917 551 449 c 1
EndSplineSet
EndChar
StartChar: Ugrave
Encoding: 152 217 32767
OldEncoding: 217
Width: 600
Flags: W
HStem: -16 41<294 312> 522 41<175 212 187 338 492 568 504 655>
DStem: 212 522 253 522 140 185 181 185 359 749 393 780 452 649 486 680 569 522 610 522 497 185 538 185
Fore
610 522 m 1
 538 185 l 2
 514 71 409 -16 297 -16 c 0
 199.266 -16 135.194 49.081 135.194 140.423 c 0
 135.194 154.691 136.758 169.599 140 185 c 2
 212 522 l 1
 178 522 l 2
 162.47 522 154.384 527.211 154.384 537.632 c 0
 154.384 539.29 154.588 541.079 155 543 c 128
 158 557 169 563 187 563 c 2
 336 563 l 2
 351.32 563 358.672 557.929 358.672 548.404 c 0
 358.672 546.738 358.447 544.936 358 543 c 0
 355 529 345 522 327 522 c 2
 253 522 l 1
 181 185 l 2
 178.437 172.862 177.203 161.087 177.203 149.799 c 0
 177.203 77.3913 228.004 25 305 25 c 0
 393 25 478 95 497 185 c 2
 569 522 l 1
 495 522 l 2
 479.47 522 471.384 527.211 471.384 537.632 c 0
 471.384 539.29 471.588 541.079 472 543 c 128
 475 557 485 563 504 563 c 2
 653 563 l 2
 668.943 563 675.732 558.776 675.732 549.145 c 0
 675.732 547.298 675.483 545.253 675 543 c 128
 672 529 662 522 644 522 c 2
 610 522 l 1
393 780 m 2
 486 680 l 1
 491 672 l 2
 493.667 668.667 494.556 667.556 494.556 665.407 c 0
 494.556 664.333 494.333 663 494 661 c 0
 491 649 480 640 468 640 c 0
 463 640 458 643 452 649 c 2
 359 749 l 2
 353.108 755.734 350.759 759.633 350.759 765.47 c 0
 350.759 766.567 350.842 767.734 351 769 c 0
 354 780 365 789 376 789 c 0
 382 789 386 786 393 780 c 2
EndSplineSet
EndChar
StartChar: Uacute
Encoding: 153 218 32767
OldEncoding: 218
Width: 600
Flags: W
HStem: -16 41<294 312> 522 41<175 212 187 338 493 568 504 655>
DStem: 212 522 253 522 140 185 181 185 540 780 560 749 405 680 425 649 569 522 610 522 497 185 538 185
Fore
610 522 m 1
 538 185 l 2
 514 71 409 -16 297 -16 c 0
 199.266 -16 135.194 49.081 135.194 140.423 c 0
 135.194 154.691 136.758 169.599 140 185 c 2
 212 522 l 1
 178 522 l 2
 162.47 522 154.384 527.211 154.384 537.632 c 0
 154.384 539.29 154.588 541.079 155 543 c 128
 158 557 169 563 187 563 c 2
 336 563 l 2
 351.32 563 358.672 557.929 358.672 548.404 c 0
 358.672 546.738 358.447 544.936 358 543 c 0
 355 529 345 522 327 522 c 2
 253 522 l 1
 181 185 l 2
 178.437 172.862 177.203 161.087 177.203 149.799 c 0
 177.203 77.3913 228.004 25 305 25 c 0
 393 25 478 95 497 185 c 2
 569 522 l 1
 495 522 l 2
 479.47 522 471.384 527.211 471.384 537.632 c 0
 471.384 539.29 471.588 541.079 472 543 c 128
 475 557 485 563 504 563 c 2
 653 563 l 2
 668.943 563 675.732 558.776 675.732 549.145 c 0
 675.732 547.298 675.483 545.253 675 543 c 128
 672 529 662 522 644 522 c 2
 610 522 l 1
560 749 m 2
 425 649 l 2
 414 642 410 640 404 640 c 0
 394.262 640 387.659 647.053 387.659 656.996 c 0
 387.659 658.285 387.77 659.623 388 661 c 0
 390 668 393 671 405 680 c 2
 540 780 l 2
 550 787 555 789 561 789 c 0
 570.268 789 576.697 782.611 576.697 773.421 c 0
 576.697 771.704 576.472 769.889 576 768 c 0
 575 761 571 757 560 749 c 2
EndSplineSet
EndChar
StartChar: Ucircumflex
Encoding: 154 219 32767
OldEncoding: 219
Width: 600
Flags: W
HStem: -16 41<292 315> 522 41<175 212 187 338 493 568 504 655>
DStem: 212 522 253 522 140 185 181 185 456 736 468 789 545 648 577 681 468 789 456 736 313 680 331 648 569 522 610 522 497 185 538 185
Fore
610 522 m 1
 538 185 l 2
 514 71 409 -16 297 -16 c 0
 199.266 -16 135.194 49.081 135.194 140.423 c 0
 135.194 154.691 136.758 169.599 140 185 c 2
 212 522 l 1
 178 522 l 2
 162.47 522 154.384 527.211 154.384 537.632 c 0
 154.384 539.29 154.588 541.079 155 543 c 128
 158 557 169 563 187 563 c 2
 336 563 l 2
 351.32 563 358.672 557.929 358.672 548.404 c 0
 358.672 546.738 358.447 544.936 358 543 c 0
 355 529 345 522 327 522 c 2
 253 522 l 1
 181 185 l 2
 178.437 172.862 177.203 161.087 177.203 149.799 c 0
 177.203 77.3913 228.004 25 305 25 c 0
 393 25 478 95 497 185 c 2
 569 522 l 1
 495 522 l 2
 479.47 522 471.384 527.211 471.384 537.632 c 0
 471.384 539.29 471.588 541.079 472 543 c 128
 475 557 485 563 504 563 c 2
 653 563 l 2
 668.943 563 675.732 558.776 675.732 549.145 c 0
 675.732 547.298 675.483 545.253 675 543 c 128
 672 529 662 522 644 522 c 2
 610 522 l 1
468 789 m 1
 577 681 l 2
 583.554 674.446 585.866 670.544 585.866 665.817 c 0
 585.866 664.053 585.544 662.174 585 660 c 0
 583 649 572 640 561 640 c 0
 556 640 551 643 545 648 c 2
 456 736 l 1
 331 648 l 2
 323 643 316 640 311 640 c 0
 301.262 640 294.659 647.053 294.659 656.302 c 0
 294.659 657.501 294.77 658.737 295 660 c 0
 297 668 301 673 313 680 c 1
 468 789 l 1
EndSplineSet
EndChar
StartChar: Udieresis
Encoding: 155 220 32767
OldEncoding: 220
Width: 600
Flags: W
HStem: -16 41<286 312> 522 41<175 212 187 338 493 568 504 655> 661 100<330 351 550 572>
DStem: 212 522 253 522 140 185 181 185 569 522 610 522 497 185 538 185
Fore
610 522 m 1
 538 185 l 2
 514 71 409 -16 297 -16 c 0
 199.266 -16 135.194 49.081 135.194 140.423 c 0
 135.194 154.691 136.758 169.599 140 185 c 2
 212 522 l 1
 178 522 l 2
 162.47 522 154.384 527.211 154.384 537.632 c 0
 154.384 539.29 154.588 541.079 155 543 c 128
 158 557 169 563 187 563 c 2
 336 563 l 2
 351.32 563 358.672 557.929 358.672 548.404 c 0
 358.672 546.738 358.447 544.936 358 543 c 0
 355 529 345 522 327 522 c 2
 253 522 l 1
 181 185 l 2
 178.437 172.862 177.203 161.087 177.203 149.799 c 0
 177.203 77.3913 228.004 25 305 25 c 0
 393 25 478 95 497 185 c 2
 569 522 l 1
 495 522 l 2
 479.47 522 471.384 527.211 471.384 537.632 c 0
 471.384 539.29 471.588 541.079 472 543 c 128
 475 557 485 563 504 563 c 2
 653 563 l 2
 668.943 563 675.732 558.776 675.732 549.145 c 0
 675.732 547.298 675.483 545.253 675 543 c 128
 672 529 662 522 644 522 c 2
 610 522 l 1
351 761 m 0
 375.214 761 391.202 743.799 391.202 721.038 c 0
 391.202 717.48 390.811 713.786 390 710 c 0
 384 684 356 661 330 661 c 128
 305.638 661 288.846 678.412 288.846 700.72 c 0
 288.846 704.052 289.22 707.492 290 711 c 128
 296 738 324 761 351 761 c 0
572 761 m 0
 596.214 761 612.202 743.799 612.202 721.038 c 0
 612.202 717.48 611.811 713.786 611 710 c 0
 605 684 578 661 550 661 c 128
 527.268 661 509.887 678.582 509.887 701.047 c 0
 509.887 704.276 510.246 707.606 511 711 c 128
 517 738 545 761 572 761 c 0
EndSplineSet
EndChar
StartChar: Yacute
Encoding: 156 221 32767
OldEncoding: 221
Width: 600
Flags: W
HStem: 0 41<174 290 331 438> 522 41<187 213 198 311 521 562 532 642>
DStem: 213 522 262 522 335 254 366 295 335 254 376 254 290 41 331 41 540 780 560 749 405 680 425 649 563 522 609 522 366 295 376 254
Fore
376 254 m 1
 331 41 l 1
 436 41 l 2
 451.32 41 458.672 35.9293 458.672 26.4044 c 0
 458.672 24.7382 458.447 22.9356 458 21 c 0
 455 7 445 0 427 0 c 2
 176 0 l 2
 160.47 0 152.384 5.21073 152.384 15.6322 c 0
 152.384 17.2897 152.588 19.0789 153 21 c 0
 156 34 167 41 185 41 c 2
 290 41 l 1
 335 254 l 1
 213 522 l 1
 189 522 l 2
 173.47 522 165.384 527.211 165.384 537.632 c 0
 165.384 539.29 165.588 541.079 166 543 c 0
 169 556 180 563 198 563 c 2
 309 563 l 2
 324.32 563 331.672 557.929 331.672 548.404 c 0
 331.672 546.738 331.447 544.936 331 543 c 0
 328 529 318 522 300 522 c 2
 262 522 l 1
 366 295 l 1
 563 522 l 1
 523 522 l 2
 506.591 522 498.386 527.221 498.386 537.663 c 0
 498.386 539.312 498.591 541.091 499 543 c 0
 502 556 513 563 532 563 c 2
 642 563 l 2
 656.652 563 664.619 557.057 664.619 547.732 c 0
 664.619 546.238 664.414 544.657 664 543 c 0
 662 530 649 522 633 522 c 2
 609 522 l 1
 376 254 l 1
560 749 m 2
 425 649 l 2
 414 642 410 640 404 640 c 0
 394.262 640 387.659 647.053 387.659 656.996 c 0
 387.659 658.285 387.77 659.623 388 661 c 0
 390 668 393 671 405 680 c 2
 540 780 l 2
 550 787 555 789 561 789 c 0
 570.268 789 576.697 782.611 576.697 773.421 c 0
 576.697 771.704 576.472 769.889 576 768 c 0
 575 761 571 757 560 749 c 2
EndSplineSet
MinimumDistance: x12,32 
EndChar
StartChar: Thorn
Encoding: 157 222 32767
OldEncoding: 222
Width: 600
Flags: W
HStem: 0 41<68 133 174 314> 131 41<202 339> 422 41<263 416> 522 41<179 235 190 425>
DStem: 235 522 276 522 133 41 263 463 235 522 255 422 133 41 202 172 235 522 193 131 133 41 174 41
Fore
193 131 m 1
 174 41 l 1
 312 41 l 2
 328.192 41 335.668 35.9165 335.668 26.3683 c 0
 335.668 24.7121 335.443 22.9216 335 21 c 0
 332 7 321 0 303 0 c 2
 70 0 l 2
 54.47 0 46.3838 5.21073 46.3838 15.6322 c 0
 46.3838 17.2897 46.5883 19.0789 47 21 c 0
 50 34 61 41 79 41 c 2
 133 41 l 1
 235 522 l 1
 181 522 l 2
 165.47 522 157.384 527.211 157.384 537.632 c 0
 157.384 539.29 157.588 541.079 158 543 c 0
 161 556 172 563 190 563 c 2
 423 563 l 2
 439.192 563 446.668 557.916 446.668 548.368 c 0
 446.668 546.712 446.443 544.922 446 543 c 0
 443 529 433 522 414 522 c 2
 276 522 l 1
 263 463 l 1
 408 463 l 2
 501.538 463 565.486 406.934 565.486 329.846 c 0
 565.486 319.576 564.351 308.933 562 298 c 0
 543 205 438 131 324 131 c 2
 193 131 l 1
202 172 m 1
 336 172 l 2
 423 172 507 229 521 298 c 0
 522.715 305.775 523.541 313.392 523.541 320.787 c 0
 523.541 378.073 473.968 422 404 422 c 2
 255 422 l 1
 202 172 l 1
EndSplineSet
EndChar
StartChar: germandbls
Encoding: 158 223 32767
OldEncoding: 223
Width: 600
Flags: W
HStem: -16 41<360 372> 0 41<68 133 174 191> 334 41<343 364> 563 41<381 399>
DStem: 225 476 266 476 133 41 174 41
Fore
133 41 m 1x70
 225 476 l 2
 240 547 316 604 394 604 c 0
 464.161 604 512.564 555.232 512.564 489.54 c 0
 512.564 479.392 511.409 468.839 509 458 c 0
 501 417 476 386 430 359 c 1
 501.947 327.115 538.467 276.513 538.467 208.835 c 0
 538.467 193.734 536.648 177.783 533 161 c 0
 512 60 438 -16 362 -16 c 0
 310.73 -16 276.984 21.2383 276.984 73.2537 c 0
 276.984 82.111 277.963 91.3967 280 101 c 0
 283 115 293 124 305 124 c 0
 315.792 124 321.76 118.487 321.76 107.461 c 0
 321.76 105.205 321.51 102.718 321 100 c 0
 320.006 93.4672 319.516 87.2773 319.516 81.4647 c 0
 319.516 46.3479 337.397 25 370 25 c 0xb0
 422 25 476 85 492 162 c 0
 494.673 174.149 495.988 186.062 495.988 197.595 c 0
 495.988 233.528 483.225 265.775 459 290 c 0
 432 316 388 334 350 334 c 2
 345 334 l 2
 329.47 334 321.384 339.211 321.384 349.632 c 0
 321.384 351.29 321.588 353.079 322 355 c 0
 325 367 336 375 350 375 c 2
 355 375 l 2
 406 375 459 415 469 459 c 0
 470.525 466.243 471.258 473.324 471.258 480.167 c 0
 471.258 527.185 436.63 563 386 563 c 0
 330 563 277 525 266 476 c 2
 174 41 l 1
 189 41 l 2
 204.32 41 211.672 35.9293 211.672 26.4044 c 0
 211.672 24.7382 211.447 22.9356 211 21 c 0
 208 7 198 0 180 0 c 2
 70 0 l 2
 54.47 0 46.3838 5.21073 46.3838 15.6322 c 0
 46.3838 17.2897 46.5883 19.0789 47 21 c 0
 50 34 61 41 79 41 c 2
 133 41 l 1x70
EndSplineSet
EndChar
StartChar: agrave
Encoding: 159 224 32767
OldEncoding: 224
Width: 600
Flags: W
HStem: -16 41<218 238> 0 41<469 525> 217 41<311 366> 390 41<377 398>
DStem: 313 599 347 630 406 499 440 530 462 202 525 308 443 112 469 41 484 308 525 308 469 237 469 41
Fore
419 0 m 1x70
 433 67 l 1
 360 10 295 -16 225 -16 c 0xb0
 143.209 -16 93.1309 24.2202 93.1309 85.6139 c 0
 93.1309 94.0279 94.0715 102.84 96 112 c 0
 114 199 213 258 338 258 c 0
 384 258 414 253 469 237 c 1
 484 308 l 2
 485.147 313.109 485.707 318.044 485.707 322.786 c 0
 485.707 363.523 444.388 390 379 390 c 0
 343 390 314 384 231 360 c 0
 226 359 222 358 220 358 c 0
 211.156 358 204.658 365.04 204.658 374.277 c 0
 204.658 375.484 204.769 376.729 205 378 c 0
 207 388 215 395 227 399 c 0
 286 418 354 431 391 431 c 0
 473.508 431 527.681 390.071 527.681 331.257 c 0
 527.681 323.778 526.805 316.01 525 308 c 2
 469 41 l 1
 523 41 l 2
 538.32 41 545.672 35.9293 545.672 26.4044 c 0
 545.672 24.7382 545.447 22.9356 545 21 c 0
 542 7 532 0 514 0 c 2
 419 0 l 1x70
443 112 m 1
 462 202 l 1
 428 211 381 217 337 217 c 0
 231 217 150 174 137 111 c 0
 135.715 104.923 135.085 99.0924 135.085 93.5329 c 0
 135.085 51.5179 171.063 25 232 25 c 0
 303 25 362 49 443 112 c 1
347 630 m 2
 440 530 l 1
 445 522 l 2
 447.667 518.667 448.556 517.556 448.556 515.407 c 0
 448.556 514.333 448.333 513 448 511 c 0
 445 499 434 490 422 490 c 0
 417 490 412 493 406 499 c 2
 313 599 l 2
 307.698 605.059 305.265 608.823 305.265 613.769 c 0
 305.265 615.353 305.515 617.059 306 619 c 0
 308 630 319 639 330 639 c 0
 336 639 340 636 347 630 c 2
EndSplineSet
EndChar
StartChar: aacute
Encoding: 160 225 32767
OldEncoding: 225
Width: 600
Flags: W
HStem: -16 41<218 238> 0 41<469 525> 217 41<316 366> 390 41<377 398>
DStem: 462 202 525 308 443 112 469 41 484 308 525 308 469 237 469 41 494 630 514 599 359 530 379 499
Fore
419 0 m 1x70
 433 67 l 1
 360 10 295 -16 225 -16 c 0xb0
 143.209 -16 93.1309 24.2202 93.1309 85.6139 c 0
 93.1309 94.0279 94.0715 102.84 96 112 c 0
 114 199 213 258 338 258 c 0
 384 258 414 253 469 237 c 1
 484 308 l 2
 485.147 313.109 485.707 318.044 485.707 322.786 c 0
 485.707 363.523 444.388 390 379 390 c 0
 343 390 314 384 231 360 c 0
 226 359 222 358 220 358 c 0
 211.156 358 204.658 365.04 204.658 374.277 c 0
 204.658 375.484 204.769 376.729 205 378 c 0
 207 388 215 395 227 399 c 0
 286 418 354 431 391 431 c 0
 473.508 431 527.681 390.071 527.681 331.257 c 0
 527.681 323.778 526.805 316.01 525 308 c 2
 469 41 l 1
 523 41 l 2
 538.32 41 545.672 35.9293 545.672 26.4044 c 0
 545.672 24.7382 545.447 22.9356 545 21 c 0
 542 7 532 0 514 0 c 2
 419 0 l 1x70
443 112 m 1
 462 202 l 1
 428 211 381 217 337 217 c 0
 231 217 150 174 137 111 c 0
 135.715 104.923 135.085 99.0924 135.085 93.5329 c 0
 135.085 51.5179 171.063 25 232 25 c 0
 303 25 362 49 443 112 c 1
514 599 m 2
 379 499 l 2
 369 492 364 490 358 490 c 0
 348.732 490 342.303 496.389 342.303 505.579 c 0
 342.303 507.296 342.528 509.111 343 511 c 0
 344 518 347 521 359 530 c 2
 494 630 l 2
 504 637 509 639 515 639 c 0
 524.268 639 530.697 632.611 530.697 623.421 c 0
 530.697 621.704 530.472 619.889 530 618 c 0
 529 611 525 607 514 599 c 2
EndSplineSet
EndChar
StartChar: acircumflex
Encoding: 161 226 32767
OldEncoding: 226
Width: 600
Flags: W
HStem: -16 41<218 238> 0 41<469 525> 217 41<316 366> 390 41<377 398>
DStem: 415 586 426 639 503 498 535 531 426 639 415 586 271 530 289 498 462 202 525 308 443 112 469 41 484 308 525 308 469 237 469 41
Fore
419 0 m 1x70
 433 67 l 1
 360 10 295 -16 225 -16 c 0xb0
 143.209 -16 93.1309 24.2202 93.1309 85.6139 c 0
 93.1309 94.0279 94.0715 102.84 96 112 c 0
 114 199 213 258 338 258 c 0
 384 258 414 253 469 237 c 1
 484 308 l 2
 485.147 313.109 485.707 318.044 485.707 322.786 c 0
 485.707 363.523 444.388 390 379 390 c 0
 343 390 314 384 231 360 c 0
 226 359 222 358 220 358 c 0
 211.156 358 204.658 365.04 204.658 374.277 c 0
 204.658 375.484 204.769 376.729 205 378 c 0
 207 388 215 395 227 399 c 0
 286 418 354 431 391 431 c 0
 473.508 431 527.681 390.071 527.681 331.257 c 0
 527.681 323.778 526.805 316.01 525 308 c 2
 469 41 l 1
 523 41 l 2
 538.32 41 545.672 35.9293 545.672 26.4044 c 0
 545.672 24.7382 545.447 22.9356 545 21 c 0
 542 7 532 0 514 0 c 2
 419 0 l 1x70
443 112 m 1
 462 202 l 1
 428 211 381 217 337 217 c 0
 231 217 150 174 137 111 c 0
 135.715 104.923 135.085 99.0924 135.085 93.5329 c 0
 135.085 51.5179 171.063 25 232 25 c 0
 303 25 362 49 443 112 c 1
426 639 m 1
 535 531 l 2
 541.554 524.446 543.866 520.544 543.866 515.817 c 0
 543.866 514.053 543.544 512.174 543 510 c 0
 541 499 530 490 519 490 c 0
 514 490 509 493 503 498 c 2
 415 586 l 1
 289 498 l 2
 281 493 274 490 269 490 c 0
 259.262 490 252.659 497.053 252.659 506.302 c 0
 252.659 507.501 252.77 508.738 253 510 c 0
 255 518 259 523 271 530 c 1
 426 639 l 1
EndSplineSet
EndChar
StartChar: atilde
Encoding: 162 227 32767
OldEncoding: 227
Width: 600
Flags: W
HStem: -16 41<218 248> 0 41<469 525> 217 41<316 366> 390 41<377 398> 516 41<460 472> 564 41<348 360>
DStem: 462 202 525 308 443 112 469 41 484 308 525 308 469 237 469 41
Fore
419 0 m 1x7c
 433 67 l 1
 360 10 295 -16 225 -16 c 0xbc
 143.209 -16 93.1309 24.2202 93.1309 85.6139 c 0
 93.1309 94.0279 94.0715 102.84 96 112 c 0
 114 199 213 258 338 258 c 0
 384 258 414 253 469 237 c 1
 484 308 l 2
 485.147 313.109 485.707 318.044 485.707 322.786 c 0
 485.707 363.523 444.388 390 379 390 c 0
 343 390 314 384 231 360 c 0
 226 359 222 358 220 358 c 0
 211.156 358 204.658 365.04 204.658 374.277 c 0
 204.658 375.484 204.769 376.729 205 378 c 0
 207 388 215 395 227 399 c 0
 286 418 354 431 391 431 c 0
 473.508 431 527.681 390.071 527.681 331.257 c 0
 527.681 323.778 526.805 316.01 525 308 c 2
 469 41 l 1
 523 41 l 2
 538.32 41 545.672 35.9293 545.672 26.4044 c 0
 545.672 24.7382 545.447 22.9356 545 21 c 0
 542 7 532 0 514 0 c 2
 419 0 l 1x7c
443 112 m 1
 462 202 l 1
 428 211 381 217 337 217 c 0
 231 217 150 174 137 111 c 0
 135.715 104.923 135.085 99.0924 135.085 93.5329 c 0
 135.085 51.5179 171.063 25 232 25 c 0
 303 25 362 49 443 112 c 1
553 603 m 0
 561.956 603 569.309 595.78 569.309 586.37 c 0
 569.309 585.274 569.209 584.148 569 583 c 0
 567 575 562 569 540 552 c 0
 509 526 487 516 464 516 c 0
 442 516 424 523 389 547 c 0
 372 560 362 564 350 564 c 0
 330 564 320 558 284 527 c 0
 279 522 271 519 265 519 c 0
 255.262 519 248.659 525.269 248.659 534.339 c 0
 248.659 535.515 248.77 536.737 249 538 c 0
 251 546 259 555 275 568 c 0
 309 595 333 605 358 605 c 0
 378 605 389 601 417 582 c 0
 450 561 457 557 470 557 c 0
 487 557 499 564 535 595 c 0
 543 601 547 603 553 603 c 0
EndSplineSet
EndChar
StartChar: adieresis
Encoding: 163 228 32767
OldEncoding: 228
Width: 600
Flags: W
HStem: -16 41<218 249> 0 41<469 525> 217 41<310 366> 390 41<377 398> 511 100<288 309 509 530>
DStem: 462 202 525 308 443 112 469 41 484 308 525 308 469 237 469 41
Fore
419 0 m 1x78
 433 67 l 1
 360 10 295 -16 225 -16 c 0xb8
 143.209 -16 93.1309 24.2202 93.1309 85.6139 c 0
 93.1309 94.0279 94.0715 102.84 96 112 c 0
 114 199 213 258 338 258 c 0
 384 258 414 253 469 237 c 1
 484 308 l 2
 485.147 313.109 485.707 318.044 485.707 322.786 c 0
 485.707 363.523 444.388 390 379 390 c 0
 343 390 314 384 231 360 c 0
 226 359 222 358 220 358 c 0
 211.156 358 204.658 365.04 204.658 374.277 c 0
 204.658 375.484 204.769 376.729 205 378 c 0
 207 388 215 395 227 399 c 0
 286 418 354 431 391 431 c 0
 473.508 431 527.681 390.071 527.681 331.257 c 0
 527.681 323.778 526.805 316.01 525 308 c 2
 469 41 l 1
 523 41 l 2
 538.32 41 545.672 35.9293 545.672 26.4044 c 0
 545.672 24.7382 545.447 22.9356 545 21 c 0
 542 7 532 0 514 0 c 2
 419 0 l 1x78
443 112 m 1
 462 202 l 1
 428 211 381 217 337 217 c 0
 231 217 150 174 137 111 c 0
 135.715 104.923 135.085 99.0924 135.085 93.5329 c 0
 135.085 51.5179 171.063 25 232 25 c 0
 303 25 362 49 443 112 c 1
309 611 m 0
 333.214 611 349.202 593.799 349.202 571.038 c 0
 349.202 567.48 348.811 563.786 348 560 c 0
 343 534 315 511 288 511 c 128
 264.039 511 247.166 529.114 247.166 552.062 c 0
 247.166 554.973 247.437 557.961 248 561 c 128
 254 588 282 611 309 611 c 0
530 611 m 0
 554.214 611 570.202 593.799 570.202 571.038 c 0
 570.202 567.48 569.811 563.786 569 560 c 0
 564 534 536 511 509 511 c 128
 485.039 511 468.166 529.114 468.166 552.062 c 0
 468.166 554.973 468.437 557.961 469 561 c 128
 475 588 503 611 530 611 c 0
EndSplineSet
EndChar
StartChar: aring
Encoding: 164 229 32767
OldEncoding: 229
Width: 600
Flags: W
HStem: -16 41<218 238> 0 41<469 525> 217 41<314 366> 390 41<377 400> 480 33<389 401> 628 33<417 434>
DStem: 462 202 525 308 443 112 469 41 484 308 525 308 469 237 469 41
Fore
419 0 m 1x7c
 433 67 l 1
 360 10 295 -16 225 -16 c 0xbc
 143.209 -16 93.1309 24.2202 93.1309 85.6139 c 0
 93.1309 94.0279 94.0715 102.84 96 112 c 0
 114 199 213 258 338 258 c 0
 384 258 414 253 469 237 c 1
 484 308 l 2
 485.147 313.109 485.707 318.044 485.707 322.786 c 0
 485.707 363.523 444.388 390 379 390 c 0
 343 390 314 384 231 360 c 0
 226 359 222 358 220 358 c 0
 211.156 358 204.658 365.04 204.658 374.277 c 0
 204.658 375.484 204.769 376.729 205 378 c 0
 207 388 215 395 227 399 c 0
 286 418 354 431 391 431 c 0
 473.508 431 527.681 390.071 527.681 331.257 c 0
 527.681 323.778 526.805 316.01 525 308 c 2
 469 41 l 1
 523 41 l 2
 538.32 41 545.672 35.9293 545.672 26.4044 c 0
 545.672 24.7382 545.447 22.9356 545 21 c 0
 542 7 532 0 514 0 c 2
 419 0 l 1x7c
443 112 m 1
 462 202 l 1
 428 211 381 217 337 217 c 0
 231 217 150 174 137 111 c 0
 135.715 104.923 135.085 99.0924 135.085 93.5329 c 0
 135.085 51.5179 171.063 25 232 25 c 0
 303 25 362 49 443 112 c 1
430 661 m 0
 475.251 661 506.114 630.709 506.114 588.579 c 0
 506.114 582.296 505.428 575.749 504 569 c 0
 494 521 443 480 392 480 c 128
 347.146 480 316.214 511.714 316.214 553.373 c 0
 316.214 559.081 316.795 564.975 318 571 c 0
 329 620 380 661 430 661 c 0
423 628 m 0
 390 628 358 602 351 571 c 0
 350.311 567.327 349.978 563.734 349.978 560.249 c 0
 349.978 533.374 369.787 513 399 513 c 128
 432 513 465 539 471 570 c 0
 471.879 574.019 472.301 577.943 472.301 581.733 c 0
 472.301 608.12 451.856 628 423 628 c 0
EndSplineSet
EndChar
StartChar: ae
Encoding: 165 230 32767
OldEncoding: 230
Width: 600
Flags: W
HStem: -16 41<150 169 439 453> 199 41<371 619> 216 41<243 261> 390 41<273 291 510 524>
Fore
522 431 m 0xb0
 598.61 431 629.303 376.231 629.303 293.439 c 0
 629.303 264.92 625.661 233.076 619 199 c 1
 361 199 l 1xd0
 359.021 184.58 358.061 170.76 358.061 157.658 c 0
 358.061 78.0817 393.472 25 451 25 c 0
 480 25 505 38 562 82 c 0
 567 85 572 87 576 87 c 0
 585.738 87 592.341 79.1637 592.341 70.428 c 0
 592.341 69.2954 592.23 68.1477 592 67 c 128
 590 57 580 48 553 29 c 1
 506 -2 473 -16 441 -16 c 0
 395 -16 355 12 333 61 c 1
 326 27 l 2
 322 9 313 0 300 0 c 128
 289.925 0 284.655 5.40513 284.655 16.2154 c 0
 284.655 19.3545 285.1 22.9494 286 27 c 2
 291 52 l 1
 242 5 201 -16 157 -16 c 0
 83.6366 -16 36.346 30.9313 36.346 98.4325 c 0
 36.346 109.139 37.5358 120.363 40 132 c 0
 47 166 68 193 103 217 c 0
 139 240 201 257 250 257 c 0
 278 257 305 253 332 245 c 1
 345 305 l 2
 346.264 310.942 346.873 316.741 346.873 322.337 c 0
 346.873 361.002 317.805 390 275 390 c 0
 248 390 214 381 186 365 c 0
 178 361 170 358 166 358 c 0
 157.945 358 150.69 366.812 150.69 375.115 c 0
 150.69 376.089 150.79 377.055 151 378 c 0
 154 389 163 397 186 406 c 0
 228 423 261 431 291 431 c 0
 340 431 378 398 386 347 c 1
 421 399 474 431 522 431 c 0xb0
303 110 m 1
 323 203 l 1
 298 211 270 216 247 216 c 0xb0
 204 216 142 197 115 176 c 0
 98 162 88 145 83 121 c 0
 81.4217 113.635 80.6565 106.546 80.6565 99.7889 c 0
 80.6565 55.17 114.023 25 167 25 c 0
 204 25 244 50 303 110 c 1
371 240 m 1xd0
 586 240 l 1
 587.722 260.664 588.703 277.065 588.703 290.8 c 0
 588.703 308.969 586.987 322.471 583 335 c 0
 574 370 547 390 512 390 c 0
 452 390 405 340 371 240 c 1xd0
EndSplineSet
EndChar
StartChar: ccedilla
Encoding: 166 231 32767
OldEncoding: 231
Width: 600
Flags: W
HStem: -173 38<258 276> -81 34<281 305> -81 106<281 316> 390 41<392 410>
Fore
312 -16 m 1xb0
 305 -47 l 1
 339.84 -47.8498 358.794 -63.8635 358.794 -91.9732 c 0
 358.794 -96.943 358.202 -102.291 357 -108 c 0
 349 -147 311 -173 264 -173 c 0
 244 -173 215 -165 198 -155 c 0
 188.234 -149.303 184.429 -144.931 184.429 -138.649 c 0
 184.429 -137.212 184.628 -135.675 185 -134 c 0
 187 -123 198 -114 209 -114 c 0
 213 -114 216 -115 223 -119 c 0
 243 -131 255 -135 270 -135 c 0
 296 -135 317 -123 320 -106 c 128
 320.471 -104 320.706 -102.125 320.706 -100.372 c 0
 320.706 -87.2284 307.471 -81 281 -81 c 2xd0
 260 -81 l 1
 274 -14 l 1
 227 -7 203 3 177 25 c 0
 140.833 56.5498 121.838 102.311 121.838 154.993 c 0
 121.838 170.773 123.543 187.174 127 204 c 0
 155 336 272 431 406 431 c 0
 468 431 517 412 550 376 c 1
 553 389 l 2
 557 408 566 417 580 417 c 0
 590.075 417 595.345 411.595 595.345 400.319 c 0
 595.345 397.045 594.9 393.276 594 389 c 2
 574 298 l 2
 571 280 562 271 549 271 c 128
 538.208 271 532.24 275.824 532.24 287.187 c 0
 532.24 289.513 532.49 292.112 533 295 c 0
 533.273 297.409 533.407 299.795 533.407 302.156 c 0
 533.407 351.731 474.182 390 394 390 c 0
 284 390 192 315 169 205 c 0
 165.753 190.177 164.18 175.951 164.18 162.45 c 0
 164.18 80.3185 222.388 25 316 25 c 0
 389 25 456 49 519 97 c 0
 528 105 532 107 539 107 c 0
 547.844 107 554.342 99.9599 554.342 91.4145 c 0
 554.342 90.2979 554.231 89.1556 554 88 c 0
 550 71 512 42 463 19 c 0
 415 -3 370 -13 312 -16 c 1xb0
EndSplineSet
EndChar
StartChar: egrave
Encoding: 167 232 32767
OldEncoding: 232
Width: 600
Flags: W
HStem: -16 41<294 322> 199 41<155 562> 390 41<360 392>
DStem: 328 599 362 630 421 499 455 530
Fore
562 199 m 1
 146 199 l 1
 145.557 193.18 145.337 187.471 145.337 181.878 c 0
 145.337 86.5632 208.986 25 311 25 c 0
 373 25 451 47 498 79 c 0
 506 84 510 86 515 86 c 0
 523.844 86 530.342 78.9599 530.342 69.7226 c 0
 530.342 68.5157 530.231 67.2712 530 66 c 0
 523 31 393 -16 302 -16 c 0
 184.204 -16 103.715 62.4207 103.715 168.772 c 0
 103.715 184.305 105.432 200.433 109 217 c 0
 135 338 255 431 383 431 c 0
 479 431 548 380 566 297 c 0
 568.983 282.937 570.513 271.417 570.513 259.266 c 0
 570.513 242.903 567.738 225.397 562 199 c 1
155 240 m 1
 529 240 l 1
 529.071 242.144 529.106 244.27 529.106 246.378 c 0
 529.106 333.747 468.715 390 374 390 c 128
 277 390 193 332 155 240 c 1
362 630 m 2
 455 530 l 1
 460 522 l 2
 462.667 518.667 463.556 517.556 463.556 515.407 c 0
 463.556 514.333 463.333 513 463 511 c 0
 460 499 449 490 437 490 c 0
 432 490 427 493 421 499 c 2
 328 599 l 2
 322.698 605.059 320.265 608.823 320.265 613.769 c 0
 320.265 615.353 320.515 617.059 321 619 c 0
 323 630 334 639 345 639 c 0
 351 639 355 636 362 630 c 2
EndSplineSet
EndChar
StartChar: eacute
Encoding: 168 233 32767
OldEncoding: 233
Width: 600
Flags: W
HStem: -16 41<294 313> 199 41<155 562> 390 41<371 396>
DStem: 509 630 529 599 374 530 394 499
Fore
562 199 m 1
 146 199 l 1
 145.557 193.18 145.337 187.471 145.337 181.878 c 0
 145.337 86.5632 208.986 25 311 25 c 0
 373 25 451 47 498 79 c 0
 506 84 510 86 515 86 c 0
 523.844 86 530.342 78.9599 530.342 69.7226 c 0
 530.342 68.5157 530.231 67.2712 530 66 c 0
 523 31 393 -16 302 -16 c 0
 184.204 -16 103.715 62.4207 103.715 168.772 c 0
 103.715 184.305 105.432 200.433 109 217 c 0
 135 338 255 431 383 431 c 0
 479 431 548 380 566 297 c 0
 568.983 282.937 570.513 271.417 570.513 259.266 c 0
 570.513 242.903 567.738 225.397 562 199 c 1
155 240 m 1
 529 240 l 1
 529.071 242.144 529.106 244.27 529.106 246.378 c 0
 529.106 333.747 468.715 390 374 390 c 128
 277 390 193 332 155 240 c 1
529 599 m 2
 394 499 l 2
 384 492 379 490 373 490 c 0
 363.732 490 357.303 496.389 357.303 505.579 c 0
 357.303 507.296 357.528 509.111 358 511 c 0
 359 518 362 521 374 530 c 2
 509 630 l 2
 519 637 524 639 530 639 c 0
 539.268 639 545.697 632.611 545.697 623.421 c 0
 545.697 621.704 545.472 619.889 545 618 c 0
 544 611 540 607 529 599 c 2
EndSplineSet
EndChar
StartChar: ecircumflex
Encoding: 169 234 32767
OldEncoding: 234
Width: 600
Flags: W
HStem: -16 41<294 313> 199 41<155 562> 390 41<372 392>
DStem: 430 586 441 639 518 498 550 531 441 639 430 586 286 530 304 498
Fore
562 199 m 1
 146 199 l 1
 145.557 193.18 145.337 187.471 145.337 181.878 c 0
 145.337 86.5632 208.986 25 311 25 c 0
 373 25 451 47 498 79 c 0
 506 84 510 86 515 86 c 0
 523.844 86 530.342 78.9599 530.342 69.7226 c 0
 530.342 68.5157 530.231 67.2712 530 66 c 0
 523 31 393 -16 302 -16 c 0
 184.204 -16 103.715 62.4207 103.715 168.772 c 0
 103.715 184.305 105.432 200.433 109 217 c 0
 135 338 255 431 383 431 c 0
 479 431 548 380 566 297 c 0
 568.983 282.937 570.513 271.417 570.513 259.266 c 0
 570.513 242.903 567.738 225.397 562 199 c 1
155 240 m 1
 529 240 l 1
 529.071 242.144 529.106 244.27 529.106 246.378 c 0
 529.106 333.747 468.715 390 374 390 c 128
 277 390 193 332 155 240 c 1
441 639 m 1
 550 531 l 2
 556.554 524.446 558.866 520.544 558.866 515.817 c 0
 558.866 514.053 558.544 512.174 558 510 c 0
 556 499 545 490 534 490 c 0
 529 490 524 493 518 498 c 2
 430 586 l 1
 304 498 l 2
 296 493 289 490 284 490 c 0
 274.262 490 267.659 497.053 267.659 506.302 c 0
 267.659 507.501 267.77 508.738 268 510 c 0
 270 518 274 523 286 530 c 1
 441 639 l 1
EndSplineSet
EndChar
StartChar: edieresis
Encoding: 170 235 32767
OldEncoding: 235
Width: 600
Flags: W
HStem: -16 41<294 326> 199 41<155 562> 390 41<361 392> 511 100<303 324 524 545>
Fore
562 199 m 1
 146 199 l 1
 145.557 193.18 145.337 187.471 145.337 181.878 c 0
 145.337 86.5632 208.986 25 311 25 c 0
 373 25 451 47 498 79 c 0
 506 84 510 86 515 86 c 0
 523.844 86 530.342 78.9599 530.342 69.7226 c 0
 530.342 68.5157 530.231 67.2712 530 66 c 0
 523 31 393 -16 302 -16 c 0
 184.204 -16 103.715 62.4207 103.715 168.772 c 0
 103.715 184.305 105.432 200.433 109 217 c 0
 135 338 255 431 383 431 c 0
 479 431 548 380 566 297 c 0
 568.983 282.937 570.513 271.417 570.513 259.266 c 0
 570.513 242.903 567.738 225.397 562 199 c 1
155 240 m 1
 529 240 l 1
 529.071 242.144 529.106 244.27 529.106 246.378 c 0
 529.106 333.747 468.715 390 374 390 c 128
 277 390 193 332 155 240 c 1
324 611 m 0
 348.214 611 364.202 593.799 364.202 571.038 c 0
 364.202 567.48 363.811 563.786 363 560 c 0
 358 534 330 511 303 511 c 128
 279.039 511 262.166 529.114 262.166 552.062 c 0
 262.166 554.973 262.437 557.961 263 561 c 128
 269 588 297 611 324 611 c 0
545 611 m 0
 569.214 611 585.202 593.799 585.202 571.038 c 0
 585.202 567.48 584.811 563.786 584 560 c 0
 579 534 551 511 524 511 c 128
 500.039 511 483.166 529.114 483.166 552.062 c 0
 483.166 554.973 483.437 557.961 484 561 c 128
 490 588 518 611 545 611 c 0
EndSplineSet
EndChar
StartChar: igrave
Encoding: 171 236 32767
OldEncoding: 236
Width: 600
Flags: W
HStem: 0 41<117 288 329 491> 376 41<239 359>
DStem: 317 599 351 630 410 499 444 530 359 376 409 417 288 41 329 41
Fore
409 417 m 1
 329 41 l 1
 489 41 l 2
 505.192 41 512.668 35.9165 512.668 26.3683 c 0
 512.668 24.7121 512.443 22.9216 512 21 c 0
 509 7 498 0 480 0 c 2
 119 0 l 2
 103.47 0 95.3838 5.21073 95.3838 15.6322 c 0
 95.3838 17.2897 95.5883 19.0789 96 21 c 0
 99 34 110 41 128 41 c 2
 288 41 l 1
 359 376 l 1
 241 376 l 2
 225.47 376 217.384 381.211 217.384 391.632 c 0
 217.384 393.29 217.588 395.079 218 397 c 0
 221 410 232 417 250 417 c 2
 409 417 l 1
351 630 m 2
 444 530 l 1
 449 522 l 2
 451.667 518.667 452.556 517.556 452.556 515.407 c 0
 452.556 514.333 452.333 513 452 511 c 0
 449 499 438 490 426 490 c 0
 421 490 416 493 410 499 c 2
 317 599 l 2
 311.698 605.059 309.265 608.823 309.265 613.769 c 0
 309.265 615.353 309.515 617.059 310 619 c 0
 312 630 323 639 334 639 c 0
 340 639 344 636 351 630 c 2
EndSplineSet
EndChar
StartChar: iacute
Encoding: 172 237 32767
OldEncoding: 237
Width: 600
Flags: W
HStem: 0 41<117 288 329 491> 376 41<239 359>
DStem: 359 376 409 417 288 41 329 41 498 630 518 599 363 530 383 499
Fore
409 417 m 1
 329 41 l 1
 489 41 l 2
 505.192 41 512.668 35.9165 512.668 26.3683 c 0
 512.668 24.7121 512.443 22.9216 512 21 c 0
 509 7 498 0 480 0 c 2
 119 0 l 2
 103.47 0 95.3838 5.21073 95.3838 15.6322 c 0
 95.3838 17.2897 95.5883 19.0789 96 21 c 0
 99 34 110 41 128 41 c 2
 288 41 l 1
 359 376 l 1
 241 376 l 2
 225.47 376 217.384 381.211 217.384 391.632 c 0
 217.384 393.29 217.588 395.079 218 397 c 0
 221 410 232 417 250 417 c 2
 409 417 l 1
518 599 m 2
 383 499 l 2
 373 492 368 490 362 490 c 0
 352.732 490 346.303 496.389 346.303 505.579 c 0
 346.303 507.296 346.528 509.111 347 511 c 0
 348 518 351 521 363 530 c 2
 498 630 l 2
 508 637 513 639 519 639 c 0
 528.268 639 534.697 632.611 534.697 623.421 c 0
 534.697 621.704 534.472 619.889 534 618 c 0
 533 611 529 607 518 599 c 2
EndSplineSet
EndChar
StartChar: icircumflex
Encoding: 173 238 32767
OldEncoding: 238
Width: 600
Flags: W
HStem: 0 41<117 288 329 491> 376 41<239 359>
DStem: 359 376 409 417 288 41 329 41 408 586 419 639 496 498 528 531 419 639 408 586 264 530 282 498
Fore
409 417 m 1
 329 41 l 1
 489 41 l 2
 505.192 41 512.668 35.9165 512.668 26.3683 c 0
 512.668 24.7121 512.443 22.9216 512 21 c 0
 509 7 498 0 480 0 c 2
 119 0 l 2
 103.47 0 95.3838 5.21073 95.3838 15.6322 c 0
 95.3838 17.2897 95.5883 19.0789 96 21 c 0
 99 34 110 41 128 41 c 2
 288 41 l 1
 359 376 l 1
 241 376 l 2
 225.47 376 217.384 381.211 217.384 391.632 c 0
 217.384 393.29 217.588 395.079 218 397 c 0
 221 410 232 417 250 417 c 2
 409 417 l 1
419 639 m 1
 528 531 l 2
 534.554 524.446 536.866 520.544 536.866 515.817 c 0
 536.866 514.053 536.544 512.174 536 510 c 0
 534 499 523 490 512 490 c 0
 507 490 502 493 496 498 c 2
 408 586 l 1
 282 498 l 2
 274 493 267 490 262 490 c 0
 252.262 490 245.659 497.053 245.659 506.302 c 0
 245.659 507.501 245.77 508.738 246 510 c 0
 248 518 252 523 264 530 c 1
 419 639 l 1
EndSplineSet
EndChar
StartChar: idieresis
Encoding: 174 239 32767
OldEncoding: 239
Width: 600
Flags: W
HStem: 0 41<117 289 329 491> 376 41<239 359> 511 100<285 306 507 528>
DStem: 359 376 409 417 288 41 329 41
Fore
409 417 m 1
 329 41 l 1
 489 41 l 2
 505.192 41 512.668 35.9165 512.668 26.3683 c 0
 512.668 24.7121 512.443 22.9216 512 21 c 0
 509 7 498 0 480 0 c 2
 119 0 l 2
 103.47 0 95.3838 5.21073 95.3838 15.6322 c 0
 95.3838 17.2897 95.5883 19.0789 96 21 c 0
 99 34 110 41 128 41 c 2
 288 41 l 1
 359 376 l 1
 241 376 l 2
 225.47 376 217.384 381.211 217.384 391.632 c 0
 217.384 393.29 217.588 395.079 218 397 c 0
 221 410 232 417 250 417 c 2
 409 417 l 1
306 611 m 0
 330.214 611 346.202 593.799 346.202 571.038 c 0
 346.202 567.48 345.811 563.786 345 560 c 0
 340 534 312 511 285 511 c 128
 261.039 511 244.166 529.114 244.166 552.062 c 0
 244.166 554.973 244.437 557.961 245 561 c 128
 251 588 279 611 306 611 c 0
528 611 m 0
 552.214 611 568.202 593.799 568.202 571.038 c 0
 568.202 567.48 567.811 563.786 567 560 c 0
 562 534 534 511 507 511 c 128
 483.039 511 466.166 529.114 466.166 552.062 c 0
 466.166 554.973 466.437 557.961 467 561 c 128
 473 588 501 611 528 611 c 0
EndSplineSet
EndChar
StartChar: eth
Encoding: 175 240 32767
OldEncoding: 240
Width: 600
Flags: W
HStem: -17 42<286 319> 390 40<381 399> 482 138<312 327>
DStem: 394 549 435 525 325 521 335 483 554 614 563 577 450 572 480 543
Fore
563 577 m 2
 480 543 l 1
 545.658 474.139 581.824 379.633 581.824 288.229 c 0
 581.824 265.479 579.584 242.922 575 221 c 0
 559 148 527 93 472 48 c 0
 420 6 358 -17 296 -17 c 0
 185.634 -17 110.763 57.7647 110.763 159.385 c 0
 110.763 174.702 112.464 190.628 116 207 c 0
 142 330 264 430 389 430 c 0
 444 430 478 416 524 377 c 1
 504 441 470 495 435 525 c 1
 335 483 l 2
 332 482 330 482 327 482 c 0
 318.156 482 311.658 490.605 311.658 500.895 c 0
 311.658 502.24 311.769 503.613 312 505 c 0
 314 512 318 519 325 521 c 2
 394 549 l 1
 359 565 341 572 302 580 c 0
 290.839 582.576 285.574 586.626 285.574 594.049 c 0
 285.574 595.271 285.717 596.586 286 598 c 0
 289 611 300 620 312 620 c 0
 339 620 397 600 450 572 c 1
 554 614 l 1
 561 615 l 2
 569.412 615 575.701 608.632 575.701 599.467 c 0
 575.701 597.736 575.476 595.906 575 594 c 0
 574 586 568 579 563 577 c 2
384 390 m 0
 280 390 180 309 158 208 c 0
 155.344 195.101 154.064 182.537 154.064 170.431 c 0
 154.064 86.8084 215.152 25 306 25 c 0
 409 25 511 106 532 205 c 0
 534.884 218.763 536.273 232.097 536.273 244.877 c 0
 536.273 329.598 475.237 390 384 390 c 0
EndSplineSet
EndChar
StartChar: ntilde
Encoding: 176 241 32767
OldEncoding: 241
Width: 600
Flags: W
HStem: 0 41<79 135 176 223 403 448 489 525> 376 41<170 206> 390 41<400 425> 516 41<462 472> 564 41<348 360>
DStem: 206 376 229 294 135 41 176 41 500 288 543 295 448 41 489 41
Fore
256 417 m 1xd8
 241 348 l 1
 313 412 353 431 415 431 c 0
 493.659 431 545.76 384.914 545.76 321.047 c 0
 545.76 312.651 544.859 303.947 543 295 c 2
 489 41 l 1
 523 41 l 2
 538.32 41 545.672 35.9293 545.672 26.4044 c 0
 545.672 24.7382 545.447 22.9356 545 21 c 0
 542 7 532 0 514 0 c 2
 405 0 l 2
 389.47 0 381.384 5.21073 381.384 15.6322 c 0
 381.384 17.2897 381.588 19.0789 382 21 c 0
 385 34 396 41 414 41 c 2
 448 41 l 1
 500 288 l 2
 501.66 295.112 502.476 301.944 502.476 308.507 c 0
 502.476 329.629 494.021 347.979 478 364 c 0
 459 384 441 390 402 390 c 0xb8
 364 390 333 380 300 357 c 0
 283 346 270 335 229 294 c 1
 176 41 l 1
 221 41 l 2
 236.32 41 243.672 35.9293 243.672 26.4044 c 0
 243.672 24.7382 243.447 22.9356 243 21 c 0
 240 7 230 0 212 0 c 2
 81 0 l 2
 64.5909 0 56.3864 5.22107 56.3864 15.6632 c 0
 56.3864 17.312 56.5909 19.0909 57 21 c 0
 60 34 71 41 90 41 c 2
 135 41 l 1
 206 376 l 1
 172 376 l 2
 156.47 376 148.384 381.211 148.384 391.632 c 0
 148.384 393.29 148.588 395.079 149 397 c 0
 152 410 163 417 181 417 c 2
 256 417 l 1xd8
553 603 m 0
 561.956 603 569.309 595.78 569.309 586.37 c 0
 569.309 585.274 569.209 584.148 569 583 c 0
 567 575 562 569 540 552 c 0
 509 526 487 516 464 516 c 0
 442 516 424 523 389 547 c 0
 372 560 362 564 350 564 c 0
 330 564 320 558 284 527 c 0
 279 522 271 519 265 519 c 0
 255.262 519 248.659 525.269 248.659 534.339 c 0
 248.659 535.515 248.77 536.737 249 538 c 0
 251 546 259 555 275 568 c 0
 309 595 333 605 358 605 c 0
 378 605 389 601 417 582 c 0
 450 561 457 557 470 557 c 0
 487 557 499 564 535 595 c 0
 543 601 547 603 553 603 c 0
EndSplineSet
EndChar
